<svg id="Layer_1" data-name="Layer 1" xmlns="http://www.w3.org/2000/svg" viewBox="0 0 5099.48 1089.7"><defs><style>.cls-1,.cls-2,.cls-3,.cls-4,.cls-5,.cls-7{fill:none;}.cls-1,.cls-3,.cls-4,.cls-5,.cls-7{stroke:#151539;}.cls-1,.cls-2,.cls-3,.cls-4,.cls-5{stroke-miterlimit:10;}.cls-1{stroke-width:5px;}.cls-2{stroke:#f9a11b;}.cls-2,.cls-3,.cls-4,.cls-5,.cls-7{stroke-linecap:round;}.cls-2,.cls-3{stroke-width:30px;}.cls-4{stroke-width:10px;}.cls-5{stroke-width:23px;}.cls-6{fill:#151539;}.cls-7{stroke-linejoin:round;stroke-width:15px;}.cls-8{fill:#f9a11b;}</style></defs><line class="cls-1" x1="663.83" y1="759.6" x2="664.03" y2="759.5"/><path class="cls-1" d="M655.83,749c-43.1,21.5-85.5,42.2-126.8,66.7a16,16,0,0,0-4.9,25c6.3,6.7,15.8,6.9,22.6,2.8,10.1-8.4,22.2-15.5,32.3-23.9,28.5-20.5,57.6-40.1,86.1-60.3"/><path class="cls-2" d="M222.33,1038h-82.4a65.19,65.19,0,0,1-65-65V144.1a65.19,65.19,0,0,1,65-65H405c117.5,0,13.9,180.9,116.2,187.9h433.5s102.5-17.1,91.8,106.8"/><path class="cls-3" d="M277,628.5V529.8a76,76,0,0,1,75.8-75.8h608.6a76,76,0,0,1,75.8,75.8V963.3a76,76,0,0,1-75.8,75.8H352.93a76,76,0,0,1-75.8-75.8V916.5"/><path class="cls-4" d="M740.73,961.2a221.78,221.78,0,0,1-99.2,23.2c-123.2,0-223-99.9-223-223s99.9-223,223-223a222.48,222.48,0,0,1,99.2,23.2"/><path class="cls-3" d="M411.43,764.8H337a60.07,60.07,0,0,1-59.9-59.9V633.6"/><circle class="cls-5" cx="277.03" cy="864.2" r="44.7"/><circle class="cls-6" cx="276.53" cy="865.5" r="13.7"/><path class="cls-1" d="M755.53,766.1l-32.1,19.1a13.18,13.18,0,0,1-18-4.6L650,687.7a13.18,13.18,0,0,1,4.6-18l32.1-19.1a13.18,13.18,0,0,1,18,4.6l55.4,92.9A13.18,13.18,0,0,1,755.53,766.1Z"/><path class="cls-1" d="M692.53,636.9l-51.2,30.5a7.69,7.69,0,0,1-10.6-2.7l-1.1-1.8a7.69,7.69,0,0,1,2.7-10.6l51.2-30.5a7.69,7.69,0,0,1,10.6,2.7l1.1,1.8A7.9,7.9,0,0,1,692.53,636.9Z"/><path class="cls-1" d="M780,783.8l-51.2,30.5a7.69,7.69,0,0,1-10.6-2.7l-1.1-1.8a7.69,7.69,0,0,1,2.7-10.6L771,768.7a7.69,7.69,0,0,1,10.6,2.7l1.1,1.8A7.8,7.8,0,0,1,780,783.8Z"/><path class="cls-1" d="M697.83,766.4l-4.7,2.8c-2.7,1.6-7.5-1.5-10.7-6.9l-19.8-33.2c-3.2-5.4-3.6-11.1-.9-12.7l4.7-2.8"/><path class="cls-1" d="M682,765.1l-3.2,1.9c-1.8,1.1-5-1-7.2-4.6l-13.2-22.2c-2.1-3.6-2.4-7.4-.6-8.5l3.2-1.9"/><path class="cls-1" d="M670.23,763.4l-2,1.2c-1.1.7-3.2-.6-4.5-2.9l-8.4-14.1c-1.4-2.3-1.5-4.7-.4-5.4l2-1.2"/><path class="cls-3" d="M457.13,884.6a221.82,221.82,0,0,1,1.5-248.3"/><circle class="cls-6" cx="751.53" cy="571" r="13.5"/><circle class="cls-6" cx="751.53" cy="955" r="13.5"/><line class="cls-7" x1="1102.03" y1="277.1" x2="1414.53" y2="277.1"/><line class="cls-7" x1="1102.03" y1="323.4" x2="1305.83" y2="323.4"/><line class="cls-7" x1="1102.03" y1="369.7" x2="1228.83" y2="369.7"/><path class="cls-6" d="M1138.43,575.6q39.15-68.55,106.8-106.8T1397,430.5q98.4,0,172.5,50.5a257.7,257.7,0,0,1,46.8,40.6c34.5,38,7.2,99.1-44.2,99.1h-1.3a59.29,59.29,0,0,1-48-24.9,133.31,133.31,0,0,0-42.1-38.2q-36.6-21-84.5-21-51.29,0-91.3,24t-62.3,67.7q-22.35,43.8-22.3,102.6,0,58.05,22.3,102.2c14.9,29.4,35.6,52.2,62.3,68.1s57.1,24,91.3,24c32,0,60.1-7.1,84.5-21.5a135.93,135.93,0,0,0,42.1-38.6,59.15,59.15,0,0,1,48-24.9h1.2c51.6,0,79.1,61.2,44.6,99.5a260.45,260.45,0,0,1-46.7,40.6q-73.65,50.1-172.9,50.1-84.15,0-151.8-38.3-67.8-38.25-106.8-106.4-39.15-68.1-39.1-154.8Q1099.33,644.05,1138.43,575.6Z"/><path class="cls-6" d="M1723.93,665.2q28.2-54.6,76.6-84.1t108.1-29.4q52.21,0,91.31,21t62.69,53v-7.2a59.31,59.31,0,0,1,59.31-59.3h0a59.3,59.3,0,0,1,59.3,59.3V965.9a59.31,59.31,0,0,1-59.3,59.3h0a59.3,59.3,0,0,1-59.31-59.3v-8.8Q2040,990,1999.94,1011.4t-92.11,21.5q-58.95,0-107.3-30.3t-76.6-85.4q-28.2-55.05-28.2-126.6Q1695.73,719.8,1723.93,665.2Zm321.7,53.4c-11.2-20.5-26.4-36.2-45.4-47.1a121.75,121.75,0,0,0-61.4-16.4,118.9,118.9,0,0,0-60.6,16c-18.5,10.7-33.5,26.2-45,46.7s-17.2,44.7-17.2,72.8,5.7,52.6,17.2,73.6,26.6,37.2,45.4,48.4a115.42,115.42,0,0,0,60.1,16.8,121.75,121.75,0,0,0,61.4-16.4q28.65-16.35,45.4-47.1t16.8-73.6C2062.53,763.6,2056.93,739.1,2045.63,718.6Z"/><path class="cls-6" d="M2324.13,1012.2q-45.45-20.55-71.9-55.9a3,3,0,0,1-.5-.7c-23.8-32.1-.7-77.5,39.2-77.5h17a49,49,0,0,1,42.1,24.4,70.81,70.81,0,0,0,18.3,20.2q23.1,17.7,57.61,17.7c22.39,0,40-4.5,52.6-13.5s18.9-20.5,18.9-34.5c0-15.1-7.7-26.5-23.11-34.1s-40-15.8-73.6-24.8c-34.8-8.4-63.2-17.1-85.4-26.1a148.29,148.29,0,0,1-57.2-41.2q-24-27.75-24-74.9a120.79,120.79,0,0,1,22.31-70.7q22.33-32,63.89-50.5c27.8-12.3,60.4-18.5,98-18.5q83.25,0,132.9,41.6a153.87,153.87,0,0,1,24.6,25.9c26.5,35.7.8,86.4-43.7,86.4h-1.89c-18.8,0-35.8-10.4-45.11-26.7a60.78,60.78,0,0,0-15.1-17.4q-20.55-16.35-55.1-16.4-31.95,0-49.2,11.8c-11.5,7.9-17.2,18.8-17.2,32.8,0,15.7,7.8,27.6,23.6,35.8s40.11,16.4,73.2,24.8q50.41,12.6,83.3,26.1t56.81,41.6q24,28.2,24.8,74.4,0,40.35-22.3,72.3t-63.9,50.1c-27.8,12.1-60.1,18.1-97.2,18.1Q2369.53,1032.8,2324.13,1012.2Z"/><path class="cls-6" d="M3047,827.5h-298.9q4.22,50.4,35.31,79.1c20.69,19.1,46.3,28.6,76.6,28.6,34.6,0,61.4-11.8,80.2-35.3a55,55,0,0,1,43.1-21h0c50,0,74.5,61.4,37.9,95.4a222.13,222.13,0,0,1-18.11,15.2q-57.15,43.35-140.5,43.3-67.34,0-120.69-29.9t-83.31-84.5q-29.84-54.6-29.89-126.2,0-72.3,29.39-127t82.4-84.1q52.95-29.4,122-29.4,66.45,0,119,28.6c35,19.1,62.3,46.1,81.6,81.2s29,75.3,29,120.7v.5A45,45,0,0,1,3047,827.5Zm-76.8-79.1c-.6-30.3-11.5-54.5-32.8-72.8s-47.4-27.3-78.2-27.3q-43.8,0-73.6,26.5T2749,748.4Z"/><path class="cls-8" d="M3498,474.2q70.2,36.15,108.5,103.1t38.3,155.2q0,88.35-38.3,154.4T3498,989.1q-70.2,36.15-162.8,36.2h-136.6a68.75,68.75,0,0,1-68.7-68.7V506.7a68.75,68.75,0,0,1,68.7-68.7h136.6Q3427.78,438,3498,474.2Zm-24,400.4q50.55-50.4,50.5-142.2,0-91.65-50.5-143.4t-143-51.7h-29.5a53.82,53.82,0,0,0-53.8,53.8V871.4a53.82,53.82,0,0,0,53.8,53.8H3331Q3423.58,925.05,3474,874.6Z"/><path class="cls-8" d="M3862.33,573.5a154.36,154.36,0,0,1,46.4-17.4,31.15,31.15,0,0,1,37.3,30.5V645a31.07,31.07,0,0,1-31.1,31.1h0q-55.5,0-83.7,26.1T3803,793.1V966.4a58.94,58.94,0,0,1-58.9,58.9h0a58.94,58.94,0,0,1-58.9-58.9V618.1a58.94,58.94,0,0,1,58.9-58.9h0a58.94,58.94,0,0,1,58.9,58.9v13.5A164.18,164.18,0,0,1,3862.33,573.5Z"/><path class="cls-8" d="M3985.13,483.9q-20.55-19.8-20.6-49.2t20.6-49.2c13.71-13.2,31-19.8,51.71-19.8s38,6.6,51.7,19.8,20.6,29.6,20.6,49.2-6.9,36-20.6,49.2-31,19.8-51.7,19.8S3998.83,497.1,3985.13,483.9ZM4094.93,618V966.3a58.94,58.94,0,0,1-58.9,58.9h0a58.94,58.94,0,0,1-58.9-58.9V618a58.94,58.94,0,0,1,58.9-58.9h0A59,59,0,0,1,4094.93,618Z"/><path class="cls-8" d="M4357.33,916.7l104.6-317.6a58,58,0,0,1,55.1-39.9h0c40.4,0,68.5,40.3,54.4,78.2l-118.7,320.9a102.56,102.56,0,0,1-96.2,67h0a102.63,102.63,0,0,1-96.3-67.2l-118.1-320.8c-14-37.9,14.1-78.1,54.5-78.1h1a58,58,0,0,1,55.1,39.9Z"/><path class="cls-8" d="M5007,827.5h-298.9q4.2,50.4,35.3,79.1c20.7,19.1,46.3,28.6,76.6,28.6q51.9,0,80.21-35.3a55,55,0,0,1,43.1-21h0c50,0,74.5,61.4,37.9,95.4a225.58,225.58,0,0,1-18.11,15.2q-57.15,43.35-140.5,43.3-67.34,0-120.7-29.9t-83.3-84.5q-29.84-54.6-29.89-126.2,0-72.3,29.39-127t82.4-84.1q52.95-29.4,122-29.4,66.45,0,119,28.6c35,19.1,62.3,46.1,81.6,81.2s29,75.3,29,120.7v.5C5052.23,807.4,5031.93,827.5,5007,827.5Zm-76.8-79.1c-.6-30.3-11.5-54.5-32.8-72.8s-47.4-27.3-78.2-27.3q-43.8,0-73.6,26.5T4709,748.4Z"/><circle class="cls-6" cx="1441.03" cy="277.5" r="11.4"/><circle class="cls-6" cx="1331.03" cy="324.5" r="11.4"/><circle class="cls-6" cx="1254.03" cy="370.5" r="11.4"/></svg>