<svg width="470" height="360" viewBox="0 0 470 360" fill="none" xmlns="http://www.w3.org/2000/svg">
<g opacity="0.6">
<path d="M104.966 328.564C159.093 315.129 220.596 301.452 316.098 303.781C369.508 305.084 381.611 288.509 422.09 267.901C458.17 249.536 475.89 213.011 465.007 192.312C454.02 171.415 420.553 179.734 393.146 148.627C380.664 134.46 382.86 124.529 375.654 108.818C352.838 59.0711 267.303 20.1876 225.127 40.7658C169.406 67.9514 217.043 185.421 154.757 217.504C115.358 237.803 85.5797 198.836 46.6782 228.582C27.403 243.321 3.82851 263.996 2.00544 286.444C2.00544 286.444 -0.547297 341.328 104.966 328.564Z" stroke="#E0E0E0" stroke-width="3" stroke-miterlimit="10" stroke-linecap="round" stroke-dasharray="50 50 50 50 50 50"/>
<path d="M404.018 267.436C404.018 267.436 394.214 280.436 384.407 298.272C375.566 314.356 368.843 336.031 367.358 354.123C363.194 353.927 358.62 353.742 353.675 353.566C324.389 352.527 282.109 351.876 235.098 351.876C181.652 351.876 134.323 352.718 105.249 354.014C104.247 354.059 103.268 354.104 102.311 354.149C66.0121 309.157 -7.0822 230.775 60.1844 198.53C60.1844 198.53 65.1122 197.029 72.5003 193.805C95.8833 183.595 143.934 156.138 138.589 104.353C138.589 104.353 136.768 94.6914 136.768 81.247C136.768 49.8101 146.721 -2.29964 213.164 0.0786553C253.401 1.52095 290.457 21.996 312.86 54.7688C334.835 86.913 369.971 126.458 398.589 103.883C405.195 98.6715 413.928 96.7378 422.082 99.03C442.674 104.82 466.072 134.768 404.018 267.436Z" fill="#EBEBEB"/>
<path d="M393.79 261.915C393.79 261.915 384.588 274.105 375.385 290.831C367.087 305.914 360.778 326.24 359.384 343.206C355.476 343.021 351.184 342.848 346.543 342.683C319.058 341.709 279.379 341.098 235.258 341.098C185.1 341.098 140.682 341.888 113.395 343.103C112.456 343.145 111.537 343.187 110.638 343.23C76.5718 301.039 7.97302 227.536 71.1026 197.298C71.1026 197.298 75.7274 195.891 82.661 192.868C104.606 183.293 149.702 157.545 144.686 108.984C144.686 108.984 142.977 99.9238 142.977 87.3163C142.977 57.8364 152.317 8.97047 214.674 11.2007C252.436 12.5532 287.213 31.7537 308.238 62.4864C328.862 92.6296 361.837 129.713 388.695 108.544C394.894 103.656 403.09 101.843 410.743 103.992C430.068 109.422 452.027 137.506 393.79 261.915Z" fill="#EBEBEB"/>
</g>
<path opacity="0.15" d="M457.449 355.874C457.449 358.002 357.899 359.727 235.097 359.727C165.809 359.727 103.922 359.178 63.1434 358.316C53.7504 358.119 45.4796 357.904 38.4946 357.678C33.8944 357.528 29.8526 357.372 26.416 357.209C17.575 356.795 12.7461 356.347 12.7461 355.878C12.7461 355.281 20.584 354.715 34.5719 354.212C40.2996 353.999 47.0591 353.808 54.7343 353.625C95.1195 352.656 160.86 352.029 235.097 352.029C300.398 352.029 359.125 352.516 399.804 353.294C435.622 353.97 457.449 354.879 457.449 355.874Z" fill="#93999B"/>
<path d="M452.103 163.782L452.081 204.797C452.081 205.166 452.008 205.532 451.866 205.873C451.725 206.214 451.517 206.524 451.256 206.785C450.994 207.046 450.684 207.253 450.343 207.395C450.001 207.536 449.635 207.608 449.266 207.608L412.996 207.588C412.626 207.588 412.261 207.515 411.919 207.373C411.578 207.232 411.268 207.024 411.007 206.763C410.746 206.502 410.539 206.191 410.397 205.85C410.256 205.509 410.183 205.143 410.184 204.773L410.211 156.209C410.212 155.463 410.509 154.747 411.036 154.22C411.564 153.693 412.28 153.397 413.026 153.397L441.557 153.413L441.745 153.598L452.103 163.782Z" fill="#9FBDFF"/>
<path opacity="0.1" d="M452.103 163.781H444.031C443.73 163.781 443.433 163.722 443.155 163.607C442.877 163.492 442.625 163.323 442.412 163.11C442.2 162.897 442.031 162.645 441.916 162.367C441.801 162.089 441.742 161.791 441.742 161.49V153.604L452.103 163.781Z" fill="black"/>
<path d="M447.338 169.713H414.962C414.318 169.713 413.797 170.234 413.797 170.878V170.879C413.797 171.522 414.318 172.043 414.962 172.043H447.338C447.981 172.043 448.502 171.522 448.502 170.879V170.878C448.502 170.234 447.981 169.713 447.338 169.713Z" fill="#EEF2FE"/>
<path d="M447.381 175.562H415.005C414.361 175.562 413.84 176.084 413.84 176.727V176.728C413.84 177.371 414.361 177.893 415.005 177.893H447.381C448.024 177.893 448.545 177.371 448.545 176.728V176.727C448.545 176.084 448.024 175.562 447.381 175.562Z" fill="#EEF2FE"/>
<path d="M447.278 183.644L414.903 183.626C414.594 183.625 414.297 183.501 414.079 183.282C413.861 183.062 413.738 182.766 413.738 182.456C413.738 182.146 413.862 181.848 414.081 181.629C414.3 181.409 414.598 181.286 414.908 181.286L447.283 181.304C447.593 181.306 447.889 181.43 448.107 181.649C448.325 181.868 448.448 182.165 448.448 182.474C448.448 182.785 448.325 183.082 448.105 183.302C447.886 183.521 447.588 183.644 447.278 183.644Z" fill="#EEF2FE"/>
<path d="M447.327 189.495L414.951 189.477C414.641 189.477 414.343 189.353 414.124 189.134C413.905 188.915 413.781 188.617 413.781 188.307C413.781 187.996 413.905 187.699 414.124 187.479C414.343 187.26 414.641 187.137 414.951 187.137L447.326 187.155C447.636 187.156 447.932 187.28 448.15 187.499C448.368 187.719 448.491 188.015 448.491 188.325C448.491 188.634 448.369 188.931 448.151 189.15C447.932 189.369 447.636 189.493 447.327 189.495Z" fill="#EEF2FE"/>
<path d="M447.372 195.346L414.997 195.328C414.687 195.326 414.391 195.203 414.173 194.983C413.955 194.764 413.832 194.467 413.832 194.158C413.833 193.848 413.957 193.552 414.177 193.334C414.396 193.116 414.693 192.993 415.002 192.993L447.378 193.011C447.531 193.011 447.683 193.042 447.825 193.1C447.966 193.159 448.095 193.246 448.203 193.354C448.311 193.463 448.397 193.592 448.455 193.734C448.513 193.876 448.543 194.028 448.542 194.181C448.54 194.491 448.416 194.787 448.197 195.005C447.978 195.223 447.681 195.346 447.372 195.346Z" fill="#EEF2FE"/>
<path d="M418.147 209.648C421.702 206.093 421.702 200.331 418.147 196.776C414.593 193.222 408.83 193.222 405.276 196.776C401.721 200.331 401.721 206.093 405.276 209.648C408.83 213.202 414.593 213.202 418.147 209.648Z" fill="white"/>
<path d="M416.251 202.029L412.892 202.027L412.894 198.668L410.525 198.667L410.524 202.026L407.165 202.024L407.164 204.393L410.522 204.395L410.521 207.753L412.889 207.754L412.891 204.396L416.25 204.398L416.251 202.029Z" fill="#6695FF"/>
<path d="M318.505 36.7837L318.484 77.7987C318.483 78.1681 318.41 78.5339 318.269 78.8751C318.127 79.2163 317.92 79.5263 317.658 79.7874C317.397 80.0484 317.086 80.2554 316.745 80.3965C316.404 80.5376 316.038 80.6101 315.668 80.6099L279.398 80.5897C279.029 80.5895 278.663 80.5166 278.322 80.3751C277.98 80.2336 277.67 80.0262 277.409 79.7649C277.148 79.5036 276.941 79.1933 276.8 78.852C276.658 78.5106 276.586 78.1447 276.586 77.7753L276.614 29.2106C276.614 28.4647 276.911 27.7495 277.439 27.2223C277.966 26.6951 278.682 26.3991 279.428 26.3994L307.959 26.4154L308.147 26.6004L318.505 36.7837Z" fill="#9FBDFF"/>
<path opacity="0.1" d="M318.505 36.7844H310.433C310.133 36.7843 309.835 36.7249 309.557 36.6097C309.279 36.4945 309.027 36.3257 308.814 36.1129C308.602 35.9002 308.433 35.6476 308.318 35.3698C308.203 35.0919 308.144 34.7941 308.145 34.4933V26.6064L318.505 36.7844Z" fill="black"/>
<path d="M313.744 42.7129H281.368C280.725 42.7129 280.203 43.2343 280.203 43.8776V43.8786C280.203 44.5219 280.725 45.0433 281.368 45.0433H313.744C314.387 45.0433 314.909 44.5219 314.909 43.8786V43.8776C314.909 43.2343 314.387 42.7129 313.744 42.7129Z" fill="#EEF2FE"/>
<path d="M313.791 48.5635H281.415C280.771 48.5635 280.25 49.0849 280.25 49.7282V49.7292C280.25 50.3725 280.771 50.8939 281.415 50.8939H313.791C314.434 50.8939 314.955 50.3725 314.955 49.7292V49.7282C314.955 49.0849 314.434 48.5635 313.791 48.5635Z" fill="#EEF2FE"/>
<path d="M313.688 56.6457L281.313 56.6277C281.004 56.6262 280.708 56.5024 280.489 56.2831C280.271 56.0638 280.148 55.767 280.148 55.4577C280.15 55.1483 280.274 54.852 280.493 54.6338C280.712 54.4155 281.009 54.293 281.318 54.293L313.693 54.3111C314.004 54.3111 314.301 54.4343 314.521 54.6537C314.74 54.8732 314.863 55.1708 314.863 55.4811C314.863 55.6347 314.832 55.7867 314.772 55.9284C314.713 56.0701 314.626 56.1987 314.517 56.3068C314.408 56.415 314.278 56.5006 314.136 56.5587C313.994 56.6169 313.842 56.6464 313.688 56.6457Z" fill="#EEF2FE"/>
<path d="M313.736 62.4963L281.36 62.4782C281.051 62.4768 280.754 62.3529 280.536 62.1337C280.318 61.9144 280.195 61.6176 280.195 61.3082C280.197 60.9989 280.321 60.7026 280.54 60.4844C280.759 60.2661 281.056 60.1436 281.365 60.1436L313.74 60.1616C314.051 60.1616 314.348 60.2849 314.568 60.5043C314.787 60.7237 314.91 61.0213 314.91 61.3316C314.909 61.6418 314.784 61.9386 314.564 62.157C314.344 62.3754 314.046 62.4975 313.736 62.4963Z" fill="#EEF2FE"/>
<path d="M313.778 68.3469L281.403 68.3288C281.094 68.3274 280.797 68.2035 280.579 67.9843C280.361 67.765 280.238 67.4682 280.238 67.1588C280.24 66.8494 280.364 66.5532 280.583 66.3349C280.802 66.1167 281.099 65.9941 281.408 65.9941L313.784 66.0122C313.938 66.0122 314.09 66.0425 314.231 66.1014C314.373 66.1603 314.501 66.2466 314.609 66.3553C314.718 66.464 314.803 66.5931 314.861 66.735C314.919 66.8769 314.949 67.0289 314.948 67.1822C314.947 67.4916 314.823 67.7878 314.603 68.0061C314.384 68.2244 314.087 68.3469 313.778 68.3469Z" fill="#EEF2FE"/>
<path d="M284.553 82.6487C288.108 79.0943 288.108 73.3315 284.553 69.7771C280.999 66.2227 275.236 66.2227 271.682 69.7771C268.127 73.3315 268.127 79.0943 271.682 82.6487C275.236 86.203 280.999 86.203 284.553 82.6487Z" fill="white"/>
<path d="M282.665 75.0311L279.307 75.029L279.308 71.67L276.939 71.6689L276.938 75.0279L273.579 75.0258L273.578 77.3945L276.936 77.3966L276.934 80.7545L279.303 80.7556L279.305 77.3977L282.664 77.3998L282.665 75.0311Z" fill="#6695FF"/>
<path d="M62.2745 212.816L62.2532 253.831C62.253 254.2 62.1799 254.566 62.0383 254.907C61.8966 255.249 61.6892 255.559 61.4277 255.82C61.1663 256.081 60.856 256.288 60.5146 256.429C60.1731 256.57 59.8072 256.642 59.4378 256.642L23.1677 256.622C22.7983 256.622 22.4325 256.549 22.0912 256.407C21.7499 256.266 21.4399 256.058 21.1787 255.797C20.9176 255.536 20.7105 255.226 20.5692 254.884C20.428 254.543 20.3553 254.177 20.3555 253.807L20.3831 205.243C20.3837 204.497 20.6805 203.782 21.2083 203.255C21.736 202.727 22.4516 202.431 23.1975 202.432L51.7285 202.448L51.9168 202.633L62.2745 212.816Z" fill="#9FBDFF"/>
<path opacity="0.1" d="M62.2789 212.816L54.2069 212.811C53.9062 212.811 53.6084 212.751 53.3307 212.636C53.0529 212.521 52.8005 212.352 52.5879 212.139C52.3754 211.927 52.2068 211.674 52.0919 211.396C51.9769 211.118 51.9178 210.82 51.918 210.52V202.633L62.2789 212.816Z" fill="black"/>
<path d="M57.5134 218.746H25.1373C24.4941 218.746 23.9727 219.268 23.9727 219.911V219.912C23.9727 220.555 24.4941 221.077 25.1373 221.077H57.5134C58.1567 221.077 58.6781 220.555 58.6781 219.912V219.911C58.6781 219.268 58.1567 218.746 57.5134 218.746Z" fill="#EEF2FE"/>
<path d="M57.5603 224.596H25.1842C24.541 224.596 24.0195 225.117 24.0195 225.76V225.761C24.0195 226.405 24.541 226.926 25.1842 226.926H57.5603C58.2035 226.926 58.725 226.405 58.725 225.761V225.76C58.725 225.117 58.2035 224.596 57.5603 224.596Z" fill="#EEF2FE"/>
<path d="M57.4513 232.678L25.0763 232.66C24.7659 232.66 24.4684 232.537 24.2489 232.318C24.0295 232.098 23.9062 231.801 23.9062 231.49C23.9062 231.18 24.0295 230.882 24.2489 230.663C24.4684 230.444 24.7659 230.32 25.0763 230.32L57.4513 230.338C57.7616 230.338 58.0592 230.462 58.2786 230.681C58.498 230.9 58.6213 231.198 58.6213 231.508C58.6213 231.819 58.498 232.116 58.2786 232.336C58.0592 232.555 57.7616 232.678 57.4513 232.678Z" fill="#EEF2FE"/>
<path d="M57.5056 238.529L25.1295 238.511C24.8201 238.509 24.5239 238.386 24.3057 238.166C24.0874 237.947 23.9648 237.65 23.9648 237.341C23.9648 237.031 24.0881 236.733 24.3075 236.514C24.527 236.294 24.8245 236.171 25.1348 236.171L57.5099 236.189C57.8192 236.19 58.1155 236.314 58.3337 236.534C58.552 236.753 58.6745 237.05 58.6745 237.359C58.6745 237.669 58.5514 237.967 58.3322 238.186C58.1131 238.405 57.8157 238.529 57.5056 238.529Z" fill="#EEF2FE"/>
<path d="M57.5489 244.379L25.1739 244.361C24.8636 244.361 24.566 244.238 24.3466 244.018C24.1272 243.799 24.0039 243.501 24.0039 243.191C24.0053 242.882 24.1292 242.585 24.3485 242.367C24.5677 242.149 24.8645 242.026 25.1739 242.026L57.55 242.044C57.7033 242.044 57.8552 242.075 57.9968 242.134C58.1384 242.193 58.2669 242.279 58.3751 242.388C58.4832 242.496 58.5688 242.625 58.6269 242.767C58.685 242.909 58.7145 243.061 58.7136 243.214C58.7122 243.523 58.5891 243.818 58.3709 244.036C58.1528 244.255 57.8574 244.378 57.5489 244.379Z" fill="#EEF2FE"/>
<path d="M28.3229 258.68C31.8773 255.126 31.8773 249.363 28.3229 245.808C24.7686 242.254 19.0058 242.254 15.4514 245.808C11.897 249.363 11.897 255.126 15.4514 258.68C19.0058 262.234 24.7686 262.234 28.3229 258.68Z" fill="white"/>
<path d="M26.4304 251.062L23.0725 251.06L23.0736 247.701L20.7048 247.7L20.7038 251.059L17.3448 251.057L17.3438 253.426L20.7017 253.428L20.7006 256.786L23.0683 256.787L23.0704 253.429L26.4293 253.431L26.4304 251.062Z" fill="#6695FF"/>
<path d="M155.923 235.437V222.262C155.923 219.417 153.942 217.11 151.497 217.11H105.243C102.797 217.11 100.816 219.417 100.816 222.262V354.621H246.535V250.278C246.535 245.052 242.895 240.811 238.404 240.811H160.546C157.994 240.819 155.923 238.41 155.923 235.437Z" fill="#407BFF"/>
<path d="M246.532 354.622H100.848L105.225 244.987H250.909L246.532 354.622Z" fill="#D3DCEF"/>
<path d="M246.532 354.62H100.848L109.575 248.426H255.26L246.532 354.62Z" fill="#EEF2FA"/>
<path d="M246.532 354.621H100.848L113.64 252.178H259.324L246.532 354.621Z" fill="#D3DCEF"/>
<path d="M246.532 354.62H100.848L117.188 254.141H262.873L246.532 354.62Z" fill="#F4F6FC"/>
<path d="M100.77 354.622H246.488L266.951 264.091C267.985 259.518 265.021 255.045 260.958 255.045H128.056C125.24 255.045 122.778 257.254 122.063 260.423L100.77 354.622Z" fill="#6695FF"/>
<path opacity="0.15" d="M210.684 351.461L214.388 333.623H249.206L245.502 351.461H210.684Z" fill="#3362CC"/>
<path d="M339.051 233.281L339.239 232.867L340.291 230.56L342.346 226.054L344.167 226.133L347.351 226.274L363.402 226.979L351.757 236.036L339.051 233.281Z" fill="#DB965F"/>
<path d="M338.027 223.4L329.165 217.001C327.463 215.638 325.962 213.671 325.054 212.353C324.558 211.64 324.158 210.865 323.862 210.049C323.269 208.39 322.302 206.71 321.483 205.445C320.664 204.181 319.994 203.332 319.994 203.332C319.693 203.534 319.478 203.841 319.392 204.193C319.306 204.546 319.355 204.917 319.53 205.235L321.032 207.977L318.758 205.989C317.992 205.31 317.041 204.875 316.026 204.739C312.23 204.258 312.869 208.675 312.869 208.675C313.742 211.884 319.413 215.81 319.413 215.81L336.153 231.977C336.651 232.457 337.251 232.82 337.907 233.039C338.564 233.257 339.261 233.326 339.948 233.241C340.635 233.155 341.294 232.917 341.877 232.544C342.46 232.171 342.952 231.672 343.317 231.084L342.352 226.127L338.027 223.4Z" fill="#CB7A63"/>
<path d="M364.803 237.486L355.645 237.1L348.422 236.454L348.938 225.49C359.902 222.524 365.885 221.661 366.996 222.008C367.396 222.133 368.232 222.965 368.232 222.965C369.238 224.966 369.622 227.222 369.334 229.444C369.046 231.665 368.1 233.749 366.618 235.428L364.803 237.486Z" fill="#407BFF"/>
<path d="M365.873 347.205L359.186 347.459L358.993 342.368L358.951 341.237L358.848 338.486L365.535 339.248L365.619 341.237L365.693 342.973L365.873 347.205Z" fill="#CB7A63"/>
<path d="M367.063 350.091C367.353 348.506 367.514 345.677 365.808 343.194C365.808 343.194 362.086 345.632 359.123 342.449C359.123 342.449 356.365 342.852 349.409 346.775C348.629 347.215 347.83 347.617 347.012 347.983C345.889 348.49 344.125 349.427 343.243 350.642C342.336 351.899 342.974 353.676 344.463 354.11C347.317 354.944 355.335 356.492 365.712 351.821C366.06 351.663 366.365 351.424 366.6 351.122C366.835 350.821 366.994 350.467 367.063 350.091Z" fill="#040C2B"/>
<path d="M366.628 340.602H358.582L352.49 299.205L343.875 258.275L343.438 256.203L362.227 255.683L364.854 255.609C364.854 255.609 368.577 261.197 365.705 273.978L364.854 294.972C364.854 294.972 370.014 310.212 366.628 340.602Z" fill="#407BFF"/>
<path opacity="0.15" d="M359.485 340.603H358.582L352.49 299.206L343.875 258.276L351.223 256.617L357.546 257C357.546 266.324 358.407 268.594 355.151 281.334L352.851 288.519L359.485 340.603Z" fill="black"/>
<path d="M362.263 336.256L361.295 336.908L356.712 339.994L355.248 337.817L353.867 335.767L352.309 333.45L352.146 333.207L351.699 332.545L352.174 332.32L357.785 329.671L357.804 329.7L359.882 332.753L362.263 336.256Z" fill="#CB7A63"/>
<path d="M364.296 340.356C358.035 349.888 350.402 352.818 347.734 353.586C347.428 353.675 347.106 353.694 346.792 353.642C346.477 353.591 346.178 353.469 345.917 353.287C345.655 353.105 345.438 352.866 345.281 352.589C345.123 352.312 345.03 352.003 345.007 351.685C344.901 350.103 345.99 348.13 346.718 347.005C347.221 346.225 347.687 345.419 348.117 344.597C350.508 340.038 352.224 337.674 353.128 336.579C353.356 336.294 353.602 336.023 353.866 335.771C358.08 336.835 359.88 332.758 359.88 332.758C361.92 333.609 363.218 335.152 364.01 336.504C364.206 336.839 364.371 337.161 364.509 337.461C364.722 337.922 364.814 338.43 364.777 338.936C364.74 339.443 364.574 339.931 364.296 340.356Z" fill="#040C2B"/>
<path d="M359.631 328.456L358.396 329.299L357.808 329.7L352.314 333.455L352.14 333.575L350.927 334.401L334.842 309.444L332.602 305.943C331.022 303.474 330.483 300.481 331.102 297.617L339.893 256.971L341.579 256.908L357.489 256.314L357.551 257.977C357.867 266.303 356.399 274.601 353.245 282.313L346.319 299.247C345.97 300.589 346.126 302.013 346.757 303.247L354.683 318.768L359.631 328.456Z" fill="#407BFF"/>
<path opacity="0.15" d="M365.619 341.237H358.951L358.848 338.486L365.535 339.248L365.619 341.237Z" fill="black"/>
<path d="M357.732 208.714L357.716 216.839L348.533 219.834C348.533 219.834 346.512 212.934 343.972 212.323C341.432 211.711 343.988 212.123 343.988 212.123L355.14 200.343L357.732 208.714Z" fill="#CB7A63"/>
<path d="M343.186 198.221C343.186 198.221 339.096 207.888 342.538 215.452C342.712 215.85 343.027 216.17 343.423 216.349C343.819 216.528 344.267 216.553 344.68 216.42C347.055 215.637 351.913 213.098 356.001 204.982C356.001 204.977 348.683 192.895 343.186 198.221Z" fill="#CB7A63"/>
<path d="M354.691 208.296C354.691 208.296 354.666 211.349 357.732 212.557C357.732 212.557 360.71 205.296 359.993 199.798C359.993 199.798 357.768 192.901 351.893 194.906C351.893 194.906 345.676 191.577 342.433 194.736C342.433 194.736 339.746 199.822 343.398 200.39C343.398 200.39 345.012 198.909 346.896 199.669C346.896 199.669 345.963 203.151 348.459 204.362L348.48 208.864L349.19 208.921L349.848 206.424C349.848 206.424 352.766 201.692 354.691 208.296Z" fill="black"/>
<path d="M357.991 215.882L360.118 217.273L360.472 217.505L365.952 221.088C366.598 221.511 367.134 222.079 367.519 222.748C367.904 223.416 368.125 224.166 368.165 224.937L368.609 233.366L368.715 235.337C368.715 235.386 368.715 235.435 368.715 235.484L368.308 255.64L368.29 256.564C368.283 256.976 368.149 257.376 367.908 257.711C367.667 258.045 367.329 258.298 366.94 258.435C361.692 260.276 355.076 260.276 349.385 259.723C345.765 259.361 342.172 258.773 338.626 257.964C338.146 257.854 337.722 257.573 337.433 257.173C337.145 256.773 337.013 256.282 337.06 255.792L338.39 241.981C338.399 241.894 338.401 241.806 338.398 241.718L337.739 222.313C337.726 221.938 338.53 220.611 338.873 220.46L344.829 218.622L345.092 218.509L347.474 217.48L357.991 215.882Z" fill="#9FBDFF"/>
<path opacity="0.15" d="M338.481 241.887C338.489 241.8 338.492 241.712 338.49 241.625L338.181 232.501L341.193 231.681L337.172 255.439L338.481 241.887Z" fill="black"/>
<path d="M328.896 182.064L307.009 249.192C306.812 249.797 306.498 250.357 306.084 250.84C305.671 251.323 305.166 251.72 304.599 252.008C304.032 252.297 303.414 252.47 302.78 252.52C302.146 252.569 301.508 252.493 300.904 252.296L241.544 232.941C240.323 232.543 239.31 231.676 238.729 230.531C238.147 229.386 238.044 228.057 238.442 226.835L264.356 147.352C264.553 146.747 264.867 146.187 265.281 145.704C265.694 145.221 266.199 144.824 266.766 144.536C267.333 144.247 267.951 144.074 268.585 144.024C269.219 143.975 269.857 144.051 270.461 144.248L317.155 159.473L317.368 159.876L328.896 182.064Z" fill="white"/>
<path opacity="0.1" d="M328.896 182.063L315.685 177.756C315.192 177.595 314.737 177.339 314.343 177.003C313.95 176.666 313.627 176.255 313.392 175.794C313.158 175.332 313.016 174.829 312.977 174.313C312.937 173.796 312.999 173.277 313.16 172.785L317.367 159.877L328.896 182.063Z" fill="black"/>
<path d="M318.129 184.159L267.918 167.788C267.692 167.714 267.505 167.554 267.398 167.342C267.29 167.13 267.271 166.884 267.345 166.659L267.595 165.893C267.669 165.667 267.829 165.48 268.04 165.373C268.252 165.265 268.498 165.246 268.723 165.319L318.934 181.691C319.046 181.727 319.15 181.785 319.239 181.862C319.328 181.938 319.402 182.032 319.455 182.136C319.508 182.241 319.54 182.355 319.549 182.473C319.558 182.59 319.544 182.708 319.508 182.819L319.258 183.585C319.221 183.697 319.163 183.801 319.087 183.89C319.01 183.979 318.917 184.053 318.812 184.106C318.708 184.159 318.593 184.191 318.476 184.2C318.359 184.209 318.241 184.195 318.129 184.159Z" fill="#E3E9F7"/>
<path d="M316.185 190.378L265.974 174.007C265.748 173.934 265.561 173.773 265.453 173.562C265.345 173.35 265.326 173.104 265.399 172.879L265.649 172.113C265.686 172.001 265.744 171.897 265.82 171.808C265.897 171.719 265.99 171.645 266.095 171.592C266.2 171.539 266.314 171.507 266.431 171.498C266.548 171.489 266.666 171.503 266.778 171.539L316.989 187.91C317.101 187.946 317.204 188.004 317.294 188.081C317.383 188.157 317.456 188.25 317.51 188.355C317.563 188.46 317.595 188.574 317.604 188.692C317.613 188.809 317.599 188.927 317.562 189.038L317.313 189.804C317.277 189.916 317.219 190.019 317.143 190.109C317.066 190.198 316.973 190.272 316.868 190.325C316.763 190.378 316.649 190.41 316.532 190.419C316.414 190.428 316.297 190.414 316.185 190.378Z" fill="#E3E9F7"/>
<path d="M314.237 196.599L264.028 180.228C263.916 180.191 263.812 180.133 263.723 180.057C263.634 179.98 263.56 179.887 263.507 179.782C263.454 179.678 263.422 179.563 263.413 179.446C263.404 179.329 263.418 179.211 263.454 179.099L263.703 178.333C263.74 178.222 263.798 178.118 263.874 178.029C263.951 177.939 264.044 177.866 264.149 177.813C264.254 177.76 264.368 177.728 264.485 177.718C264.602 177.709 264.72 177.724 264.832 177.76L315.043 194.131C315.269 194.204 315.456 194.365 315.564 194.577C315.672 194.788 315.691 195.034 315.617 195.26L315.367 196.025C315.331 196.137 315.273 196.241 315.196 196.33C315.12 196.42 315.026 196.493 314.921 196.547C314.816 196.6 314.702 196.632 314.584 196.641C314.467 196.65 314.349 196.636 314.237 196.599Z" fill="#E3E9F7"/>
<path d="M312.294 202.819L262.082 186.448C261.971 186.412 261.867 186.354 261.778 186.277C261.688 186.201 261.615 186.108 261.562 186.003C261.509 185.898 261.477 185.784 261.467 185.666C261.458 185.549 261.473 185.431 261.509 185.32L261.759 184.554C261.833 184.328 261.993 184.141 262.204 184.033C262.416 183.925 262.662 183.906 262.888 183.979L313.099 200.351C313.211 200.387 313.314 200.445 313.403 200.522C313.493 200.598 313.566 200.692 313.619 200.796C313.673 200.901 313.705 201.015 313.714 201.133C313.723 201.25 313.709 201.368 313.672 201.479L313.422 202.245C313.386 202.357 313.328 202.461 313.251 202.55C313.175 202.639 313.081 202.713 312.977 202.766C312.872 202.819 312.758 202.851 312.64 202.86C312.523 202.869 312.405 202.855 312.294 202.819Z" fill="#E3E9F7"/>
<path d="M309.923 208.926L259.712 192.556C259.486 192.482 259.299 192.322 259.191 192.111C259.083 191.899 259.064 191.653 259.138 191.427L259.388 190.662C259.424 190.55 259.482 190.446 259.559 190.357C259.635 190.268 259.728 190.194 259.833 190.141C259.938 190.088 260.052 190.056 260.169 190.047C260.287 190.038 260.404 190.052 260.516 190.088L310.727 206.457C310.953 206.53 311.14 206.69 311.248 206.902C311.356 207.114 311.375 207.359 311.302 207.585L311.052 208.351C311.016 208.463 310.958 208.567 310.881 208.656C310.805 208.746 310.712 208.819 310.607 208.873C310.502 208.926 310.388 208.958 310.27 208.968C310.153 208.977 310.035 208.963 309.923 208.926Z" fill="#E3E9F7"/>
<path d="M307.977 215.147L257.766 198.776C257.654 198.739 257.551 198.681 257.461 198.605C257.372 198.528 257.299 198.435 257.245 198.33C257.192 198.225 257.16 198.111 257.151 197.994C257.142 197.877 257.156 197.759 257.193 197.647L257.442 196.881C257.478 196.769 257.536 196.666 257.613 196.577C257.689 196.487 257.783 196.414 257.888 196.361C257.993 196.307 258.107 196.275 258.224 196.266C258.341 196.257 258.459 196.271 258.571 196.308L308.782 212.678C308.894 212.715 308.998 212.773 309.087 212.85C309.176 212.926 309.25 213.02 309.303 213.124C309.356 213.229 309.388 213.344 309.397 213.461C309.406 213.578 309.392 213.696 309.356 213.808L309.106 214.573C309.032 214.799 308.872 214.986 308.66 215.094C308.449 215.201 308.203 215.221 307.977 215.147Z" fill="#E3E9F7"/>
<path d="M306.028 221.367L255.817 204.997C255.705 204.961 255.602 204.903 255.512 204.826C255.423 204.75 255.349 204.656 255.296 204.552C255.243 204.447 255.211 204.332 255.202 204.215C255.193 204.098 255.207 203.98 255.243 203.868L255.493 203.103C255.567 202.877 255.727 202.69 255.939 202.582C256.15 202.474 256.396 202.455 256.622 202.528L306.833 218.901C306.945 218.937 307.048 218.995 307.138 219.072C307.227 219.148 307.3 219.241 307.354 219.346C307.407 219.451 307.439 219.565 307.448 219.683C307.457 219.8 307.443 219.918 307.406 220.029L307.158 220.795C307.083 221.021 306.923 221.208 306.711 221.315C306.499 221.422 306.254 221.441 306.028 221.367Z" fill="#E3E9F7"/>
<path d="M304.083 227.589L253.872 211.217C253.646 211.143 253.459 210.983 253.351 210.772C253.244 210.56 253.224 210.314 253.298 210.088L253.548 209.323C253.584 209.211 253.642 209.107 253.719 209.018C253.795 208.929 253.888 208.855 253.993 208.802C254.098 208.749 254.212 208.717 254.329 208.708C254.447 208.699 254.565 208.713 254.676 208.749L304.887 225.12C305.113 225.193 305.301 225.354 305.408 225.565C305.516 225.777 305.535 226.023 305.462 226.248L305.212 227.014C305.138 227.24 304.978 227.427 304.767 227.535C304.555 227.643 304.309 227.662 304.083 227.589Z" fill="#E3E9F7"/>
<path d="M301.74 233.227L251.528 216.856C251.303 216.782 251.115 216.622 251.008 216.41C250.9 216.199 250.881 215.953 250.954 215.727L251.204 214.961C251.24 214.85 251.298 214.746 251.375 214.657C251.451 214.567 251.545 214.494 251.649 214.441C251.754 214.387 251.869 214.355 251.986 214.346C252.103 214.337 252.221 214.352 252.333 214.388L302.544 230.758C302.77 230.832 302.957 230.993 303.065 231.204C303.172 231.416 303.192 231.662 303.118 231.888L302.868 232.653C302.795 232.879 302.634 233.066 302.423 233.174C302.211 233.281 301.965 233.301 301.74 233.227Z" fill="#E3E9F7"/>
<path d="M260.518 198.587C266.354 192.751 266.354 183.288 260.518 177.452C254.682 171.616 245.22 171.616 239.383 177.452C233.547 183.288 233.547 192.751 239.383 198.587C245.22 204.423 254.682 204.423 260.518 198.587Z" fill="#0038FF"/>
<path d="M257.645 188.482L252.403 186.773L254.112 181.53L250.415 180.325L248.706 185.568L243.463 183.859L242.258 187.557L247.5 189.266L245.791 194.508L249.488 195.714L251.198 190.471L256.44 192.179L257.645 188.482Z" fill="white"/>
<path d="M312.605 231.735L312.794 231.32L313.846 229.014L315.902 224.508L317.722 224.588L320.906 224.728L336.957 225.433L325.312 234.489L312.605 231.735Z" fill="#CB7A63"/>
<path d="M311.585 221.851L302.723 215.452C301.021 214.09 299.52 212.122 298.612 210.803C298.116 210.091 297.716 209.316 297.421 208.5C296.827 206.84 295.86 205.161 295.041 203.897C294.222 202.632 293.552 201.782 293.552 201.782C293.251 201.984 293.037 202.292 292.951 202.644C292.865 202.997 292.914 203.368 293.088 203.686L294.59 206.428L292.32 204.44C291.554 203.762 290.603 203.327 289.589 203.19C285.793 202.71 286.431 207.126 286.431 207.126C287.304 210.335 292.976 214.261 292.976 214.261L309.715 230.428C310.214 230.908 310.813 231.271 311.47 231.49C312.127 231.709 312.824 231.778 313.511 231.692C314.198 231.607 314.857 231.368 315.44 230.995C316.023 230.622 316.515 230.123 316.88 229.535L315.915 224.578L311.585 221.851Z" fill="#CB7A63"/>
<path d="M338.358 235.939L329.2 235.552L321.977 234.907L322.492 223.943C333.456 220.977 339.439 220.114 340.551 220.461C340.951 220.586 341.787 221.418 341.787 221.418C342.793 223.419 343.177 225.676 342.889 227.897C342.601 230.118 341.655 232.202 340.172 233.881L338.358 235.939Z" fill="#407BFF"/>
</svg>
