<svg xmlns="http://www.w3.org/2000/svg" viewBox="0 0 5818.22 1324.17"><defs><style>.cls-1{fill:#fff;fill-rule:evenodd;}.cls-2{fill:#01f;}.cls-3{fill:#0038ff;}.cls-4{fill:#f7f7e7;}</style></defs><g id="vector"><path class="cls-1" d="M1249.2,860a53.36,53.36,0,1,1-53.36,53.35A53.36,53.36,0,0,1,1249.2,860m0-13.74a67.09,67.09,0,1,0,67.09,67.09A67.11,67.11,0,0,0,1249.2,846.23ZM914.22,692v315.59H911.9v18.35h-6.35v32.42h-1.21l13.72,23.82H984a34.66,34.66,0,0,1,34.6,34.61v31.9H745.25v-31.9a34.68,34.68,0,0,1,34.6-34.61h62.94l13.77-23.82h-1.22v-32.42H849v-18.35h-2.32V692h-4.8V651.32h13.46v-14.8H849v-26.1h9.25V591.66l21.26-20.22,23.09,20.22v18.76h9.3v26.1h-6.35v14.8H919V692ZM445.56,980.11a32.7,32.7,0,1,1-2.83,45.55c-11.34.15-22.65.28-34,.21-9.64-.06-19.42-.25-29-1.08-12.27-1.1-28.64-3.46-35.44-15.21-8.7-15.09,4.06-38.25,11.28-51.64s14.93-26.38,22.66-39.38c10.66-18,21.34-35.93,31.77-54,14.7-25.49,28.82-51.33,43.51-76.81,7.12-12.34,16.34-28.71,26.29-39.8-.38-36,2-77.26,13.9-111.13,9.43-26.84,24.59-51.59,52.94-60.89,27.16-8.84,60.31-1,87.9,2.81,77,10.78,138.11-4.58,196.29-57,9.5-8.58,17.93-17.41,26.74-26.67,5.33-5.59,11.57-12.32,19.79-12.87,7.88-.51,14.42,4.69,19.9,9.64,8.6,7.77,16.82,16.4,25.18,24.48,61.68,59.47,120.76,74.06,203.74,62.45,27.6-3.85,60.78-11.65,87.89-2.81,28.4,9.3,43.52,34,53,60.85,5,14.18,7.28,32.53,9,47.44,2.36,21.46,3.64,43.17,4.36,64.73.66,18.73.83,37.55.46,56.31a112.54,112.54,0,1,1-48.07-3.33c.36-16.4.19-32.83-.3-49.2-.59-19.59-1.63-39.32-3.65-58.85-1.17-11.68-2.87-27.84-6.75-38.89-4.48-12.7-11.45-24.87-24.83-29.51-16-5.59-40.33.34-56.75,3-2.68.45-5.31.87-8,1.21-91.77,12.87-169.06-8.94-238.3-71.46-2.19-1.95-11.13-10.57-14.87-13.1a54,54,0,0,0-4,3.67c-4.29,4.1-8.49,8.18-12.93,12.1-68.69,60.92-143.8,81.45-234.08,68.79-2.67-.34-5.31-.76-7.94-1.21-16.44-2.71-40.78-8.64-56.79-3-13.36,4.64-20.32,16.81-24.8,29.51-10,28.33-11.34,65.42-10.81,95.66,9.66,11.72,18.41,27.35,25.8,40.22,14,24.48,27.59,49.24,41.71,73.69,10.43,18,21.11,36,31.75,53.94,7.7,13,15.54,26.08,22.68,39.39s19.94,36.58,11.23,51.67c-6.45,11.16-21.46,13.79-33.21,15-8.85.91-17.86,1.15-26.74,1.25-10.19.11-20.42,0-30.64-.1a32.71,32.71,0,1,1-2.72-45.56c9.83.11,19.6.15,29.37.07,4.23,0,8.58-.07,12.87-.17-2-3.81-4.16-7.56-6.28-11.24-15.57-27.39-32.07-54.19-47.81-81.44s-30.73-55-46.64-82.18c-2.14-3.64-4.33-7.38-6.58-11-2.25,3.65-4.44,7.39-6.59,11-16,27.18-30.89,54.89-46.63,82.18s-32.28,54.05-47.82,81.44c-2.11,3.68-4.27,7.43-6.31,11.24,4.33.1,8.64.14,12.89.17C420.71,980.34,433.16,980.24,445.56,980.11Z"/><path d="M1641.52,669q40.39-70.74,110.2-110.21t156.63-39.51q101.52,0,178,52.1a266,266,0,0,1,48.29,41.89c35.59,39.2,7.41,102.25-45.61,102.25h-1.37a61.12,61.12,0,0,1-49.51-25.71,137.82,137.82,0,0,0-43.44-39.41q-37.76-21.64-87.18-21.66-52.93,0-94.2,24.76T1749,723.35q-23.07,45.18-23,105.86,0,59.89,23,105.45c15.37,30.33,36.73,53.85,64.28,70.26s58.9,24.77,94.2,24.77c33,0,62-7.33,87.18-22.23a140.28,140.28,0,0,0,43.44-39.82A61,61,0,0,1,2087.64,942h1.24c53.24,0,81.62,63.14,46,102.66a268.54,268.54,0,0,1-48.16,41.89q-75.93,51.71-178.39,51.69-86.82,0-156.63-39.51t-110.2-109.79q-40.39-70.26-40.35-159.72T1641.52,669Z"/><path d="M2245.62,761.44q29.09-56.34,79-86.77t111.54-30.34q53.85,0,94.2,21.67t64.69,54.69v-7.41a61.18,61.18,0,0,1,61.17-61.2h0a61.18,61.18,0,0,1,61.19,61.17v358.4a61.19,61.19,0,0,1-61.19,61.18h0a61.18,61.18,0,0,1-61.18-61.18h0v-9.08q-23.37,33.9-64.69,56t-95,22.23q-60.82,0-110.71-31.27t-79-88.12q-29.1-56.77-29.1-130.57Q2216.52,817.78,2245.62,761.44Zm331.92,55.1c-11.56-21.15-27.24-37.35-46.84-48.6A125.65,125.65,0,0,0,2467.33,751a122.61,122.61,0,0,0-62.52,16.51c-19.09,11-34.57,27-46.43,48.16s-17.74,46.12-17.74,75.11,5.88,54.27,17.74,75.94,27.46,38.4,46.85,50a119.13,119.13,0,0,0,62.05,17.34,125.59,125.59,0,0,0,63.35-16.93q29.57-16.86,46.84-48.59t17.34-75.94C2595,863,2589.2,837.69,2577.54,816.54Z"/><path d="M2864.88,1119.52q-46.87-21.21-74.18-57.68a4.12,4.12,0,0,1-.52-.72c-24.55-33.13-.72-80,40.46-80h17.54a50.55,50.55,0,0,1,43.43,25.18,73.11,73.11,0,0,0,18.88,20.84q23.84,18.25,59.43,18.26,34.73,0,54.28-13.89t19.49-35.6q0-23.37-23.83-35.19c-15.88-7.85-41.27-16.3-75.94-25.59-35.91-8.67-65.21-17.64-88.11-26.93a152.94,152.94,0,0,1-59-42.51Q2772,837.06,2772,788.37a124.74,124.74,0,0,1,23-73c15.37-22.09,37.35-39.3,65.93-52.1s62.31-19.09,101.11-19.09q85.89,0,137.12,42.93a158.3,158.3,0,0,1,25.39,26.73c27.34,36.84.83,89.15-45.09,89.15h-1.95c-19.4,0-36.94-10.73-46.54-27.55a62.77,62.77,0,0,0-15.58-18q-21.2-16.86-56.85-16.92c-22,0-38.89,4-50.76,12.18s-17.75,19.39-17.75,33.84c0,16.19,8.05,28.47,24.35,36.93s41.38,16.93,75.53,25.59q52,13,85.94,26.93A152.14,152.14,0,0,1,3134.49,919q24.77,29.1,25.59,76.76,0,41.68-23,74.6T3071.14,1122c-28.71,12.49-62,18.68-100.29,18.68Q2911.74,1140.72,2864.88,1119.52Z"/><path d="M3610.75,928.9H3302.36q4.33,52,36.43,81.61c21.35,19.7,47.77,29.51,79,29.51,35.7,0,63.35-12.18,82.75-36.42A56.7,56.7,0,0,1,3545,981.93h0c51.58,0,76.86,63.35,39.1,98.43a228.9,228.9,0,0,1-18.68,15.68q-59,44.73-145,44.68-69.47,0-124.53-30.85t-85.91-87.18q-30.8-56.34-30.85-130.21,0-74.6,30.33-131t85-86.77q54.63-30.33,125.87-30.34,68.54,0,122.78,29.51c36.12,19.71,64.28,47.57,84.19,83.78s29.92,77.7,29.92,124.54v.51A46.53,46.53,0,0,1,3610.75,928.9Zm-79.24-81.65c-.62-31.27-11.86-56.23-33.83-75.12S3448.77,744,3417,744q-45.19,0-75.94,27.34t-37.76,75.94Z"/><path class="cls-2" d="M4076.09,564.38q72.42,37.29,111.94,106.37t39.52,160.12q0,91.18-39.52,159.29T4076.09,1095.6q-72.43,37.31-168,37.35H3767.17a70.93,70.93,0,0,1-70.88-70.88V597.91A70.94,70.94,0,0,1,3767.17,527h140.95Q4003.6,527,4076.09,564.38Zm-24.77,413.11q52.16-52,52.11-146.72,0-94.56-52.11-147.95t-147.54-53.34h-30.44A55.56,55.56,0,0,0,3817.83,685V974.2a55.56,55.56,0,0,0,55.51,55.5h30.44Q3999.27,1029.53,4051.32,977.49Z"/><path class="cls-2" d="M4451.93,666.83a159.26,159.26,0,0,1,47.88-18,32.15,32.15,0,0,1,37.85,25.18,32.62,32.62,0,0,1,.63,6.31v60.26a32.06,32.06,0,0,1-32,32.09h-.07q-57.26,0-86.36,26.93t-29,93.76v178.81A60.81,60.81,0,0,1,4330,1133h0a60.81,60.81,0,0,1-60.77-60.77V712.85A60.81,60.81,0,0,1,4330,652.08h0a60.81,60.81,0,0,1,60.77,60.77v13.89A169.47,169.47,0,0,1,4451.93,666.83Z"/><path class="cls-2" d="M4578.66,574.38q-21.21-20.43-21.3-50.76t21.3-50.77c14.14-13.61,32-20.43,53.35-20.43s39.2,6.82,53.34,20.43,21.25,30.56,21.25,50.77-7.12,37.14-21.25,50.76-32,20.43-53.34,20.43S4592.8,588,4578.66,574.38ZM4692,712.74v359.32a60.81,60.81,0,0,1-60.78,60.77h0a60.81,60.81,0,0,1-60.77-60.77V712.74A60.82,60.82,0,0,1,4631.17,652h0A60.88,60.88,0,0,1,4692,712.74Z"/><path class="cls-2" d="M4962.68,1020.93l107.93-327.69a59.88,59.88,0,0,1,56.85-41.16h0c41.68,0,70.68,41.58,56.13,80.68l-122.47,331.09a105.82,105.82,0,0,1-99.26,69.13h0a105.9,105.9,0,0,1-99.36-69.33l-121.85-331c-14.45-39.1,14.54-80.56,56.23-80.56h1a59.78,59.78,0,0,1,56.87,41.15Z"/><path class="cls-2" d="M5633,928.9H5324.64q4.33,52,36.43,81.61c21.35,19.7,47.76,29.51,79,29.51,35.7,0,63.35-12.18,82.74-36.42a56.73,56.73,0,0,1,44.46-21.67h0c51.59,0,76.86,63.35,39.1,98.43a229.23,229.23,0,0,1-18.68,15.68q-59,44.73-145,44.68-69.47,0-124.53-30.85t-85.95-87.18q-30.81-56.34-30.85-130.21,0-74.6,30.34-131t85-86.77q54.65-30.33,125.87-30.34,68.54,0,122.78,29.51c36.12,19.71,64.28,47.57,84.2,83.78s29.92,77.7,29.92,124.54v.51C5679.67,908.16,5658.72,928.9,5633,928.9Zm-79.25-81.65c-.61-31.27-11.86-56.23-33.84-75.12S5471,744,5439.26,744q-45.19,0-75.94,27.34t-37.76,75.94Z"/><path class="cls-3" d="M1040.69,265.5l-51.4-82.84a48.09,48.09,0,0,0-28.25-21L630.14,71.54a48.11,48.11,0,0,0-59,33.79l-183.45,674a48.12,48.12,0,0,0,33.79,59.06l816.73,222.3a48.12,48.12,0,0,0,59.06-33.79l162.61-597.44a48.11,48.11,0,0,0-33.78-59.06Z"/><rect class="cls-4" x="561.43" y="302.25" width="796.97" height="338.41" rx="10.7" transform="translate(157.51 -235.55) rotate(15.23)"/><path class="cls-3" d="M931.54,391.13l-64.69-76.47A49.42,49.42,0,0,0,835,297.5L485.12,255.69a49.42,49.42,0,0,0-54.94,43.21L345,1011.5a49.42,49.42,0,0,0,43.21,54.94l863.53,103.22a49.43,49.43,0,0,0,54.94-43.22l75.5-631.67A49.43,49.43,0,0,0,1339,439.82Z"/><rect class="cls-4" x="470.98" y="439.75" width="818.84" height="347.7" rx="10.7" transform="translate(79.04 -100.15) rotate(6.82)"/><path class="cls-3" d="M1359,1250.43H404.84c-19.72,0-37.36-13.59-39.41-30.49L282.15,533.41c-2.79-23,13.79-41.77,37.05-41.77H1444.63c23.26,0,39.84,18.79,37,41.77l-83.28,686.53C1396.35,1236.84,1378.71,1250.43,1359,1250.43Z"/><path class="cls-1" d="M1222.15,906.74a45.64,45.64,0,1,1-45.63,45.64,45.65,45.65,0,0,1,45.63-45.64m0-11.75a57.39,57.39,0,1,0,57.39,57.39A57.4,57.4,0,0,0,1222.15,895ZM935.65,763.08V1033h-2v15.69h-5.43v27.73h-1l11.74,20.38h56.38a29.64,29.64,0,0,1,29.6,29.59v27.29H791.12V1126.4a29.66,29.66,0,0,1,29.6-29.59h53.83l11.78-20.38h-1.05V1048.7h-5.42V1033h-2V763.08h-4.1V728.29h11.51V715.63h-5.42V693.3h7.91v-16L906,660l19.75,17.3v16h7.95v22.33h-5.43v12.66h11.48v34.79ZM534.8,1009.5a28,28,0,1,1-2.43,39c-9.69.13-19.36.24-29,.18-8.24-.05-16.61-.21-24.82-.92-10.5-.94-24.5-3-30.31-13-7.44-12.9,3.47-32.71,9.64-44.16s12.78-22.56,19.39-33.68c9.11-15.36,18.25-30.73,27.17-46.17,12.57-21.81,24.65-43.9,37.21-65.7,6.09-10.55,14-24.55,22.49-34-.33-30.82,1.69-66.08,11.89-95.05,8.07-22.95,21-44.13,45.28-52.08,23.23-7.56,51.58-.89,75.18,2.41,65.9,9.22,118.13-3.92,167.89-48.79,8.13-7.33,15.33-14.88,22.87-22.8,4.56-4.78,9.89-10.54,16.92-11,6.74-.44,12.34,4,17,8.24,7.35,6.65,14.38,14,21.53,20.94C995.46,663.68,1046,676.16,1117,666.23c23.6-3.3,52-10,75.16-2.41,24.3,7.95,37.23,29.13,45.3,52,4.26,12.13,6.22,27.82,7.64,40.57,2,18.35,3.12,36.92,3.74,55.37.56,16,.71,32.12.39,48.16a96.25,96.25,0,1,1-41.11-2.85c.3-14,.16-28.08-.26-42.08-.5-16.76-1.39-33.63-3.12-50.33-1-10-2.46-23.81-5.77-33.27-3.83-10.86-9.8-21.27-21.24-25.24-13.71-4.78-34.5.3-48.55,2.61-2.29.39-4.54.74-6.8,1-78.49,11-144.59-7.65-203.82-61.12-1.87-1.67-9.52-9-12.72-11.21-1.19.91-2.76,2.49-3.44,3.14-3.68,3.5-7.26,7-11.06,10.35-58.76,52.11-123,69.66-200.22,58.84q-3.42-.45-6.79-1c-14.06-2.31-34.88-7.39-48.57-2.61-11.42,4-17.38,14.38-21.21,25.24-8.53,24.23-9.7,56-9.25,81.82,8.27,10,15.75,23.4,22.07,34.4,12,20.94,23.6,42.11,35.67,63,8.93,15.44,18.06,30.81,27.16,46.13,6.58,11.12,13.29,22.31,19.4,33.69s17,31.29,9.61,44.19c-5.52,9.56-18.36,11.8-28.41,12.84-7.56.77-15.27,1-22.87,1.07-8.71.09-17.46,0-26.21-.09a28,28,0,1,1-2.32-39q12.6.15,25.12.07c3.62,0,7.33-.07,11-.15-1.75-3.27-3.56-6.47-5.37-9.62-13.32-23.42-27.43-46.34-40.9-69.65s-26.28-47-39.89-70.29c-1.83-3.11-3.7-6.32-5.63-9.43-1.92,3.11-3.8,6.32-5.64,9.43-13.64,23.25-26.41,47-39.88,70.29s-27.61,46.23-40.9,69.65c-1.8,3.15-3.65,6.35-5.39,9.62,3.7.08,7.38.11,11,.15C513.54,1009.7,524.19,1009.62,534.8,1009.5Z"/></g></svg>