<svg id="Layer_1" data-name="Layer 1" xmlns="http://www.w3.org/2000/svg" viewBox="0 0 5099.5 1089.7"><defs><style>.cls-1{fill:#fff;}</style></defs><path class="cls-1" d="M537,848.8a20.21,20.21,0,0,1-14.7-6.3,16.21,16.21,0,0,1-2.8-4.2,18.5,18.5,0,0,1,8.4-24.7c37.5-22.2,75-40.9,114.7-60.7,4-2,8.1-4,12.1-6l2.2,4.5c-4.1,2-8.1,4-12.1,6-39.7,19.8-77.2,38.4-114.5,60.6l-.2.1a13.62,13.62,0,0,0-6.2,18.1,12.09,12.09,0,0,0,2,3c5.7,6.1,14,5.5,19.3,2.4,5.1-4.2,10.7-8.1,16.2-12s11-7.7,16-11.8l.1-.1c16.1-11.6,32.6-23,48.6-34.1,12.3-8.5,25.1-17.4,37.5-26.2l2.9,4.1c-12.4,8.8-25.2,17.7-37.5,26.2-16,11.1-32.5,22.5-48.5,34-5.1,4.2-10.8,8.2-16.3,12s-11,7.7-16,11.8l-.3.2A21.43,21.43,0,0,1,537,848.8Z"/><path class="cls-1" d="M222.3,1053H139.9a80.36,80.36,0,0,1-80-80V144.1a80.36,80.36,0,0,1,80-80H405c33.3,0,56.1,13.1,67.9,39,9.4,20.8,10.3,46.7,11.1,71.7,1.7,51.7,5.8,74.8,37.8,77.2H953.7c8.2-1.1,49.1-4.8,78.8,22.6,23.2,21.4,32.9,55.2,29,100.5a15,15,0,0,1-29.9-2.5c3.1-35.5-3.5-61.1-19.5-75.9-21.4-19.8-54.6-14.9-54.9-14.9l-1.2.2H520.2c-28.1-1.9-47.3-15.3-57-39.9-7.7-19.4-8.4-43.2-9.2-66.3-.7-22.1-1.5-44.9-8.4-60.3-4.8-10.6-13.4-21.4-40.5-21.4H139.9a50.28,50.28,0,0,0-50,50V973a50.28,50.28,0,0,0,50,50h82.4a15,15,0,0,1,0,30Z"/><path class="cls-1" d="M352.9,1054.1a91.12,91.12,0,0,1-90.8-90.8V916.5a15,15,0,0,1,30,0v46.8a61.16,61.16,0,0,0,60.8,60.8H961.3a61.16,61.16,0,0,0,60.8-60.8V529.8A61.16,61.16,0,0,0,961.3,469H352.8A61.16,61.16,0,0,0,292,529.8v98.7a15,15,0,0,1-30,0V529.8A91.12,91.12,0,0,1,352.8,439H961.4a91.12,91.12,0,0,1,90.8,90.8V963.3a91.12,91.12,0,0,1-90.8,90.8Z"/><path class="cls-1" d="M642,989.4h-.4a228.07,228.07,0,0,1-228-228c0-125.7,102.3-228,228-228h.3A228.54,228.54,0,0,1,743,557.1a5,5,0,1,1-4.4,9,219.1,219.1,0,0,0-96.7-22.7h-.3c-120.2,0-218,97.8-218,218s97.8,218,218,218h.4a217.64,217.64,0,0,0,96.6-22.7,5,5,0,1,1,4.4,8.9A227.5,227.5,0,0,1,642,989.4Z"/><path class="cls-1" d="M411.4,779.8H337a75.24,75.24,0,0,1-74.9-74.9V633.6a15,15,0,0,1,30,0v71.3A45.16,45.16,0,0,0,337,749.8h74.4a15,15,0,0,1,0,30Z"/><path class="cls-1" d="M277,920.4a56.2,56.2,0,1,1,56.2-56.2A56.25,56.25,0,0,1,277,920.4Zm0-89.4a33.2,33.2,0,1,0,33.2,33.2A33.25,33.25,0,0,0,277,831Z"/><circle class="cls-1" cx="276.5" cy="865.5" r="13.7"/><path class="cls-1" d="M716.8,789.5a15.58,15.58,0,0,1-13.5-7.6L647.9,689a15.65,15.65,0,0,1,5.5-21.4l32.1-19.1a15.65,15.65,0,0,1,21.4,5.5l55.4,92.9a15.71,15.71,0,0,1-5.4,21.4h0l-32.1,19.1A16.78,16.78,0,0,1,716.8,789.5ZM693.4,651.3a10.75,10.75,0,0,0-5.4,1.5l-32.1,19.1a10.69,10.69,0,0,0-3.7,14.6l55.4,92.9a10.69,10.69,0,0,0,14.6,3.7L754.3,764a10.69,10.69,0,0,0,3.7-14.6l-55.4-92.9A10.63,10.63,0,0,0,693.4,651.3Z"/><path class="cls-1" d="M637.4,671a10.19,10.19,0,0,1-8.7-4.9l-.1-.1-1.1-1.8a10.24,10.24,0,0,1,3.5-14l.1-.1,51.2-30.5a10.24,10.24,0,0,1,14,3.5l1.1,1.9a10.4,10.4,0,0,1-3.5,14h0l-51.2,30.5A10.4,10.4,0,0,1,637.4,671Zm50.1-47.8a5.44,5.44,0,0,0-2.7.7l-51.2,30.5a5.23,5.23,0,0,0-1.8,7.2l1.2,1.9a5.31,5.31,0,0,0,7.1,1.8l51.2-30.5a5.23,5.23,0,0,0,1.8-7.2l-1.1-1.8A5.28,5.28,0,0,0,687.5,623.2Z"/><path class="cls-1" d="M724.9,817.9a10.48,10.48,0,0,1-8.8-4.9l-1.1-1.9a10.39,10.39,0,0,1-1.2-7.7,10.52,10.52,0,0,1,4.6-6.3l.1-.1,51.2-30.5a10.39,10.39,0,0,1,7.7-1.2,10.52,10.52,0,0,1,6.3,4.6l1.1,1.9a10.38,10.38,0,0,1-3.5,14h0l-51.2,30.5A9.56,9.56,0,0,1,724.9,817.9ZM775,770.1a6.77,6.77,0,0,0-2.7.7l-51.2,30.5a5,5,0,0,0-2.4,3.2,5.36,5.36,0,0,0,.6,3.9l1.1,1.9a5.22,5.22,0,0,0,7.1,1.8l51.2-30.5a5.23,5.23,0,0,0,1.8-7.2l-1.1-1.8a5.23,5.23,0,0,0-3.2-2.4A4.87,4.87,0,0,0,775,770.1Z"/><path class="cls-1" d="M691.5,772.1a9.34,9.34,0,0,1-4.9-1.7,21.19,21.19,0,0,1-6.3-6.9l-19.8-33.2a21.38,21.38,0,0,1-3-8.9c-.2-3.4.8-6,3-7.3l4.7-2.8,2.6,4.3-4.7,2.8c-.3.2-.7,1-.5,2.6a16.24,16.24,0,0,0,2.3,6.7l19.8,33.2a16.49,16.49,0,0,0,4.7,5.3,3.32,3.32,0,0,0,2.5.8l4.7-2.8,2.6,4.3-4.7,2.8A5.42,5.42,0,0,1,691.5,772.1Z"/><path class="cls-1" d="M677.7,769.8c-2.7,0-5.9-2.2-8.3-6.1l-13.2-22.2c-2.9-5-2.8-10,.2-11.9l3.2-1.9,2.6,4.3-3.1,1.8c-.2.5-.2,2.6,1.4,5.2l13.2,22.2c1.5,2.5,3.3,3.6,3.9,3.7l3.1-1.8,2.6,4.3-3.2,1.9A6,6,0,0,1,677.7,769.8Zm-.2-4.9Z"/><path class="cls-1" d="M667.5,767.3a4.1,4.1,0,0,1-1.1-.1,8.53,8.53,0,0,1-4.9-4.2l-8.4-14.1c-2.1-3.5-2-7.3.4-8.8l2.1-1.2,2.6,4.3-1.5.9a4.51,4.51,0,0,0,.8,2.2l8.4,14.1a8,8,0,0,0,1.5,1.8l1.5-.9,2.6,4.3-2,1.2A3.94,3.94,0,0,1,667.5,767.3Zm-.6-4.8Z"/><path class="cls-1" d="M457.1,899.6a14.93,14.93,0,0,1-12.5-6.7,236.68,236.68,0,0,1,1.6-265.1,15,15,0,1,1,24.7,17,205.86,205.86,0,0,0-1.4,231.5,15,15,0,0,1-4.2,20.8A14.16,14.16,0,0,1,457.1,899.6Z"/><circle class="cls-1" cx="751.5" cy="571" r="13.5"/><circle class="cls-1" cx="751.5" cy="955" r="13.5"/><path class="cls-1" d="M1414.5,284.6H1102a7.5,7.5,0,0,1,0-15h312.5a7.5,7.5,0,0,1,0,15Z"/><path class="cls-1" d="M1305.8,330.9H1102a7.5,7.5,0,0,1,0-15h203.8a7.5,7.5,0,0,1,0,15Z"/><path class="cls-1" d="M1228.8,377.2H1102a7.5,7.5,0,0,1,0-15h126.8a7.5,7.5,0,0,1,0,15Z"/><path class="cls-1" d="M1138.4,575.6q39.15-68.55,106.8-106.8T1397,430.5q98.4,0,172.5,50.5a255.18,255.18,0,0,1,46.8,40.6c34.5,38,7.2,99.1-44.2,99.1h-1.3a59.42,59.42,0,0,1-48-24.9,133.87,133.87,0,0,0-42.1-38.2q-36.6-21-84.5-21-51.3,0-91.3,24t-62.3,67.7q-22.35,43.8-22.3,102.6,0,58.05,22.3,102.2c14.9,29.4,35.6,52.2,62.3,68.1s57.1,24,91.3,24c32,0,60.1-7.1,84.5-21.5a135.13,135.13,0,0,0,42.1-38.6,59,59,0,0,1,48-24.9h1.2c51.6,0,79.1,61.2,44.6,99.5a261.85,261.85,0,0,1-46.7,40.6q-73.65,50.1-172.9,50.1-84.15,0-151.8-38.3T1138.4,885.7q-39.15-68.1-39.1-154.8Q1099.3,644.05,1138.4,575.6Z"/><path class="cls-1" d="M1723.9,665.2q28.2-54.6,76.6-84.1t108.1-29.4q52.2,0,91.3,21t62.7,53v-7.2a59.3,59.3,0,0,1,59.3-59.3h0a59.24,59.24,0,0,1,59.3,59.3h0V965.9a59.36,59.36,0,0,1-59.3,59.3h0a59.24,59.24,0,0,1-59.3-59.3h0v-8.8Q2040,990,1999.9,1011.4c-26.7,14.3-57.4,21.4-92.1,21.5q-59,0-107.3-30.3t-76.6-85.4q-28.2-55.05-28.2-126.6Q1695.7,719.8,1723.9,665.2Zm321.7,53.4c-11.2-20.5-26.4-36.2-45.4-47.1a121.48,121.48,0,0,0-61.4-16.4,118.21,118.21,0,0,0-60.6,16c-18.5,10.7-33.5,26.2-45,46.7s-17.2,44.7-17.2,72.8,5.7,52.6,17.2,73.6,26.6,37.2,45.4,48.4a115.73,115.73,0,0,0,60.1,16.8,121.48,121.48,0,0,0,61.4-16.4q28.65-16.35,45.4-47.1t16.8-73.6c.2-28.7-5.4-53.2-16.7-73.7Z"/><path class="cls-1" d="M2324.1,1012.2q-45.45-20.55-71.9-55.9a1.79,1.79,0,0,1-.5-.7c-23.8-32.1-.7-77.5,39.2-77.5h17a49,49,0,0,1,42.1,24.4,69.23,69.23,0,0,0,18.3,20.2q23.1,17.7,57.6,17.7c22.4,0,40-4.5,52.6-13.5s18.9-20.5,18.9-34.5c0-15.1-7.7-26.5-23.1-34.1s-40-15.8-73.6-24.8c-34.8-8.4-63.2-17.1-85.4-26.1a148.42,148.42,0,0,1-57.2-41.2q-24-27.75-24-74.9a120.18,120.18,0,0,1,22.3-70.7c14.9-21.3,36.2-38.2,63.9-50.5s60.4-18.5,98-18.5q83.25,0,132.9,41.6a151,151,0,0,1,24.6,25.9c26.5,35.7.8,86.4-43.7,86.4h-1.9c-18.8,0-35.8-10.4-45.1-26.7a61.41,61.41,0,0,0-15.1-17.4q-20.55-16.35-55.1-16.4-32,0-49.2,11.8c-11.5,7.9-17.2,18.8-17.2,32.8,0,15.7,7.8,27.6,23.6,35.8s40.1,16.4,73.2,24.8q50.4,12.6,83.3,26.1a147.43,147.43,0,0,1,56.8,41.6q24,28.2,24.8,74.4,0,40.35-22.3,72.3t-63.9,50.1c-27.8,12.1-60.1,18.1-97.2,18.1Q2369.5,1032.8,2324.1,1012.2Z"/><path class="cls-1" d="M3047,827.5H2748.1q4.2,50.4,35.3,79.1c20.7,19.1,46.3,28.6,76.6,28.6,34.6,0,61.4-11.8,80.2-35.3a55,55,0,0,1,43.1-21h0c50,0,74.5,61.4,37.9,95.4a217.3,217.3,0,0,1-18.1,15.2q-57.15,43.35-140.5,43.3-67.35,0-120.7-29.9t-83.3-84.5q-29.85-54.6-29.9-126.2,0-72.3,29.4-127t82.4-84.1q53-29.4,122-29.4,66.45,0,119,28.6c35,19.1,62.3,46.1,81.6,81.2s29,75.3,29,120.7v.5A45,45,0,0,1,3047,827.5Zm-76.8-79.1c-.6-30.3-11.5-54.5-32.8-72.8s-47.4-27.3-78.2-27.3q-43.8,0-73.6,26.5T2749,748.4Z"/><path class="cls-1" d="M3498,474.2q70.2,36.15,108.5,103.1t38.3,155.2q0,88.35-38.3,154.4T3498,989.1q-70.2,36.15-162.8,36.2H3198.6a68.75,68.75,0,0,1-68.7-68.7V506.7a68.75,68.75,0,0,1,68.7-68.7h136.6Q3427.75,438,3498,474.2Zm-24,400.4q50.55-50.4,50.5-142.2,0-91.65-50.5-143.4t-143-51.7h-29.5a53.82,53.82,0,0,0-53.8,53.8V871.4a53.82,53.82,0,0,0,53.8,53.8H3331Q3423.55,925.05,3474,874.6Z"/><path class="cls-1" d="M3862.3,573.5a154,154,0,0,1,46.4-17.4,31.13,31.13,0,0,1,36.7,24.4,31.53,31.53,0,0,1,.6,6.1V645a31,31,0,0,1-31,31.1h-.1q-55.5,0-83.7,26.1T3803,793.1V966.4a58.94,58.94,0,0,1-58.9,58.9h0a58.94,58.94,0,0,1-58.9-58.9V618.1a58.94,58.94,0,0,1,58.9-58.9h0a58.94,58.94,0,0,1,58.9,58.9v13.5A165.09,165.09,0,0,1,3862.3,573.5Z"/><path class="cls-1" d="M3985.1,483.9q-20.55-19.8-20.6-49.2c0-19.6,6.8-36,20.6-49.2s31-19.8,51.7-19.8,38,6.6,51.7,19.8,20.6,29.6,20.6,49.2-6.9,36-20.6,49.2-31,19.8-51.7,19.8S3998.8,497.1,3985.1,483.9ZM4094.9,618V966.3a58.94,58.94,0,0,1-58.9,58.9h0a58.94,58.94,0,0,1-58.9-58.9V618a58.94,58.94,0,0,1,58.9-58.9h0A59,59,0,0,1,4094.9,618Z"/><path class="cls-1" d="M4357.3,916.7l104.6-317.6a58,58,0,0,1,55.1-39.9h0c40.4,0,68.5,40.3,54.4,78.2L4452.7,958.3a102.56,102.56,0,0,1-96.2,67h0a102.53,102.53,0,0,1-96.3-67.2L4142.1,637.3c-14-37.9,14.1-78.1,54.5-78.1h1a58,58,0,0,1,55.1,39.9Z"/><path class="cls-1" d="M5007,827.5H4708.1q4.2,50.4,35.3,79.1c20.7,19.1,46.3,28.6,76.6,28.6q51.9,0,80.2-35.3a55,55,0,0,1,43.1-21h0c50,0,74.5,61.4,37.9,95.4a217.3,217.3,0,0,1-18.1,15.2q-57.15,43.35-140.5,43.3-67.35,0-120.7-29.9t-83.3-84.5q-29.85-54.6-29.9-126.2,0-72.3,29.4-127t82.4-84.1q53-29.4,122-29.4,66.45,0,119,28.6c35,19.1,62.3,46.1,81.6,81.2s29,75.3,29,120.7v.5C5052.2,807.4,5031.9,827.5,5007,827.5Zm-76.8-79.1c-.6-30.3-11.5-54.5-32.8-72.8s-47.4-27.3-78.2-27.3q-43.8,0-73.6,26.5T4709,748.4Z"/><circle class="cls-1" cx="1441" cy="277.5" r="11.4"/><circle class="cls-1" cx="1331" cy="324.5" r="11.4"/><circle class="cls-1" cx="1254" cy="370.5" r="11.4"/></svg>