<svg id="Layer_1" data-name="Layer 1" xmlns="http://www.w3.org/2000/svg" viewBox="0 0 5669.3 1190.29"><defs><style>.cls-1{fill:#151539;}.cls-2{fill:#0038ff;}</style></defs><rect class="cls-1" x="726.48" y="819.69" width="0.22" height="5.57" transform="translate(-291.94 413.82) rotate(-26.68)"/><path d="M585.23,921.9a22.52,22.52,0,0,1-16.38-7,20.81,20.81,0,0,1-4.79-18,20.43,20.43,0,0,1,11-14.15c41.78-24.73,83.56-45.57,127.79-67.63,4.46-2.23,9-4.45,13.48-6.68l2.46,5c-4.57,2.23-9,4.46-13.49,6.69-44.23,22.06-86,42.78-127.56,67.51l-.23.11a14.46,14.46,0,0,0-8,10.37,15,15,0,0,0,3.57,13.14c6.35,6.8,15.6,6.13,21.5,2.68,5.68-4.68,11.92-9,18-13.37s12.25-8.58,17.83-13.15l.11-.11c17.93-12.93,36.32-25.63,54.14-38,13.71-9.47,28-19.39,41.78-29.19l3.23,4.56c-13.81,9.81-28.07,19.61-41.78,29.19-17.82,12.37-36.2,25.07-54,37.88-5.68,4.68-12,9.14-18,13.37s-12.26,8.58-17.83,13.15l-.33.22A26.39,26.39,0,0,1,585.23,921.9Z"/><path class="cls-2" d="M234.62,1149.4H142.81a89.25,89.25,0,0,1-89.13-89.13V136.77a89.25,89.25,0,0,1,89.13-89.13H438.17c37.1,0,62.5,14.6,75.65,43.45,10.47,23.18,11.47,52,12.36,79.89,1.9,57.6,6.47,83.33,42.12,86h481.19c9.13-1.23,54.7-5.35,87.79,25.18,25.85,23.84,36.66,61.5,32.31,112a16.71,16.71,0,1,1-33.31-2.79c3.45-39.44-3.79-67.85-21.5-84.34-24-22.28-61.06-16.71-61.39-16.71l-1.34.22H566.63c-31.31-2.11-52.7-17-63.51-44.45-8.58-21.61-9.36-48.13-10.25-73.87-.78-24.62-1.67-50-9.36-67.18-5.35-11.81-14.93-23.84-45.12-23.84H142.81a55.72,55.72,0,0,0-55.7,55.7v923.5a55.72,55.72,0,0,0,55.7,55.71h91.81a16.66,16.66,0,1,1,0,33.31Z"/><path d="M1058.07,1150.63H380.12A101.23,101.23,0,0,1,279,1049.46V997.32a16.71,16.71,0,1,1,33.42,0v52.14a67.85,67.85,0,0,0,67.74,67.74h677.95a67.85,67.85,0,0,0,67.74-67.74v-483a67.86,67.86,0,0,0-67.74-67.74H380a67.86,67.86,0,0,0-67.74,67.74v110a16.71,16.71,0,0,1-33.42,0v-110A101.22,101.22,0,0,1,380,465.33h678.06a101.23,101.23,0,0,1,101.16,101.16v483A101.24,101.24,0,0,1,1058.07,1150.63Z"/><path d="M701.66,1078.54a254.09,254.09,0,0,1-254-254c0-140,114-254,254-254a252.37,252.37,0,0,1,113,26.41,5.58,5.58,0,1,1-4.9,10,241.49,241.49,0,0,0-108.07-25.29c-133.92,0-242.88,109-242.88,242.88s109,242.88,242.88,242.88a239.36,239.36,0,0,0,108.07-25.29,5.56,5.56,0,0,1,5,9.92A251.13,251.13,0,0,1,701.66,1078.54Z"/><path d="M445.3,845H362.41A83.54,83.54,0,0,1,279,761.57V682.14a16.71,16.71,0,1,1,33.42,0v79.43a50,50,0,0,0,50,50H445.3a16.71,16.71,0,0,1,0,33.42Z"/><path d="M295.56,1001.67a62.62,62.62,0,1,1,62.61-62.62A62.67,62.67,0,0,1,295.56,1001.67Zm0-99.6a37,37,0,1,0,37,37A37,37,0,0,0,295.56,902.07Z"/><circle cx="295" cy="940.5" r="15.26"/><path d="M785.44,855.83a17.37,17.37,0,0,1-15-8.58l-61.72-103.5a17.33,17.33,0,0,1,6.12-23.84l35.77-21.28a17.55,17.55,0,0,1,13.14-1.9,17,17,0,0,1,10.7,8l61.72,103.51A17.33,17.33,0,0,1,830,832.1h0l-35.76,21.28A16.41,16.41,0,0,1,785.44,855.83Zm-26.07-154a11.64,11.64,0,0,0-6,1.67l-35.76,21.28a12.27,12.27,0,0,0-5.46,7.24,11.78,11.78,0,0,0,1.23,8.91l61.72,103.51a11.84,11.84,0,0,0,16.26,4.12l35.77-21.28A11.85,11.85,0,0,0,831.23,811l-61.72-103.5a12.3,12.3,0,0,0-7.24-5.46A24.06,24.06,0,0,0,759.37,701.86Z"/><path d="M697.09,723.81a11.39,11.39,0,0,1-9.8-5.57l-1.23-2a11.85,11.85,0,0,1-1.34-8.69,11.48,11.48,0,0,1,5.24-7l57-34a11.35,11.35,0,0,1,15.6,4l1.23,2a11.61,11.61,0,0,1-3.9,15.59h0l-57,34A11.45,11.45,0,0,1,697.09,723.81Zm55.82-53.26a7,7,0,0,0-3,.78l-57,34a5.75,5.75,0,0,0-2.68,3.57,6.27,6.27,0,0,0,.67,4.45l1.23,2a5.76,5.76,0,0,0,8,2.12l57-34a6,6,0,0,0,2-8l-1.23-2a5.76,5.76,0,0,0-3.56-2.68A7.88,7.88,0,0,0,752.91,670.55Z"/><path d="M794.58,887.47a11.39,11.39,0,0,1-9.81-5.57l-1.22-2a11.85,11.85,0,0,1-1.34-8.69,11.45,11.45,0,0,1,5.24-7l57-34a11.3,11.3,0,0,1,8.69-1.22,11.44,11.44,0,0,1,7,5.24l1.22,2a11.23,11.23,0,0,1,1.23,8.69,11.69,11.69,0,0,1-5.13,7h0l-57,34A13.38,13.38,0,0,1,794.58,887.47Zm55.81-53.25a7,7,0,0,0-3,.78l-57,34a5.72,5.72,0,0,0-2.67,3.56,6.24,6.24,0,0,0,.67,4.46l1.22,2a5.85,5.85,0,0,0,8,2.12l57-34a6.07,6.07,0,0,0,2.67-3.68,5.34,5.34,0,0,0-.56-4.34l-1.22-2a5.74,5.74,0,0,0-3.57-2.67A10.46,10.46,0,0,0,850.39,834.22Z"/><path d="M757.36,836.44c-4.12,0-9-3.56-12.59-9.47l-22.06-37a23.94,23.94,0,0,1-3.34-9.91c-.22-3.79.89-6.69,3.34-8.13l5.24-3.12,2.9,4.79-5.24,3.12c-.33.22-.78,1.11-.56,2.89a18.21,18.21,0,0,0,2.57,7.47l22.06,37c3.23,5.57,7.24,7.24,8.13,6.68l5.24-3.12,2.89,4.79-5.23,3.12A6.3,6.3,0,0,1,757.36,836.44Z"/><path d="M742,833.88a7.43,7.43,0,0,1-4.12-1.34,15.91,15.91,0,0,1-5-5.45l-14.7-24.74c-3.23-5.57-3.12-11.14.22-13.26l3.56-2.11,2.9,4.79-3.45,2c-.23.56-.23,2.9,1.56,5.8l14.7,24.73c1.68,2.79,3.68,4,4.35,4.12l3.45-2,2.9,4.79-3.57,2.11A7.62,7.62,0,0,1,742,833.88Zm-.22-5.46Z"/><path d="M730.63,831.1a4.28,4.28,0,0,1-1.23-.12,9.46,9.46,0,0,1-5.46-4.67l-9.36-15.71c-2.34-3.9-2.23-8.14.45-9.81l2.34-1.34,2.89,4.8-1.67,1a5.12,5.12,0,0,0,.89,2.45l9.36,15.71a9,9,0,0,0,1.67,2l1.67-1,2.9,4.79-2.23,1.34A5.14,5.14,0,0,1,730.63,831.1Zm-.67-5.35Z"/><path d="M496.21,978.49A16.63,16.63,0,0,1,482.29,971,263.9,263.9,0,0,1,484,675.56a16.75,16.75,0,0,1,27.63,18.94,230.31,230.31,0,0,0-1.67,257.81,16.69,16.69,0,0,1-4.57,23.18A14.56,14.56,0,0,1,496.21,978.49Z"/><circle cx="824.21" cy="612.39" r="15.04"/><circle cx="824.21" cy="1040.22" r="15.04"/><path d="M1562.88,293.31H1214.71a8.36,8.36,0,0,1,0-16.71h348.17a8.36,8.36,0,0,1,0,16.71Z"/><path d="M1441.77,344.89H1214.71a8.36,8.36,0,0,1,0-16.71h227.06a8.36,8.36,0,1,1,0,16.71Z"/><path d="M1356,396.48H1214.71a8.36,8.36,0,0,1,0-16.72H1356a8.36,8.36,0,0,1,0,16.72Z"/><path d="M1255.27,617.52q43.62-76.38,119-119t169.13-42.67q109.63,0,192.19,56.26a287.47,287.47,0,0,1,52.14,45.24c38.43,42.33,8,110.41-49.25,110.41H1737A66,66,0,0,1,1683.54,640a148.8,148.8,0,0,0-46.91-42.56q-40.77-23.38-94.14-23.39-57.16,0-101.72,26.74t-69.41,75.42q-24.9,48.79-24.85,114.31,0,64.68,24.85,113.87c16.6,32.75,39.66,58.15,69.41,75.87s63.61,26.74,101.72,26.74c35.65,0,67-7.91,94.14-24a151.45,151.45,0,0,0,46.91-43A65.87,65.87,0,0,1,1737,912.32h1.34c57.49,0,88.13,68.18,49.69,110.85a289.36,289.36,0,0,1-52,45.23q-82,55.83-192.63,55.82-93.75,0-169.13-42.67T1255.27,963q-43.62-75.87-43.57-172.47Q1211.7,693.78,1255.27,617.52Z"/><path d="M1907.59,717.34q31.41-60.83,85.34-93.69t120.44-32.76q58.15,0,101.72,23.4t69.85,59.05v-8A66.07,66.07,0,0,1,2351,599.25h0a66.07,66.07,0,0,1,66.07,66.06v387a66.08,66.08,0,0,1-66.07,66.07h0a66.07,66.07,0,0,1-66.07-66.07v-9.8q-25.23,36.6-69.85,60.49-44.46,23.91-102.62,24-65.67,0-119.54-33.76t-85.34-95.15q-31.42-61.32-31.42-141Q1876.17,778.18,1907.59,717.34ZM2266,776.84c-12.48-22.84-29.41-40.33-50.58-52.48A135.69,135.69,0,0,0,2147,706.09a132.43,132.43,0,0,0-67.51,17.83c-20.62,11.92-37.33,29.19-50.14,52s-19.16,49.8-19.16,81.11,6.35,58.6,19.16,82S2059,980.5,2079.94,993a128.59,128.59,0,0,0,67,18.72,135.6,135.6,0,0,0,68.41-18.28q31.92-18.21,50.58-52.47t18.72-82C2284.83,827,2278.59,799.68,2266,776.84Z"/><path d="M2576.28,1104q-50.62-22.9-80.1-62.28a3.68,3.68,0,0,1-.56-.78c-26.51-35.77-.78-86.35,43.68-86.35h18.94c19.38,0,37,10.47,46.9,27.19a78.86,78.86,0,0,0,20.39,22.5q25.74,19.72,64.17,19.72c25,0,44.57-5,58.61-15s21.05-22.84,21.05-38.44c0-16.82-8.58-29.52-25.73-38s-44.57-17.6-82-27.63c-38.78-9.36-70.42-19.05-95.15-29.08a165.21,165.21,0,0,1-63.73-45.9Q2476,799,2476,746.42c0-28.74,8.25-54.92,24.85-78.77s40.33-42.44,71.19-56.26,67.29-20.61,109.18-20.61q92.76,0,148.07,46.35A171.61,171.61,0,0,1,2856.71,666c29.52,39.78.89,96.26-48.69,96.26h-2.11c-20.95,0-39.89-11.58-50.25-29.74a67.74,67.74,0,0,0-16.83-19.39q-22.89-18.21-61.38-18.27c-23.73,0-42,4.34-54.82,13.15s-19.16,20.94-19.16,36.54c0,17.49,8.69,30.75,26.29,39.88s44.68,18.28,81.56,27.63q56.14,14,92.8,29.08t63.29,46.35q26.73,31.42,27.63,82.89,0,45-24.85,80.55T2799,1106.73c-31,13.48-67,20.17-108.29,20.17Q2626.87,1126.9,2576.28,1104Z"/><path d="M3381.68,898.17h-333q4.68,56.15,39.33,88.12c23.06,21.28,51.59,31.87,85.34,31.87,38.55,0,68.41-13.15,89.36-39.33a61.24,61.24,0,0,1,48-23.4h0c55.7,0,83,68.41,42.22,106.29a246.9,246.9,0,0,1-20.17,16.93q-63.66,48.3-156.53,48.25-75,0-134.47-33.32T2949,999.44q-33.26-60.83-33.31-140.6,0-80.55,32.75-141.5t91.81-93.69q59-32.76,135.92-32.76,74,0,132.58,31.86c39,21.28,69.41,51.37,90.91,90.47s32.31,83.9,32.31,134.48v.55C3431.93,875.77,3409.31,898.17,3381.68,898.17ZM3296.12,810c-.67-33.76-12.81-60.72-36.54-81.11s-52.81-30.41-87.13-30.41q-48.79,0-82,29.52t-40.77,82Z"/><path class="cls-2" d="M3884.16,504.55q78.21,40.27,120.88,114.86t42.67,172.91q0,98.45-42.67,172t-120.88,113.86q-78.22,40.27-181.38,40.33H3550.59a76.6,76.6,0,0,1-76.54-76.54V540.76a76.6,76.6,0,0,1,76.54-76.55h152.19Q3805.89,464.21,3884.16,504.55Zm-26.74,446.09q56.31-56.14,56.26-158.43,0-102.11-56.26-159.76t-159.32-57.6h-32.87a60,60,0,0,0-59.94,59.94V947.08a60,60,0,0,0,59.94,59.94h32.87Q3801.21,1006.84,3857.42,950.64Z"/><path class="cls-2" d="M4290,615.18a171.9,171.9,0,0,1,51.7-19.39,34.71,34.71,0,0,1,41.55,34v65.07a34.61,34.61,0,0,1-34.65,34.65h0q-61.83,0-93.25,29.08T4224,859.84v193.08a65.66,65.66,0,0,1-65.62,65.62h0a65.66,65.66,0,0,1-65.62-65.62V664.87a65.66,65.66,0,0,1,65.62-65.62h0A65.66,65.66,0,0,1,4224,664.87v15A183,183,0,0,1,4290,615.18Z"/><path class="cls-2" d="M4426.85,515.35q-22.91-22.05-23-54.81t23-54.82c15.26-14.7,34.53-22.06,57.6-22.06s42.33,7.36,57.6,22.06,22.95,33,22.95,54.82-7.69,40.11-22.95,54.81-34.54,22.06-57.6,22.06S4442.11,530.06,4426.85,515.35Zm122.33,149.41v388a65.67,65.67,0,0,1-65.63,65.62h0a65.67,65.67,0,0,1-65.62-65.62v-388a65.67,65.67,0,0,1,65.62-65.62h0A65.74,65.74,0,0,1,4549.18,664.76Z"/><path class="cls-2" d="M4841.52,997.55,4958.06,643.7a64.66,64.66,0,0,1,61.39-44.45h0c45,0,76.32,44.9,60.61,87.12l-132.25,357.52a114.26,114.26,0,0,1-107.18,74.65h0a114.34,114.34,0,0,1-107.29-74.87L4601.76,686.26c-15.6-42.23,15.71-87,60.72-87h1.12A64.55,64.55,0,0,1,4725,643.7Z"/><path class="cls-2" d="M5565.37,898.17h-333q4.68,56.15,39.33,88.12c23.06,21.28,51.58,31.87,85.34,31.87,38.55,0,68.41-13.15,89.35-39.33a61.25,61.25,0,0,1,48-23.4h0c55.71,0,83,68.41,42.23,106.29a250.34,250.34,0,0,1-20.17,16.93q-63.68,48.3-156.54,48.25-75,0-134.47-33.32t-92.81-94.14q-33.26-60.83-33.31-140.6,0-80.55,32.76-141.5t91.8-93.69q59-32.76,135.92-32.76,74,0,132.58,31.86c39,21.28,69.41,51.37,90.92,90.47s32.31,83.9,32.31,134.48v.55C5615.73,875.77,5593.11,898.17,5565.37,898.17ZM5479.8,810c-.66-33.76-12.81-60.72-36.54-81.11s-52.81-30.41-87.12-30.41q-48.81,0-82,29.52t-40.78,82Z"/><circle cx="1592.4" cy="285.4" r="12.7"/><circle cx="1469.85" cy="337.76" r="12.7"/><circle cx="1384.06" cy="389.01" r="12.7"/></svg>