<svg xmlns="http://www.w3.org/2000/svg" viewBox="0 0 7951 1324.17"><defs><style>.cls-1{isolation:isolate;}.cls-2{fill:#0038ff;}.cls-3,.cls-6{fill:#fff;}.cls-4{fill:#dfdfdf;mix-blend-mode:multiply;}.cls-5{fill:#007fff;}.cls-6{fill-rule:evenodd;}.cls-7{fill:#01f;}</style></defs><g class="cls-1"><g id="vector"><path class="cls-2" d="M1018.27,219.77h463.08a92,92,0,0,1,92,92v764.48H129.79V160.38a92,92,0,0,1,92-92H776.4a194.54,194.54,0,0,1,130.81,50.53Z"/><rect class="cls-3" x="410.37" y="-67.49" width="98.96" height="518.36" transform="translate(268.16 651.54) rotate(-90)"/><rect class="cls-3" x="955.83" y="10.66" width="285.1" height="838.8" transform="translate(668.32 1528.43) rotate(-90)"/><path class="cls-4" d="M1018.27,368.21h463.08a92,92,0,0,1,92,92v689.27a75.2,75.2,0,0,1-75.2,75.21H205a75.2,75.2,0,0,1-75.2-75.21V308.81a92,92,0,0,1,92-92H776.4a194.55,194.55,0,0,1,130.81,50.54Z"/><path class="cls-2" d="M1018.27,420h463.08a92,92,0,0,1,92,92v689.28a75.2,75.2,0,0,1-75.2,75.2H205a75.2,75.2,0,0,1-75.2-75.2V360.65a92,92,0,0,1,92-92H776.4a194.59,194.59,0,0,1,130.81,50.53Z"/><path class="cls-4" d="M905.5,490.82h10a0,0,0,0,1,0,0V1934.38a0,0,0,0,1,0,0h-10a117.84,117.84,0,0,1-117.84-117.84V608.66A117.84,117.84,0,0,1,905.5,490.82Z" transform="translate(-361.03 2064.17) rotate(-90)"/><path class="cls-5" d="M675.27,191.69h0a10.6,10.6,0,0,1-10.6,10.6H527a10.59,10.59,0,0,1-10.6-10.6h0a10.6,10.6,0,0,1,10.6-10.6H664.67A10.61,10.61,0,0,1,675.27,191.69Z"/><path class="cls-5" d="M486,191.69h0a10.6,10.6,0,0,1-10.61,10.6H373.13a10.6,10.6,0,0,1-10.61-10.6h0a10.61,10.61,0,0,1,10.61-10.6H475.4A10.61,10.61,0,0,1,486,191.69Z"/><path class="cls-5" d="M332.15,191.69h0a10.59,10.59,0,0,1-10.6,10.6H255a10.59,10.59,0,0,1-10.6-10.6h0a10.6,10.6,0,0,1,10.6-10.6h66.51A10.6,10.6,0,0,1,332.15,191.69Z"/><path class="cls-6" d="M1249.2,860a53.36,53.36,0,1,1-53.36,53.35A53.36,53.36,0,0,1,1249.2,860m0-13.74a67.09,67.09,0,1,0,67.09,67.09A67.11,67.11,0,0,0,1249.2,846.23ZM914.22,692v315.59H911.9v18.35h-6.35v32.42h-1.21l13.72,23.82H984a34.66,34.66,0,0,1,34.6,34.61v31.9H745.25v-31.9a34.68,34.68,0,0,1,34.6-34.61h62.94l13.77-23.82h-1.22v-32.42H849v-18.35h-2.32V692h-4.8V651.32h13.46v-14.8H849v-26.1h9.25V591.66l21.26-20.22,23.09,20.22v18.76h9.3v26.1h-6.35v14.8H919V692ZM445.56,980.11a32.7,32.7,0,1,1-2.83,45.55c-11.34.15-22.65.28-34,.21-9.64-.06-19.42-.25-29-1.08-12.27-1.1-28.64-3.46-35.44-15.21-8.7-15.09,4.06-38.25,11.28-51.64s14.93-26.38,22.66-39.38c10.66-18,21.34-35.93,31.77-54,14.7-25.49,28.82-51.33,43.51-76.81,7.12-12.34,16.34-28.71,26.29-39.8-.38-36,2-77.26,13.9-111.13,9.43-26.84,24.59-51.59,52.94-60.89,27.16-8.84,60.31-1,87.9,2.81,77,10.78,138.11-4.58,196.29-57,9.5-8.58,17.93-17.41,26.74-26.67,5.33-5.59,11.57-12.32,19.79-12.87,7.88-.51,14.42,4.69,19.9,9.64,8.6,7.77,16.82,16.4,25.18,24.48,61.68,59.47,120.76,74.06,203.74,62.45,27.6-3.85,60.78-11.65,87.89-2.81,28.4,9.3,43.52,34,53,60.85,5,14.18,7.28,32.53,9,47.44,2.36,21.46,3.64,43.17,4.36,64.73.66,18.73.83,37.55.46,56.31a112.54,112.54,0,1,1-48.07-3.33c.36-16.4.19-32.83-.3-49.2-.59-19.59-1.63-39.32-3.65-58.85-1.17-11.68-2.87-27.84-6.75-38.89-4.48-12.7-11.45-24.87-24.83-29.51-16-5.59-40.33.34-56.75,3-2.68.45-5.31.87-8,1.21-91.77,12.87-169.06-8.94-238.3-71.46-2.19-1.95-11.13-10.57-14.87-13.1a54,54,0,0,0-4,3.67c-4.29,4.1-8.49,8.18-12.93,12.1-68.69,60.92-143.8,81.45-234.08,68.79-2.67-.34-5.31-.76-7.94-1.21-16.44-2.71-40.78-8.64-56.79-3-13.36,4.64-20.32,16.81-24.8,29.51-10,28.33-11.34,65.42-10.81,95.66,9.66,11.72,18.41,27.35,25.8,40.22,14,24.48,27.59,49.24,41.71,73.69,10.43,18,21.11,36,31.75,53.94,7.7,13,15.54,26.08,22.68,39.39s19.94,36.58,11.23,51.67c-6.45,11.16-21.46,13.79-33.21,15-8.85.91-17.86,1.15-26.74,1.25-10.19.11-20.42,0-30.64-.1a32.71,32.71,0,1,1-2.72-45.56c9.83.11,19.6.15,29.37.07,4.23,0,8.58-.07,12.87-.17-2-3.81-4.16-7.56-6.28-11.24-15.57-27.39-32.07-54.19-47.81-81.44s-30.73-55-46.64-82.18c-2.14-3.64-4.33-7.38-6.58-11-2.25,3.65-4.44,7.39-6.59,11-16,27.18-30.89,54.89-46.63,82.18s-32.28,54.05-47.82,81.44c-2.11,3.68-4.27,7.43-6.31,11.24,4.33.1,8.64.14,12.89.17C420.71,980.34,433.16,980.24,445.56,980.11Z"/><path d="M1793,546.13q61.43-107.55,167.57-167.57t238.16-60.08q154.38,0,270.64,79.22a405,405,0,0,1,73.42,63.71c54.11,59.6,11.26,155.47-69.35,155.47h-2.09a92.94,92.94,0,0,1-75.28-39.09,209.43,209.43,0,0,0-66.05-59.93q-57.42-32.92-132.57-32.94-80.49,0-143.23,37.66t-97.74,106.2q-35.07,68.7-35,161,0,91.08,35,160.35c23.37,46.12,55.84,81.88,97.74,106.84s89.57,37.65,143.23,37.65c50.2,0,94.35-11.14,132.57-33.8a213,213,0,0,0,66.05-60.55,92.73,92.73,0,0,1,75.28-39h1.89c80.95,0,124.1,96,70,156.09A407.76,407.76,0,0,1,2470,1181q-115.47,78.62-271.26,78.6-132,0-238.16-60.08T1793,1032.62q-61.41-106.83-61.35-242.86Q1731.69,653.51,1793,546.13Z"/><path d="M2711.61,686.7q44.23-85.66,120.17-131.93t169.6-46.14q81.88,0,143.23,33T3243,624.74V613.47a93,93,0,0,1,93-93.06h0a93,93,0,0,1,93,93v545a93.05,93.05,0,0,1-93,93h0a93,93,0,0,1-93-93h0v-13.8q-35.53,51.54-98.36,85.18-62.61,33.67-144.5,33.8-92.47,0-168.33-47.54t-120.18-134q-44.24-86.34-44.24-198.55Q2667.37,772.38,2711.61,686.7Zm504.69,83.78c-17.57-32.16-41.41-56.79-71.22-73.9a191.14,191.14,0,0,0-96.35-25.73A186.56,186.56,0,0,0,2953.67,696c-29,16.79-52.57,41.1-70.61,73.22s-27,70.13-27,114.22,9,82.52,27,115.47,41.76,58.39,71.24,76a181.25,181.25,0,0,0,94.35,26.36,191,191,0,0,0,96.33-25.74q45-25.65,71.22-73.89t26.37-115.47C3242.82,841.11,3234,802.64,3216.3,770.48Z"/><path d="M3653.22,1231.17q-71.28-32.25-112.79-87.7a5.39,5.39,0,0,1-.79-1.1c-37.33-50.37-1.1-121.59,61.51-121.59h26.67c27.29,0,52.1,14.74,66,38.29a111.1,111.1,0,0,0,28.71,31.68q36.25,27.76,90.37,27.77,52.8,0,82.53-21.12t29.64-54.13q0-35.53-36.23-53.51c-24.15-11.94-62.76-24.79-115.47-38.91-54.61-13.18-99.16-26.83-134-41a232.78,232.78,0,0,1-89.74-64.63Q3512,801.68,3512,727.64c0-40.47,11.62-77.33,35-110.92S3603.8,557,3647.25,537.5s94.76-29,153.75-29q130.61,0,208.5,65.27a241.67,241.67,0,0,1,38.61,40.65c41.57,56,1.25,135.55-68.56,135.55h-3c-29.5,0-56.17-16.31-70.76-41.88a95.28,95.28,0,0,0-23.7-27.3q-32.23-25.65-86.43-25.73c-33.42,0-59.15,6.11-77.2,18.52s-27,29.48-27,51.45c0,24.63,12.24,43.3,37,56.16s62.92,25.74,114.85,38.91q79,19.71,130.68,40.94t89.12,65.27q37.64,44.25,38.91,116.72,0,63.38-35,113.43T3966.85,1235c-43.66,19-94.35,28.41-152.49,28.41Q3724.46,1263.42,3653.22,1231.17Z"/><path d="M4787.35,941.33H4318.43q6.6,79.06,55.39,124.09c32.47,30,72.64,44.87,120.17,44.87,54.28,0,96.33-18.51,125.83-55.38a86.27,86.27,0,0,1,67.59-33h0c78.44,0,116.88,96.33,59.45,149.67a343.76,343.76,0,0,1-28.4,23.84q-89.64,68-220.42,68-105.6,0-189.35-46.92t-130.62-132.57q-46.83-85.65-46.91-198,0-113.43,46.12-199.25t129.28-131.93q83.08-46.14,191.4-46.14,104.21,0,186.69,44.87c54.92,30,97.74,72.33,128,127.39s45.49,118.15,45.49,189.37V871C4858.11,909.79,4826.25,941.33,4787.35,941.33ZM4666.87,817.17c-.95-47.53-18-85.5-51.46-114.21s-74.36-42.82-122.69-42.82q-68.7,0-115.47,41.57t-57.41,115.46Z"/><path class="cls-7" d="M5494.91,387.06Q5605,443.76,5665.13,548.8t60.09,243.48q0,138.63-60.09,242.2t-170.22,160.33q-110.15,56.71-255.41,56.79H5025.2a107.85,107.85,0,0,1-107.78-107.78V438A107.87,107.87,0,0,1,5025.2,330.25h214.3Q5384.7,330.25,5494.91,387.06Zm-37.65,628.16q79.29-79.07,79.22-223.1,0-143.77-79.22-225t-224.35-81.11h-46.28a84.49,84.49,0,0,0-84.41,84.4V1010.2a84.5,84.5,0,0,0,84.41,84.41h46.28Q5378.11,1094.36,5457.26,1015.22Z"/><path class="cls-7" d="M6066.4,542.84a241.88,241.88,0,0,1,72.8-27.31,48.89,48.89,0,0,1,57.55,38.29,49.83,49.83,0,0,1,1,9.59V655A48.74,48.74,0,0,1,6149,703.83h-.12q-87.06,0-131.3,40.95t-44.15,142.58v271.88a92.45,92.45,0,0,1-92.4,92.4h0a92.46,92.46,0,0,1-92.41-92.4V612.81a92.46,92.46,0,0,1,92.41-92.4h0a92.45,92.45,0,0,1,92.4,92.4v21.12A257.6,257.6,0,0,1,6066.4,542.84Z"/><path class="cls-7" d="M6259.1,402.26q-32.25-31-32.38-77.18t32.38-77.19c21.49-20.7,48.63-31.07,81.11-31.07s59.61,10.37,81.11,31.07,32.32,46.47,32.32,77.19-10.83,56.48-32.32,77.18-48.64,31.07-81.11,31.07S6280.59,423,6259.1,402.26Zm172.26,210.39V1159a92.47,92.47,0,0,1-92.42,92.4h0a92.48,92.48,0,0,1-92.4-92.4V612.65a92.48,92.48,0,0,1,92.4-92.4h0A92.58,92.58,0,0,1,6431.36,612.65Z"/><path class="cls-7" d="M6843,1081.27,7007.13,583a91,91,0,0,1,86.44-62.59h0c63.37,0,107.47,63.22,85.35,122.67l-186.23,503.45a160.88,160.88,0,0,1-150.92,105.11h0a161,161,0,0,1-151.08-105.42L6505.4,642.93c-22-59.47,22.12-122.51,85.5-122.51h1.58A90.89,90.89,0,0,1,6678.94,583Z"/><path class="cls-7" d="M7862.31,941.33H7393.39q6.6,79.06,55.39,124.09c32.47,30,72.63,44.87,120.17,44.87,54.28,0,96.33-18.51,125.82-55.38a86.25,86.25,0,0,1,67.59-33h0c78.45,0,116.87,96.33,59.46,149.67a351.17,351.17,0,0,1-28.4,23.84q-89.67,68-220.43,68-105.61,0-189.35-46.92T7253,1083.93q-46.84-85.65-46.91-198,0-113.43,46.13-199.25t129.27-131.93q83.09-46.14,191.39-46.14,104.2,0,186.7,44.87c54.91,30,97.74,72.34,128,127.39s45.49,118.15,45.49,189.37V871C7933.22,909.79,7901.37,941.33,7862.31,941.33Zm-120.5-124.16c-.93-47.53-18-85.5-51.45-114.21s-74.37-42.82-122.68-42.82q-68.73,0-115.47,41.57t-57.42,115.46Z"/></g></g></svg>