<svg width="547" height="384" viewBox="0 0 547 384" fill="none" xmlns="http://www.w3.org/2000/svg">
<path d="M122.152 348.882C185.314 334.098 257.082 319.047 368.525 321.611C430.85 323.045 444.974 304.806 492.209 282.129C534.311 261.918 554.989 221.728 542.289 198.95C529.468 175.955 490.416 185.11 458.433 150.879C443.868 135.289 446.431 124.362 438.022 107.074C411.392 52.3319 311.586 9.54468 262.37 32.1889C197.348 62.1038 252.936 191.362 180.254 226.672C134.279 249.008 99.5303 206.129 54.1356 238.862C31.6431 255.08 4.13384 277.831 2.00635 302.533C2.00635 302.533 -0.972468 362.927 122.152 348.882Z" stroke="#F3F3F3" stroke-width="3" stroke-miterlimit="10" stroke-linecap="round" stroke-dasharray="50 50 50 50 50 50"/>
<path d="M457.568 283.935C457.568 283.935 446.936 297.737 436.303 316.674C426.717 333.751 419.427 356.762 417.817 375.973C413.301 375.764 408.342 375.568 402.98 375.381C371.225 374.278 325.381 373.587 274.406 373.587C216.455 373.587 165.136 374.481 133.611 375.857C132.525 375.904 131.463 375.951 130.425 376C91.0662 328.233 11.8098 245.012 84.7472 210.777C84.7472 210.777 90.0905 209.184 98.1014 205.761C123.456 194.925 175.558 165.768 169.762 110.794C169.762 110.794 167.788 100.535 167.788 86.2613C167.788 52.8842 178.579 -2.44156 250.624 0.0835096C294.252 1.61482 334.433 23.3535 358.725 58.1489C382.552 92.277 420.65 134.267 451.677 110.295C458.839 104.759 468.308 102.708 477.15 105.142C499.482 111.284 524.853 143.081 457.568 283.935Z" fill="#F3F3F3"/>
<path d="M533.588 379.365C533.588 381.848 417.395 383.861 274.064 383.861C193.191 383.861 120.958 383.22 73.3615 382.215C62.3985 381.984 52.7441 381.733 44.592 381.467C39.2223 381.291 34.5045 381.108 30.4938 380.919C20.1749 380.436 14.5391 379.912 14.5391 379.365C14.5391 378.668 23.6864 378.008 40.0127 377.42C46.6989 377.178 54.5881 376.949 63.5465 376.735C110.683 375.604 187.415 374.868 274.064 374.868C350.282 374.868 418.826 375.437 466.306 376.344C508.113 377.142 533.588 378.202 533.588 379.365Z" fill="#F3F3F3"/>
<path d="M287.703 243.119V228.052C287.703 224.799 285.437 222.161 282.641 222.161H229.746C226.95 222.161 224.684 224.799 224.684 228.052V249.274V271.223V379.417H391.331V260.095C391.331 254.119 387.168 249.274 382.033 249.274H292.993C290.071 249.274 287.703 246.519 287.703 243.119Z" fill="#407BFF"/>
<path d="M388.295 375H243L251.704 259H397L388.295 375Z" fill="#EEF2FA"/>
<path d="M388.295 375H243L251.704 263H397L388.295 375Z" fill="#D3DCEF"/>
<path d="M224.633 379.417H391.281L414.683 275.887C415.865 270.658 412.475 265.542 407.829 265.542H255.838C252.618 265.542 249.802 268.068 248.983 271.691L224.633 379.417Z" fill="#6695FF"/>
<path opacity="0.5" d="M350.93 372.932L354.176 357.304C354.405 356.197 355.381 355.403 356.511 355.403H391.455C392.968 355.403 394.099 356.793 393.791 358.274L390.545 373.902C390.315 375.009 389.34 375.803 388.209 375.803H353.265C351.753 375.803 350.622 374.413 350.93 372.932Z" fill="#5E8DF7"/>
<path d="M333.251 340.205H324.667L319.075 326.797L308.179 340.205H300.129L315.505 321.923L307.892 304.756H316.185L321.3 317.51L331.315 304.756H339.414L324.807 322.335L333.251 340.205Z" fill="white"/>
<path d="M175.781 233.121L181.373 208.658H193.255C193.255 208.658 190.179 225.293 194.233 235.637L175.781 233.121Z" fill="black"/>
<path d="M175.73 229.607L175.773 237.448L187.424 239.574L194.191 236.119L191.264 232.321L189.646 230.222C189.322 229.802 189.184 229.26 189.267 228.73L190.679 219.728L179.328 214.634L180.285 221.787L180.442 222.962C180.785 226.772 175.73 229.607 175.73 229.607Z" fill="#CB7A63"/>
<path opacity="0.15" d="M179.328 214.634L180.399 222.741C184.378 229.895 189.414 231.57 191.264 232.321L189.646 230.223C189.322 229.802 189.184 229.261 189.267 228.73L190.679 219.728L179.328 214.634Z" fill="black"/>
<path d="M177.703 215.432L179.031 218.842C180.481 221.034 181.917 222.718 183.247 224.011C187.025 227.681 189.953 228.19 189.953 228.19C191.209 228.398 192.23 227.447 193.054 225.929C195.374 221.65 195.495 212.712 195.495 212.712L181.643 211.091L177.703 215.432Z" fill="#CB7A63"/>
<path d="M195.799 215.705C195.799 215.705 189.465 208.957 184.038 215.431C184.038 215.431 183.867 218.178 183.353 218.975H182.582C182.582 218.975 182.667 216.14 180.44 215.52C180.44 215.52 177.699 215.077 179.241 218.975L180.226 220.614L180.456 223.276C180.456 223.276 177.794 223.642 177.629 218.093C177.617 217.693 177.449 217.1 177.244 216.519C176.433 214.215 176.75 211.659 178.147 209.655C178.147 209.655 182.491 202.227 191.297 205.582C191.297 205.582 196.609 207.12 195.799 215.705Z" fill="black"/>
<path d="M199.895 312.419L195.427 333.98L190.28 370.013L184.72 373.236L183.578 373.898C183.578 373.898 185.081 357.201 183.906 348.963C183.618 346.936 183.546 344.881 183.748 342.843C183.913 341.179 184.223 339.257 184.8 337.496C185.442 335.536 185.769 333.486 185.717 331.423L185.39 318.68L185.229 312.419L199.895 312.419Z" fill="#CB7A63"/>
<path opacity="0.15" d="M185.612 348.431C185.654 355.77 185.575 366.471 184.841 370.694L184.72 373.237L183.578 373.899C183.578 373.899 185.081 357.203 183.906 348.965C183.618 346.937 183.546 344.883 183.748 342.844C183.913 341.18 184.223 339.258 184.8 337.497C185.442 335.538 185.769 333.487 185.717 331.424L185.39 318.681L188.24 317.471C188.24 317.471 189.001 326.252 186.963 335.705C186.061 339.888 185.587 344.152 185.612 348.431Z" fill="black"/>
<path d="M179.31 347.482C175.355 356.447 174.521 362.864 174.584 366.856C174.624 369.311 172.349 371.148 169.962 370.577C167.978 370.102 166.737 368.13 167.167 366.136L168.393 360.461C168.788 358.635 168.985 356.773 168.995 354.906C169.064 342.027 171.544 336.672 172.903 334.7C173.794 333.408 174.386 331.954 175.106 330.56C176.443 327.973 176.497 325.752 176.406 324.64C176.371 324.217 176.264 323.803 176.09 323.416L173.829 318.375C172.971 316.464 173.846 314.22 175.771 313.393L182.277 310.599C184.816 309.508 187.623 311.445 187.505 314.206L187.008 325.826C186.863 329.224 186.067 332.564 184.663 335.662L179.31 347.482Z" fill="#CB7A63"/>
<path d="M167.666 363.806C167.666 363.806 163.669 367.391 165.514 372.927C165.514 372.927 167.651 375.161 168.039 376.909C168.039 376.909 169.423 380.415 178.844 379.334C179.398 379.271 179.857 378.878 180.008 378.341C180.278 377.377 180.354 375.637 178.917 373.122C178.917 373.122 175.129 367.294 174.644 364.866C174.643 364.866 167.779 368.281 167.666 363.806Z" fill="#040C2B"/>
<path d="M184.13 365.751C184.13 365.751 181.519 371.264 182.127 375.042C182.229 375.679 182.738 376.172 183.377 376.261C185.387 376.542 190.031 377.25 192.13 378.075C192.13 378.075 198.326 379.095 201.183 378.295C201.857 378.106 202.319 377.48 202.293 376.78C202.253 375.679 201.853 373.936 199.9 372.928L190.801 366.406C190.801 366.406 184.58 369.647 184.13 365.751Z" fill="#040C2B"/>
<path d="M207.181 266.481L202.942 268.661L200.772 269.777L200.383 269.977L200.435 268.908L200.517 267.277L200.71 263.353L201.312 251.184L201.5 247.396L205.336 246.279L206.742 261.679L207.022 264.735L207.181 266.481Z" fill="#CB7A63"/>
<path d="M234.222 255.72C232.826 258.601 226.765 261.308 226.765 261.308L208.062 273.629C206.863 274.418 205.451 274.547 204.214 274.14C202.999 273.743 201.952 272.828 201.443 271.513L200.77 269.778L200.433 268.908L199.895 267.52L200.514 267.278L202.55 266.481L207.02 264.735L217.329 260.706C219.177 259.718 220.949 258.123 222.043 257.037C222.635 256.449 223.158 255.791 223.578 255.07C224.434 253.605 225.647 252.188 226.645 251.137C227.645 250.086 228.429 249.401 228.429 249.401C228.945 249.908 228.99 250.725 228.53 251.285L226.623 253.612L229.127 252.134C229.975 251.634 230.951 251.379 231.933 251.437C235.609 251.655 234.222 255.72 234.222 255.72Z" fill="#CB7A63"/>
<path d="M170.43 261.763L169.312 250.654L165.758 248.829L161.452 263.682L160.597 266.628L160.109 268.313L163.858 271.259L167.45 270.329L170.43 261.763Z" fill="#CB7A63"/>
<path d="M133.443 257.631C134.779 260.54 140.784 263.372 140.784 263.372L159.23 276.073C160.412 276.887 161.821 277.045 163.067 276.663C164.29 276.291 165.355 275.398 165.891 274.094L166.6 272.372L166.954 271.51L167.521 270.132L166.906 269.878L164.887 269.04L160.454 267.202L150.23 262.962C148.402 261.937 146.664 260.306 145.592 259.198C145.012 258.597 144.503 257.929 144.098 257.199C143.272 255.717 142.088 254.276 141.112 253.204C140.134 252.133 139.363 251.433 139.363 251.433C138.837 251.929 138.776 252.745 139.224 253.313L141.083 255.679L138.61 254.151C137.773 253.633 136.802 253.358 135.819 253.396C132.14 253.539 133.443 257.631 133.443 257.631Z" fill="#CB7A63"/>
<path d="M211.843 260.264L206.743 261.678L202.071 262.973L200.711 263.352L200.701 263.354L200.286 263.469L199.742 263.524L200.204 250.781L200.324 247.44L200.84 233.181C206.097 235.178 206.792 240.742 206.792 240.742L211.843 260.264Z" fill="#407BFF"/>
<path opacity="0.15" d="M204.216 274.14C203.001 273.742 201.954 272.827 201.445 271.512L200.772 269.777L200.382 269.977L200.435 268.908L199.897 267.519L200.516 267.277L200.71 263.352L200.285 263.47L199.742 263.525L200.217 250.393L200.593 247.485L201.462 255.307C201.462 255.307 201.281 255.857 202.07 262.974C202.192 264.074 202.35 265.244 202.552 266.48C202.667 267.186 202.796 267.913 202.941 268.661C203.276 270.382 203.694 272.212 204.216 274.14Z" fill="black"/>
<path d="M203.124 319.127C203.109 319.294 202.981 319.431 202.814 319.456C200.303 319.825 181.766 322.424 170.969 320.33C170.834 320.303 170.726 320.202 170.688 320.069C170.378 318.939 169.135 312.887 169.693 289.76C169.74 287.78 169.868 285.802 170.075 283.833C170.282 281.861 170.557 278.789 170.746 274.943C170.868 272.414 170.955 269.549 170.959 266.441L172.078 266.328L199.739 263.526L200.282 263.47L200.697 263.355C200.69 263.943 200.681 264.549 200.671 265.173C200.671 265.203 200.673 265.233 200.681 265.261C200.884 266.125 204.068 279.763 204.07 288.226V288.247C204.095 288.628 204.81 300.103 203.124 319.127Z" fill="#407BFF"/>
<path d="M200.839 233.182C200.668 233.116 200.491 233.055 200.311 232.999C200.174 232.955 200.037 232.915 199.896 232.876L199.701 232.812L198.5 232.411L190.289 231.099C190.289 231.099 191.033 235.568 185.943 236.064C183.258 236.326 180.978 235.32 179.86 231.223C179.848 231.223 175.528 232.34 175.515 232.34L170.654 234.079L169.341 234.53L167.652 235.11C167.652 235.11 167.591 235.145 167.48 235.231C168.312 237.122 169.61 240.521 170.484 244.945C171.137 248.257 171.552 252.144 171.355 256.4C171.313 257.285 171.246 258.185 171.148 259.1L170.957 264.53L170.888 266.448L170.962 266.441L172.08 266.328L199.741 263.526L200.285 263.47L200.7 263.356C200.825 253.851 200.719 249.063 200.685 247.795C200.682 247.697 200.64 247.609 200.575 247.546C200.511 247.482 200.421 247.442 200.323 247.441L200.812 233.92L200.839 233.182Z" fill="#9FBDFF"/>
<path opacity="0.15" d="M172.081 266.327C171.902 269.326 171.496 272.287 170.749 274.943C170.872 272.413 170.958 269.548 170.963 266.439L170.889 266.447L170.957 264.529C170.938 262.417 170.88 260.205 170.77 257.923C170.77 257.923 170.893 257.357 171.356 256.399C171.554 252.143 171.138 248.256 170.484 244.944L170.573 244.904C170.573 244.904 171.448 249.388 171.913 255.361C172.174 258.723 172.307 262.555 172.081 266.327Z" fill="black"/>
<path d="M171.15 259.099L170.891 266.448L170.567 266.481L156.484 261.722L162.409 245.405C164.558 237.965 166.848 235.732 167.483 235.231C169.066 238.834 172.344 247.906 171.15 259.099Z" fill="#407BFF"/>
<path d="M193.649 213.996C193.649 213.996 186.687 212.571 183.332 219.002C183.332 219.002 181.654 222.077 184.031 230.185C184.031 230.185 186.67 237.184 188.644 240.249C188.644 240.249 176.308 238.532 174.805 230.185C174.805 230.185 175.643 210.894 178.998 208.518C178.998 208.518 192.223 202.281 193.649 213.996Z" fill="black"/>
<path d="M156.524 199.07H171.314C176.992 199.07 181.596 194.466 181.596 188.788V183.485C181.596 177.807 176.992 173.203 171.314 173.203H156.524C150.846 173.203 146.242 177.807 146.242 183.485V188.788C146.242 194.466 150.846 199.07 156.524 199.07Z" fill="white"/>
<path d="M168.028 196.986H159.824C159.824 196.986 160.558 203.592 168.028 206.874C168.028 206.874 164.099 201.088 168.028 196.986Z" fill="white"/>
<path d="M161.901 188.711V187.927C161.901 187.25 162.045 186.661 162.335 186.16C162.624 185.659 163.153 185.126 163.922 184.561C164.663 184.032 165.152 183.602 165.388 183.27C165.624 182.939 165.743 182.568 165.743 182.159C165.743 181.7 165.573 181.351 165.235 181.111C164.896 180.871 164.423 180.751 163.816 180.751C162.758 180.751 161.551 181.097 160.197 181.788L159.043 179.47C160.616 178.589 162.285 178.147 164.049 178.147C165.503 178.147 166.658 178.497 167.515 179.195C168.373 179.894 168.801 180.825 168.801 181.989C168.801 182.766 168.625 183.436 168.272 184C167.919 184.565 167.249 185.2 166.261 185.905C165.584 186.407 165.155 186.788 164.975 187.049C164.795 187.31 164.705 187.652 164.705 188.075V188.71H161.901V188.711ZM161.562 192.33C161.562 191.738 161.721 191.29 162.038 190.986C162.356 190.683 162.818 190.531 163.425 190.531C164.01 190.531 164.464 190.686 164.785 190.997C165.106 191.307 165.266 191.752 165.266 192.33C165.266 192.888 165.104 193.327 164.779 193.648C164.455 193.969 164.003 194.13 163.425 194.13C162.832 194.13 162.373 193.973 162.049 193.659C161.724 193.345 161.562 192.902 161.562 192.33Z" fill="#ACBCF8"/>
<path d="M358.31 122.861V169.61C358.31 171.381 356.875 172.816 355.104 172.816H313.765C311.994 172.816 310.559 171.381 310.559 169.61V114.256C310.559 112.485 311.994 111.05 313.765 111.05H346.285L346.5 111.261L358.31 122.861Z" fill="#9FBDFF"/>
<path opacity="0.1" d="M358.311 122.861H349.11C347.669 122.861 346.5 121.692 346.5 120.251V111.261L358.311 122.861Z" fill="black"/>
<path d="M330.645 146.754V145.286C330.645 144.016 330.916 142.912 331.459 141.973C332.001 141.034 332.993 140.036 334.435 138.977C335.823 137.985 336.739 137.179 337.182 136.557C337.625 135.936 337.847 135.241 337.847 134.474C337.847 133.614 337.529 132.96 336.895 132.51C336.26 132.061 335.374 131.835 334.236 131.835C332.252 131.835 329.991 132.484 327.451 133.78L325.289 129.435C328.238 127.782 331.366 126.955 334.673 126.955C337.397 126.955 339.563 127.61 341.17 128.919C342.777 130.228 343.58 131.974 343.58 134.157C343.58 135.612 343.25 136.868 342.588 137.926C341.927 138.984 340.671 140.175 338.819 141.497C337.549 142.436 336.746 143.15 336.409 143.639C336.071 144.129 335.903 144.77 335.903 145.564V146.754H330.645ZM330.01 153.539C330.01 152.428 330.308 151.588 330.903 151.02C331.498 150.451 332.365 150.166 333.502 150.166C334.6 150.166 335.449 150.458 336.051 151.039C336.653 151.621 336.954 152.455 336.954 153.539C336.954 154.584 336.65 155.407 336.041 156.009C335.433 156.611 334.586 156.912 333.502 156.912C332.391 156.912 331.531 156.617 330.923 156.029C330.315 155.441 330.01 154.61 330.01 153.539Z" fill="white"/>
<path d="M98.1847 223.232L112.563 268.662C113.108 270.383 112.154 272.22 110.433 272.765L70.2606 285.479C68.5397 286.024 66.7031 285.07 66.1583 283.349L49.1337 229.557C48.589 227.836 49.5426 226 51.2635 225.455L82.8658 215.453L83.1393 215.592L98.1847 223.232Z" fill="#9FBDFF"/>
<path opacity="0.1" d="M98.1859 223.232L89.2449 226.062C87.844 226.505 86.3489 225.729 85.9055 224.328L83.1406 215.592L98.1859 223.232Z" fill="black"/>
<path d="M94.682 256.9L89.3256 258.595L81.5327 251.856L79.0364 261.851L74.0128 263.441L77.7407 249.71L67.4805 241.171L72.6554 239.533L79.9408 245.984L82.0974 236.545L87.1513 234.945L83.6779 248.114L94.682 256.9Z" fill="white"/>
<path d="M244.993 101.328L237.34 128.078C236.844 129.813 235.034 130.818 233.299 130.321L192.787 118.731C191.052 118.235 190.048 116.425 190.545 114.69L198.2 87.9344L199.18 89.1664L203.205 87.7354L205.862 91.0782L209.887 89.6472L212.546 92.9905L216.571 91.5594L219.231 94.9027L223.255 93.4717L225.915 96.8149L229.94 95.3839L232.599 98.7271L236.622 97.2957L239.282 100.639L243.308 99.2083L244.993 101.328Z" fill="#9FBDFF"/>
<path d="M246.837 68.1537V87.9823L244.633 86.4081L241.156 88.8911L237.68 86.4081L234.205 88.8911L230.729 86.4081L227.253 88.8911L223.777 86.4081L220.301 88.8911L216.824 86.4081L213.348 88.8911L209.872 86.4081L206.396 88.8911L202.921 86.4081L199.445 88.8911L198.164 87.9761V59.3828C198.164 57.5777 199.626 56.1152 201.432 56.1152H234.579L234.798 56.33L246.837 68.1537Z" fill="#9FBDFF"/>
<path opacity="0.1" d="M246.839 68.1549H237.461C235.992 68.1549 234.801 66.9637 234.801 65.4943V56.3311L246.839 68.1549Z" fill="black"/>
<path d="M469.446 187.113L461.793 213.863C461.297 215.598 459.487 216.603 457.752 216.106L417.241 204.516C415.505 204.02 414.502 202.21 414.998 200.475L422.653 173.72L423.633 174.952L427.658 173.521L430.315 176.863L434.34 175.432L437 178.776L441.024 177.345L443.684 180.688L447.708 179.257L450.368 182.6L454.392 181.169L457.052 184.512L461.075 183.081L463.734 186.424L467.761 184.993L469.446 187.113Z" fill="#9FBDFF"/>
<path d="M471.29 153.939V173.767L469.086 172.193L465.609 174.676L462.133 172.193L458.658 174.676L455.182 172.193L451.706 174.676L448.23 172.193L444.754 174.676L441.278 172.193L437.802 174.676L434.325 172.193L430.849 174.676L427.374 172.193L423.898 174.676L422.617 173.761V145.168C422.617 143.363 424.08 141.9 425.885 141.9H459.032L459.251 142.115L471.29 153.939Z" fill="#9FBDFF"/>
<path opacity="0.1" d="M471.293 153.939H461.914C460.445 153.939 459.254 152.748 459.254 151.278V142.115L471.293 153.939Z" fill="black"/>
</svg>
