<svg xmlns="http://www.w3.org/2000/svg" version="1.1" xmlns:xlink="http://www.w3.org/1999/xlink" width="512" height="512" x="0" y="0" viewBox="0 0 100 100" style="enable-background:new 0 0 512 512" xml:space="preserve" class=""><g><path d="M87.515 14.739h-75.03A6.492 6.492 0 0 0 6 21.224v46.208a6.492 6.492 0 0 0 6.485 6.485h75.029a6.492 6.492 0 0 0 6.485-6.485V21.224a6.49 6.49 0 0 0-6.484-6.485zM91 67.432a3.488 3.488 0 0 1-3.485 3.485h-75.03A3.488 3.488 0 0 1 9 67.432V21.224a3.488 3.488 0 0 1 3.485-3.485h75.029a3.488 3.488 0 0 1 3.485 3.485v46.208z" fill="#ffffff" opacity="1" data-original="#000000" class=""></path><path d="M59.967 43.07 41.666 31.196c-.946-.655-2.354.103-2.316 1.258v23.748a1.5 1.5 0 0 0 2.316 1.258l18.302-11.874c.897-.546.901-1.969-.001-2.516zM42.349 53.441V35.216l14.046 9.113zM76.775 82.261h-53.55c-1.953.028-1.987 2.965 0 3h53.55c1.953-.028 1.987-2.965 0-3z" fill="#ffffff" opacity="1" data-original="#000000" class=""></path></g></svg>