<svg xmlns="http://www.w3.org/2000/svg" version="1.1" xmlns:xlink="http://www.w3.org/1999/xlink" width="512" height="512" x="0" y="0" viewBox="0 0 512 512" style="enable-background:new 0 0 512 512" xml:space="preserve" class=""><g><g data-name="10.Plus"><circle cx="256" cy="256" r="245" fill="#f7f5fb" opacity="1" data-original="#f7f5fb" class=""></circle><path fill="#ffa105" d="M377.183 211.002h-76.185v-76.185A44.998 44.998 0 0 0 256 89.819a44.998 44.998 0 0 0-44.998 44.998v76.185h-76.185A44.998 44.998 0 0 0 89.82 256a44.998 44.998 0 0 0 44.998 44.998h76.185v76.185A44.998 44.998 0 0 0 256 422.181a44.998 44.998 0 0 0 44.998-44.998v-76.185h76.185A44.998 44.998 0 0 0 422.181 256a44.997 44.997 0 0 0-44.998-44.998z" opacity="1" data-original="#74d1d1" class=""></path><path fill="#e4e3e8" d="M313.824 494.134a245.375 245.375 0 0 1-57.82 6.87c-135.31 0-245-109.69-245-245a243.802 243.802 0 0 1 37.7-130.63c24.45 160.97 125.66 296.73 265.12 368.76z" opacity="1" data-original="#e4e3e8" class=""></path><path d="M256.004 507.004a251.027 251.027 0 0 1-203.993-397.28 6 6 0 0 1 9.746 7 237.29 237.29 0 0 0-44.753 139.28c0 131.785 107.215 239 239 239s239-107.215 239-239-107.215-239-239-239a239.38 239.38 0 0 0-151.376 54.05 6 6 0 0 1-7.608-9.28 251 251 0 1 1 158.984 445.23z" fill="#ffa105" opacity="1" data-original="#000000" class=""></path><path d="M71.932 100.324a6 6 0 0 1-4.51-9.954 242.915 242.915 0 0 1 8.522-9.23 6 6 0 1 1 8.602 8.367 230.757 230.757 0 0 0-8.099 8.771 5.987 5.987 0 0 1-4.515 2.046zM256 428.18a51.055 51.055 0 0 1-50.998-50.998v-70.184h-70.185a50.998 50.998 0 0 1 0-101.996h70.185v-70.185a50.998 50.998 0 0 1 101.995 0v70.185h70.186a50.998 50.998 0 0 1 0 101.996h-70.186v70.185A51.055 51.055 0 0 1 256 428.18zM134.817 217.002a38.998 38.998 0 0 0 0 77.996h76.185a6 6 0 0 1 6 6v76.185a38.998 38.998 0 0 0 77.996 0v-76.185a6 6 0 0 1 6-6h76.185a38.998 38.998 0 0 0 0-77.996h-76.186a6 6 0 0 1-6-6v-76.185a38.998 38.998 0 0 0-77.995 0v76.185a6 6 0 0 1-6 6z" fill="#ffa105" opacity="1" data-original="#000000" class=""></path></g></g></svg>