<svg height="512" viewBox="0 0 48 48" width="512" xmlns="http://www.w3.org/2000/svg"><g id="Scan_QR_Code" data-name="Scan QR Code"><path d="m6 2h40v40h-40z" fill="#f8f9f9"/><g fill="#bec6c6"><path d="m42 15h-8a1 1 0 0 1 -1-1v-8a1 1 0 0 1 1-1h8a1 1 0 0 1 1 1v8a1 1 0 0 1 -1 1zm-7-2h6v-6h-6z"/><path d="m34 39h-8a1 1 0 0 1 -1-1v-8a1 1 0 0 1 1-1h8a1 1 0 0 1 1 1v8a1 1 0 0 1 -1 1zm-7-2h6v-6h-6z"/><path d="m30 19a1 1 0 0 1 -1-1v-4a1 1 0 0 1 2 0v4a1 1 0 0 1 -1 1z"/><path d="m34 23h-8a1 1 0 0 1 -1-1v-8a1 1 0 0 1 2 0v7h7a1 1 0 0 1 0 2z"/><path d="m42 27a1 1 0 0 1 -1-1v-7h-7a1 1 0 0 1 0-2h8a1 1 0 0 1 1 1v8a1 1 0 0 1 -1 1z"/><path d="m42 39h-4a1 1 0 0 1 0-2h4a1 1 0 0 1 0 2z"/><path d="m42 35h-4a1 1 0 0 1 -1-1v-4a1 1 0 0 1 1-1h4a1 1 0 0 1 1 1v4a1 1 0 0 1 -1 1zm-3-2h2v-2h-2z"/><path d="m38 27h-16a1 1 0 0 1 0-2h15v-3a1 1 0 0 1 2 0v4a1 1 0 0 1 -1 1z"/><path d="m14 13h-4a1 1 0 0 1 -1-1v-6a1 1 0 0 1 1-1h4a1 1 0 0 1 1 1v6a1 1 0 0 1 -1 1zm-3-2h2v-4h-2z"/><path d="m18 17a1 1 0 0 1 -1-1v-10a1 1 0 0 1 1-1h4a1 1 0 0 1 0 2h-3v9a1 1 0 0 1 -1 1z"/><path d="m30 5a1 1 0 0 0 -1 1v3h-2v-3a1 1 0 0 0 -2 0v3h-3a1 1 0 0 0 0 2h8a1 1 0 0 0 1-1v-4a1 1 0 0 0 -1-1z"/><path d="m4 16a2 2 0 0 0 -2 2v26a2 2 0 0 0 2 2h16a2 2 0 0 0 2-2v-26a2 2 0 0 0 -2-2z"/></g><path d="m20 47h-16a3 3 0 0 1 -3-3v-26a3 3 0 0 1 3-3h16a3 3 0 0 1 3 3v26a3 3 0 0 1 -3 3zm-16-30a1 1 0 0 0 -1 1v26a1 1 0 0 0 1 1h16a1 1 0 0 0 1-1v-26a1 1 0 0 0 -1-1z" fill="#414141"/><path d="m46 11a1 1 0 0 1 -1-1v-7h-7a1 1 0 0 1 0-2h8a1 1 0 0 1 1 1v8a1 1 0 0 1 -1 1z" fill="#414141"/><path d="m6 11a1 1 0 0 1 -1-1v-8a1 1 0 0 1 1-1h8a1 1 0 0 1 0 2h-7v7a1 1 0 0 1 -1 1z" fill="#414141"/><path d="m46 43h-8a1 1 0 0 1 0-2h7v-7a1 1 0 0 1 2 0v8a1 1 0 0 1 -1 1z" fill="#414141"/><path d="m37 9h2v2h-2z" fill="#bec6c6"/><path d="m29 33h2v2h-2z" fill="#bec6c6"/><path d="m5 19h14v24h-14z" fill="#f8f9f9"/><path d="m9 18h6a0 0 0 0 1 0 0v1a1 1 0 0 1 -1 1h-4a1 1 0 0 1 -1-1v-1a0 0 0 0 1 0 0z" fill="#bec6c6"/><path d="m10 35h-2a1 1 0 0 1 -1-1v-2a1 1 0 0 1 2 0v1h1a1 1 0 0 1 0 2z" fill="#6457ff"/><path d="m16 35h-2a1 1 0 0 1 0-2h1v-1a1 1 0 0 1 2 0v2a1 1 0 0 1 -1 1z" fill="#6457ff"/><path d="m16 29a1 1 0 0 1 -1-1v-1h-1a1 1 0 0 1 0-2h2a1 1 0 0 1 1 1v2a1 1 0 0 1 -1 1z" fill="#6457ff"/><path d="m8 29a1 1 0 0 1 -1-1v-2a1 1 0 0 1 1-1h2a1 1 0 0 1 0 2h-1v1a1 1 0 0 1 -1 1z" fill="#6457ff"/><path d="m14 40h-4a1 1 0 0 1 0-2h4a1 1 0 0 1 0 2z" fill="#bec6c6"/><path d="m11 29h2v2h-2z" fill="#6457ff"/></g></svg>