<svg width="33" height="33" viewBox="0 0 33 33" fill="none" xmlns="http://www.w3.org/2000/svg">
    <path fill-rule="evenodd" clip-rule="evenodd"
          d="M16.5 0C25.6127 0 33 7.3873 33 16.5C33 25.6127 25.6127 33 16.5 33C7.3873 33 0 25.6127 0 16.5C0 7.3873 7.3873 0 16.5 0ZM26.9736 22.8964V10.6333L20.8418 16.7648L26.9736 22.8964ZM7.33631 23.1462H25.6641L20.0626 17.5447L17.9277 19.6793C17.8242 19.7825 17.684 19.8405 17.5378 19.8404H15.4624C15.39 19.8405 15.3183 19.8263 15.2513 19.7986C15.1844 19.771 15.1236 19.7304 15.0724 19.6793L12.9375 17.5447L7.33605 23.1462H7.33631ZM6.02637 10.633V22.8967L12.1582 16.7648L6.02637 10.633ZM26.1941 9.85379H6.80625L15.6907 18.7383H17.3096L26.1941 9.85379Z"
          fill="black"/>
</svg>
