<svg width="33" height="33" viewBox="0 0 33 33" fill="none" xmlns="http://www.w3.org/2000/svg">
    <g clip-path="url(#clip0_11525_3775)">
        <path fill-rule="evenodd" clip-rule="evenodd" d="M16.5 33C7.38875 33 0 25.6112 0 16.5C0 7.38875 7.38875 0 16.5 0C25.6112 0 33 7.38875 33 16.5C33 25.6112 25.6112 33 16.5 33ZM16.5 5.76772C21.0137 5.76772 24.6727 9.4267 24.6727 13.9404C24.6727 18.454 16.5 27.2321 16.5 27.2321C16.5 27.2321 8.3273 18.454 8.3273 13.9404C8.3273 9.4267 11.9863 5.76772 16.5 5.76772ZM16.5 10.6933C18.2113 10.6933 19.5991 12.0811 19.5991 13.7926C19.5991 15.5039 18.2113 16.8917 16.5 16.8917C14.7887 16.8917 13.4009 15.5039 13.4009 13.7926C13.4009 12.0811 14.7887 10.6933 16.5 10.6933Z" fill="black"/>
    </g>
    <defs>
        <clipPath id="clip0_11525_3775">
            <rect width="33" height="33" fill="white"/>
        </clipPath>
    </defs>
</svg>
