<svg fill="none" height="24" viewBox="0 0 24 24" width="24" xmlns="http://www.w3.org/2000/svg"><path clip-rule="evenodd" d="m4.05099 8.22786c-.35796.88069-.55516 1.84384-.55516 2.85314 0 1.0092.1972 1.9724.55515 2.853h3.12124c-.12597-.8968-.19388-1.8568-.19388-2.853 0-.9963.06791-1.95627.19388-2.85314zm.81789-1.49943h2.58101c.24767-1.05949.58848-2.00542 1.01059-2.76534-1.46133.53745-2.71138 1.51208-3.5916 2.76534zm6.20862-4.72856c-5.01536 0-9.0811 4.06574-9.0811 9.08113 0 5.0153 4.06574 9.081 9.0811 9.081.2539 0 .5055-.0104.7543-.0309 1.072 1.1454 2.5974 1.8612 4.29 1.8612 3.2445 0 5.8746-2.6301 5.8746-5.8746 0-1.6957-.7185-3.2237-1.8676-4.296.0197-.2444.0298-.4915.0298-.7407 0-5.01539-4.0658-9.08113-9.0811-9.08113zm0 1.49943c-.2749 0-.6981.20728-1.17163.96347-.35029.55936-.66614 1.32951-.91138 2.26566h4.16601c-.2452-.93614-.5611-1.7063-.9114-2.26566-.4735-.75618-.8967-.96347-1.1716-.96347zm3.6276 3.22913c-.2477-1.05949-.5885-2.00542-1.0106-2.76534 1.4613.53746 2.7114 1.51209 3.5916 2.76534zm-1.2378 1.49943h-4.7796c-.13516.88204-.20992 1.84404-.20992 2.85314 0 1.009.07476 1.971.20992 2.853h1.9787c.5606-1.3992 1.644-2.5326 3.0085-3.1586-.0135-.89785-.0862-1.75498-.2076-2.54754zm1.6961 2.09304c-.0255-.72521-.087-1.42653-.1806-2.09304h3.1212c.3264.80319.5192 1.67499.5506 2.58774-.7669-.367-1.6259-.5725-2.5328-.5725-.3264 0-.6465.0266-.9584.0778zm-4.8768 5.1126h-1.29211c.24524.9361.56109 1.7063.91138 2.2656.33253.5311.64033.7914.88933.8994-.3516-.7537-.548-1.5943-.548-2.4808 0-.2314.0134-.4598.0394-.6842zm-1.82612 2.7653c-.42211-.7599-.76292-1.7058-1.01059-2.7653h-2.58101c.88022 1.2532 2.13027 2.2279 3.5916 2.7653zm7.66132-6.4563c-2.4163 0-4.3752 1.9589-4.3752 4.3752s1.9589 4.3752 4.3752 4.3752 4.3752-1.9589 4.3752-4.3752-1.9589-4.3752-4.3752-4.3752zm.0001 1.8495c.4141 0 .7497.3357.7497.7498v1.4937l1.3279 1.3278c.2928.2928.2928.7675 0 1.0603s-.7675.2928-1.0603 0l-1.401-1.4011c-.2343-.2343-.366-.5521-.366-.8835v-1.5972c0-.4141.3357-.7498.7497-.7498z" fill="rgb(0,0,0)" fill-rule="evenodd"/></svg>