<svg width="20" height="23" viewBox="0 0 20 23" fill="none" xmlns="http://www.w3.org/2000/svg">
    <path d="M19.152 16.4384L18.3126 16.4078C18.236 16.1625 18.1325 15.9248 18.0098 15.6987L18.5694 15.1161C18.715 14.9628 18.7112 14.7175 18.5579 14.5719L17.2701 13.3301C17.1245 13.1883 16.8984 13.1845 16.745 13.3186L16.1241 13.8705C15.8827 13.744 15.6297 13.6444 15.3691 13.5677L15.3384 12.7744C15.3269 12.5712 15.1583 12.4103 14.9513 12.4103H14.4224V5.36961C14.4224 5.26996 14.3841 5.17414 14.3113 5.10132L9.37477 0.111148C9.30195 0.0383269 9.20613 0 9.10265 0H0.387102C0.176304 0 0 0.172471 0 0.387102V17.7032C0 17.914 0.172471 18.0903 0.387102 18.0903H8.55841V18.5847C8.55841 18.7879 8.72321 18.9603 8.93018 18.9718L9.76571 19.0025C9.84236 19.244 9.94584 19.4854 10.0685 19.7115L9.50892 20.2941C9.36327 20.4436 9.36711 20.6927 9.52041 20.8384L10.812 22.0802C10.9538 22.2181 11.1838 22.2258 11.3371 22.0917L11.9542 21.5397C12.1956 21.6624 12.4486 21.762 12.7092 21.8425L12.7437 22.6321C12.7514 22.839 12.92 23 13.1308 23H14.9513C15.1545 23 15.3231 22.839 15.3384 22.6321L15.3691 21.8425C15.6297 21.7659 15.8827 21.6624 16.1241 21.5397L16.745 22.0917C16.8945 22.2258 17.1206 22.2181 17.2701 22.0802L18.5579 20.8384C18.7112 20.6927 18.715 20.4436 18.5694 20.2941L18.0098 19.7115C18.1325 19.4854 18.236 19.244 18.3126 19.0025L19.152 18.9718C19.3551 18.9642 19.5199 18.7955 19.5199 18.5847V16.8294C19.5199 16.6224 19.3551 16.4538 19.152 16.4423V16.4384ZM14.0392 16.0092C14.9667 16.0092 15.7217 16.768 15.7217 17.6994C15.7217 18.6307 14.9667 19.3858 14.0392 19.3858C13.1116 19.3858 12.3566 18.6307 12.3566 17.6994C12.3566 16.768 13.1116 16.0092 14.0392 16.0092ZM8.55841 16.8217V17.3161H0.770372V0.770372H8.71938V5.36961C8.71938 5.58424 8.89185 5.75671 9.10648 5.75671H13.6597V12.4141H13.1346C12.9277 12.4141 12.759 12.5751 12.7475 12.7782L12.713 13.5716C12.4524 13.6482 12.1995 13.7479 11.958 13.8744L11.3409 13.3224C11.1915 13.1883 10.9615 13.1921 10.8159 13.3339L9.52425 14.5757C9.37094 14.7214 9.36711 14.9667 9.51275 15.12L10.0723 15.7025C9.94968 15.9287 9.84619 16.1663 9.76954 16.4116L8.93401 16.4423C8.72705 16.4499 8.56224 16.6186 8.56224 16.8294L8.55841 16.8217Z" fill="#0038FF"/>
    <path d="M3.73041 4.46503C3.96421 4.64133 4.30148 4.77165 4.76141 4.8713C5.1945 4.96328 5.40147 5.0706 5.49728 5.14342C5.55861 5.18941 5.59693 5.24307 5.59693 5.37721C5.59693 5.46153 5.57777 5.55735 5.43979 5.6685C5.30565 5.77581 5.11018 5.8333 4.86106 5.8333C4.58893 5.8333 4.38197 5.77581 4.24399 5.657C4.14434 5.57268 4.09835 5.48453 4.09068 5.37338C4.07919 5.16258 3.90671 5.00161 3.68442 5.01311C3.47362 5.0246 3.30881 5.20857 3.32415 5.41937C3.34331 5.74515 3.48512 6.02494 3.74957 6.24723C3.94121 6.40821 4.18267 6.51552 4.46246 6.56535V6.94478C4.46246 7.15941 4.63493 7.33188 4.84956 7.33188C5.06419 7.33188 5.23666 7.15941 5.23666 6.94478V6.56918C5.50878 6.52319 5.74258 6.42354 5.93804 6.2664C6.22933 6.02877 6.37497 5.72982 6.37497 5.37721C6.37497 5.0246 6.23316 4.72565 5.96487 4.52635C5.73108 4.35388 5.3938 4.21974 4.93004 4.12009C4.50078 4.0281 4.29382 3.92079 4.19417 3.84797C4.13284 3.80197 4.09452 3.74832 4.09452 3.61417C4.09452 3.52985 4.11368 3.43403 4.25166 3.32289C4.3858 3.21557 4.58127 3.15808 4.83039 3.15808C5.10252 3.15808 5.30948 3.21557 5.44746 3.33438C5.54711 3.4187 5.5931 3.50302 5.60077 3.618C5.61226 3.8288 5.80007 3.98978 6.00703 3.98211C6.21783 3.97061 6.38264 3.78664 6.37114 3.57584C6.35197 3.25007 6.21016 2.97028 5.94571 2.74798C5.75407 2.58701 5.51261 2.47969 5.23283 2.42987V2.05043C5.23283 1.8358 5.06036 1.66333 4.84573 1.66333C4.63109 1.66333 4.45862 1.8358 4.45862 2.05043V2.42604C4.1865 2.47203 3.95271 2.57168 3.76107 2.72882C3.46979 2.96645 3.32031 3.2654 3.32031 3.618C3.32031 3.97061 3.46212 4.26956 3.73041 4.46886V4.46503Z" fill="#0038FF"/>
    <path d="M2.79335 8.62748H11.6315C11.8462 8.62748 12.0186 8.455 12.0186 8.24037C12.0186 8.02574 11.8462 7.85327 11.6315 7.85327H2.79335C2.57872 7.85327 2.40625 8.02574 2.40625 8.24037C2.40625 8.455 2.57872 8.62748 2.79335 8.62748Z" fill="#0038FF"/>
    <path d="M2.79335 10.9654H11.6315C11.8462 10.9654 12.0186 10.7929 12.0186 10.5783C12.0186 10.3636 11.8462 10.1912 11.6315 10.1912H2.79335C2.57872 10.1912 2.40625 10.3636 2.40625 10.5783C2.40625 10.7929 2.57872 10.9654 2.79335 10.9654Z" fill="#0038FF"/>
    <path d="M8.87201 12.533H2.79335C2.57872 12.533 2.40625 12.7054 2.40625 12.9201C2.40625 13.1347 2.57872 13.3072 2.79335 13.3072H8.87201C9.08664 13.3072 9.25911 13.1347 9.25911 12.9201C9.25911 12.7054 9.08664 12.533 8.87201 12.533Z" fill="#0038FF"/>
    <path d="M6.879 14.8708H2.79335C2.57872 14.8708 2.40625 15.0433 2.40625 15.258C2.40625 15.4726 2.57872 15.6451 2.79335 15.6451H6.879C7.09364 15.6451 7.26611 15.4726 7.26611 15.258C7.26611 15.0433 7.09364 14.8708 6.879 14.8708Z" fill="#0038FF"/>
</svg>
