<svg width="17" height="17" viewBox="0 0 17 17" fill="none" xmlns="http://www.w3.org/2000/svg">
    <g clip-path="url(#clip0_11533_5181)">
        <path d="M13.2713 9.56171C13.0198 9.81317 13.0213 10.2212 13.2741 10.474L13.5029 10.7028C13.5447 10.7446 13.5454 10.8133 13.5036 10.8551C13.4618 10.8969 13.3938 10.8969 13.3513 10.8544L12.818 10.321C12.5651 10.0682 12.1571 10.0675 11.9056 10.3182C11.6542 10.5697 11.6556 10.9777 11.9085 11.2305L12.4418 11.7639C12.4836 11.8057 12.4843 11.8744 12.4425 11.9162C12.4008 11.958 12.3328 11.958 12.2903 11.9155L11.4516 11.0768C11.1987 10.824 10.7907 10.8233 10.5393 11.074C10.2878 11.3255 10.2892 11.7335 10.5421 11.9863L11.3808 12.825C11.4225 12.8668 11.4233 12.9355 11.3815 12.9773C11.3397 13.0191 11.2717 13.0191 11.2292 12.9766L8.25629 10.0037C8.00342 9.75084 7.59542 9.75013 7.34396 10.0009C7.0925 10.2523 7.09392 10.6603 7.3468 10.9132L10.9246 14.491C10.4557 14.418 9.66659 14.3869 9.18209 14.8707C8.72734 15.3254 8.73938 15.6399 8.88034 15.7816C9.26496 16.1662 9.56105 15.5585 11.3135 16.3957C13.0659 17.2337 14.1921 17.1643 14.9621 16.407L16.0232 15.346C16.0175 15.3516 16.0288 15.3403 16.0232 15.346C17.102 14.2672 17.4108 12.7924 16.3221 11.7044C16.32 11.7023 16.3185 11.7009 16.3164 11.6988L14.1822 9.56455C13.9308 9.31167 13.5228 9.31096 13.2713 9.56171Z" fill="#0038FF"/>
        <path d="M13.4583 0H2.125C0.951292 0 0 0.951292 0 2.125C0 3.29871 0.951292 4.25 2.125 4.25H13.4583C14.632 4.25 15.5833 3.29871 15.5833 2.125C15.5833 0.951292 14.632 0 13.4583 0ZM2.125 2.83333C1.734 2.83333 1.41667 2.516 1.41667 2.125C1.41667 1.734 1.734 1.41667 2.125 1.41667C2.516 1.41667 2.83333 1.734 2.83333 2.125C2.83333 2.516 2.516 2.83333 2.125 2.83333ZM4.95833 2.83333C4.56733 2.83333 4.25 2.516 4.25 2.125C4.25 1.734 4.56733 1.41667 4.95833 1.41667C5.34933 1.41667 5.66667 1.734 5.66667 2.125C5.66667 2.516 5.34933 2.83333 4.95833 2.83333Z" fill="#0038FF"/>
        <path d="M13.4583 5.66675H2.125C0.949167 5.66675 0 6.61591 0 7.79175C0 8.96758 0.949167 9.91675 2.125 9.91675H5.80833C5.90042 9.57675 6.08458 9.258 6.33958 9.003C7.14708 8.1955 8.45042 8.1955 9.25792 9.003L9.9875 9.73258C10.2212 9.598 10.4833 9.513 10.7525 9.48466C11.0365 9.10641 11.531 8.80112 12.1196 8.72675C12.7365 7.90366 14.1419 7.51904 15.3567 8.73383C15.5054 8.4505 15.5833 8.13175 15.5833 7.79175C15.5833 6.61591 14.6342 5.66675 13.4583 5.66675ZM2.125 8.50008C1.73542 8.50008 1.41667 8.18133 1.41667 7.79175C1.41667 7.40216 1.73542 7.08341 2.125 7.08341C2.51458 7.08341 2.83333 7.40216 2.83333 7.79175C2.83333 8.18133 2.51458 8.50008 2.125 8.50008ZM4.95833 8.50008C4.56875 8.50008 4.25 8.18133 4.25 7.79175C4.25 7.40216 4.56875 7.08341 4.95833 7.08341C5.34792 7.08341 5.66667 7.40216 5.66667 7.79175C5.66667 8.18133 5.34792 8.50008 4.95833 8.50008Z" fill="#0038FF"/>
        <path d="M6.34667 11.9141C6.17667 11.7441 6.035 11.5458 5.93583 11.3333H2.125C0.949167 11.3333 0 12.2824 0 13.4583C0 14.6341 0.949167 15.5833 2.125 15.5833H7.37375C7.37375 14.8749 7.86321 14.0618 8.23792 13.8124L6.34667 11.9141ZM2.125 14.1666C1.73542 14.1666 1.41667 13.8478 1.41667 13.4583C1.41667 13.0687 1.73542 12.7499 2.125 12.7499C2.51458 12.7499 2.83333 13.0687 2.83333 13.4583C2.83333 13.8478 2.51458 14.1666 2.125 14.1666ZM4.95833 14.1666C4.56875 14.1666 4.25 13.8478 4.25 13.4583C4.25 13.0687 4.56875 12.7499 4.95833 12.7499C5.34792 12.7499 5.66667 13.0687 5.66667 13.4583C5.66667 13.8478 5.34792 14.1666 4.95833 14.1666Z" fill="#0038FF"/>
    </g>
    <defs>
        <clipPath id="clip0_11533_5181">
            <rect width="17" height="17" fill="white"/>
        </clipPath>
    </defs>
</svg>
