<svg width="21" height="21" viewBox="0 0 21 21" fill="none" xmlns="http://www.w3.org/2000/svg">
    <path d="M15.922 16.8325C15.2584 16.8325 14.6893 17.2427 14.4537 17.8227H13.0703V19.0109H14.4537C14.6893 19.5909 15.2584 20.001 15.922 20.001C16.7955 20.001 17.5062 19.2903 17.5062 18.4168C17.5062 17.5432 16.7955 16.8325 15.922 16.8325Z"
          fill="#0038FF"/>
    <path d="M18.6944 13.4663C18.434 13.4663 18.1883 13.5298 17.9714 13.6416L16.5003 12.4157C16.3936 12.3268 16.259 12.2781 16.12 12.2781H13.0703V13.4663H15.9049L17.1947 14.5411C17.1402 14.7011 17.1102 14.8723 17.1102 15.0505C17.1102 15.9241 17.8209 16.6348 18.6944 16.6348C19.568 16.6348 20.2787 15.9241 20.2787 15.0505C20.2787 14.177 19.568 13.4663 18.6944 13.4663Z"
          fill="#0038FF"/>
    <path d="M18.6944 8.51538C18.0309 8.51538 17.4617 8.92554 17.2262 9.50554H13.0703V10.6937H17.2262C17.4617 11.2737 18.0309 11.6839 18.6944 11.6839C19.568 11.6839 20.2787 10.9732 20.2787 10.0996C20.2787 9.22608 19.568 8.51538 18.6944 8.51538Z"
          fill="#0038FF"/>
    <path d="M16.5003 7.78368L17.9714 6.55783C18.1883 6.66967 18.434 6.7332 18.6944 6.7332C19.568 6.7332 20.2787 6.02251 20.2787 5.14895C20.2787 4.27539 19.568 3.5647 18.6944 3.5647C17.8209 3.5647 17.1102 4.27539 17.1102 5.14895C17.1102 5.32718 17.1402 5.4984 17.1947 5.65837L15.9049 6.7332H13.0703V7.92139H16.12C16.259 7.92139 16.3936 7.87268 16.5003 7.78368Z"
          fill="#0038FF"/>
    <path d="M15.922 3.3665C16.7955 3.3665 17.5062 2.65581 17.5062 1.78225C17.5062 0.908694 16.7955 0.197998 15.922 0.197998C15.2584 0.197998 14.6893 0.608161 14.4537 1.18816H13.0703V2.37635H14.4537C14.6893 2.95634 15.2584 3.3665 15.922 3.3665Z"
          fill="#0038FF"/>
    <path d="M5.94531 10.0996C5.94531 12.3927 7.81089 14.2582 10.104 14.2582C10.7414 14.2582 11.3458 14.1139 11.8863 13.8564V6.34272C11.3458 6.08528 10.7414 5.94092 10.104 5.94092C7.81089 5.94092 5.94531 7.80649 5.94531 10.0996Z"
          fill="#0038FF"/>
    <path d="M11.2878 0H8.91142C8.58332 0 8.31733 0.265996 8.31733 0.594095V1.36741C7.20253 1.59451 6.13569 2.03648 5.18542 2.66487L4.63845 2.11795C4.40644 1.88593 4.0303 1.88593 3.79828 2.11795L2.11795 3.79828C1.88593 4.03026 1.88593 4.40644 2.11795 4.63845L2.66487 5.18542C2.03648 6.13569 1.59451 7.20253 1.36741 8.31733H0.594095C0.265996 8.31733 0 8.58332 0 8.91142V11.2878C0 11.6159 0.265996 11.8819 0.594095 11.8819H1.36741C1.59451 12.9967 2.03648 14.0635 2.66487 15.0138L2.11791 15.5608C2.0065 15.6722 1.94392 15.8233 1.94392 15.9809C1.94392 16.1384 2.0065 16.2895 2.11791 16.4009L3.79828 18.0813C4.0303 18.3133 4.40644 18.3133 4.63845 18.0813L5.18542 17.5343C6.13569 18.1627 7.20253 18.6047 8.31733 18.8318V19.6051C8.31733 19.9332 8.58332 20.1992 8.91142 20.1992H11.2878C11.6159 20.1992 11.8819 19.9332 11.8819 19.6051V15.1406C11.3242 15.3384 10.7243 15.4465 10.0996 15.4465C7.15135 15.4465 4.75276 13.0479 4.75276 10.0996C4.75276 7.15135 7.15135 4.75276 10.0996 4.75276C10.7243 4.75276 11.3242 4.8608 11.8819 5.0586V0.594095C11.8819 0.265996 11.6159 0 11.2878 0Z"
          fill="#0038FF"/>
</svg>
