<svg width="20" height="20" viewBox="0 0 20 20" fill="none" xmlns="http://www.w3.org/2000/svg">
    <path d="M7.10672 3.02969C7.94231 3.02969 8.61969 2.35147 8.61969 1.51484C8.61969 0.678219 7.94231 0 7.10672 0C6.27113 0 5.59375 0.678219 5.59375 1.51484C5.59375 2.35147 6.27113 3.02969 7.10672 3.02969Z" fill="#0038FF"/>
    <path d="M0.276081 5.38571C0.550729 5.55727 0.912331 5.47313 1.08346 5.19821C1.75221 4.12418 2.69592 3.24504 3.81256 2.65586C4.09893 2.50477 4.20874 2.14989 4.0578 1.86317C3.9069 1.57645 3.55241 1.46649 3.26612 1.61762C1.966 2.30364 0.867292 3.32707 0.0888541 4.57731C-0.082435 4.85231 0.00139315 5.21426 0.276081 5.38571Z" fill="#0038FF"/>
    <path d="M10.4067 2.65586C11.5234 3.24512 12.4671 4.12426 13.1358 5.19821C13.307 5.47317 13.6684 5.55715 13.9432 5.38574C14.2179 5.2143 14.3017 4.85235 14.1305 4.57731C13.3521 3.32711 12.2534 2.30364 10.9532 1.61762C10.6669 1.46649 10.3124 1.57645 10.1615 1.86317C10.0105 2.14989 10.1203 2.50477 10.4067 2.65586Z" fill="#0038FF"/>
    <path d="M15.5474 14.3218C15.0345 14.3218 14.6172 14.7396 14.6172 15.2532C14.6172 15.7668 15.0345 16.1846 15.5474 16.1846C16.0604 16.1846 16.4777 15.7668 16.4777 15.2532C16.4777 14.7396 16.0604 14.3218 15.5474 14.3218Z" fill="#0038FF"/>
    <path d="M19.6161 13.8214L20.0009 13.4766L19.3128 12.2833L18.822 12.4444C17.7355 12.8014 16.5796 12.1321 16.3452 11.0127L16.2393 10.5066H14.8631L14.7571 11.0129C14.5227 12.1324 13.3665 12.8016 12.2799 12.4445L11.7895 12.2833L11.1016 13.4765L11.4863 13.8212C12.3383 14.5847 12.3383 15.9218 11.4863 16.6853L11.1016 17.03L11.7896 18.2231L12.2801 18.0619C13.367 17.7048 14.5232 18.3742 14.7574 19.4939L14.8632 19.9999H16.2392L16.345 19.4941C16.5791 18.3745 17.7351 17.7051 18.8219 18.062L19.3128 18.2232L20.0009 17.03L19.6161 16.685C18.7644 15.9215 18.7645 14.585 19.6161 13.8214ZM15.5512 17.3677C14.3867 17.3677 13.4393 16.4191 13.4393 15.2532C13.4393 14.0873 14.3867 13.1387 15.5512 13.1387C16.7156 13.1387 17.663 14.0873 17.663 15.2532C17.663 16.4191 16.7156 17.3677 15.5512 17.3677Z" fill="#0038FF"/>
    <path d="M11.6982 11.0096L12.6445 11.3206C12.7663 11.3606 12.8918 11.368 13.0128 11.3446V8.94498C13.0128 5.68334 10.3626 3.02979 7.105 3.02979C3.84742 3.02979 1.19719 5.68334 1.19719 8.94439L1.1934 12.7195L0.117734 14.3046C0.0511719 14.4026 0.015625 14.5184 0.015625 14.637V16.4376H9.98734L10.6945 15.8039C11.0225 15.51 11.0225 14.9969 10.6945 14.7029L9.95215 14.0378C9.74379 13.851 9.69473 13.5437 9.83453 13.3012L11.0024 11.2759C11.1422 11.0335 11.4326 10.9222 11.6982 11.0096Z" fill="#0038FF"/>
    <path d="M4.74234 17.6204C4.74234 17.6242 4.74219 17.6279 4.74219 17.6317C4.74219 18.9375 5.8032 19.9999 7.10738 19.9999C8.41156 19.9999 9.47258 18.9375 9.47258 17.6317C9.47258 17.6279 9.47242 17.6242 9.47242 17.6204H4.74234Z" fill="#0038FF"/>
</svg>
