<svg width="20" height="23" viewBox="0 0 20 23" fill="none" xmlns="http://www.w3.org/2000/svg">
    <path d="M2.21986 14.6128L0.0703979 18.911C-0.0329484 19.1175 -0.0218508 19.3629 0.0993556 19.5592C0.220909 19.7553 0.434884 19.8748 0.665679 19.8748H3.89906L5.83906 22.4614C5.96512 22.6301 6.16297 22.7277 6.37122 22.7277C6.6478 22.7277 6.86576 22.5627 6.96702 22.3598L8.99251 18.3086C6.254 18.0468 3.83959 16.6582 2.21986 14.6128Z" fill="#0038FF"/>
    <path d="M19.8049 18.911L17.6555 14.6128C16.0357 16.6582 13.6213 18.0468 10.8828 18.3086L12.9085 22.3598C13.0096 22.5627 13.2275 22.7277 13.5041 22.7277C13.7123 22.7277 13.9104 22.6301 14.0364 22.4614L15.9763 19.8748H19.2096C19.4404 19.8748 19.6544 19.7553 19.776 19.5592C19.8972 19.3629 19.9083 19.1175 19.8049 18.911Z" fill="#0038FF"/>
    <path d="M18.4442 8.51115C18.4442 3.81809 14.6261 0 9.93303 0C5.23996 0 1.42188 3.81809 1.42188 8.51115C1.42188 13.204 5.23996 17.0223 9.93303 17.0223C14.6261 17.0223 18.4442 13.2042 18.4442 8.51115ZM15.1915 7.39602L13.332 9.61554L13.5318 12.504C13.5475 12.7329 13.4445 12.9538 13.259 13.0887C13.0733 13.2235 12.8314 13.2533 12.6186 13.1676L9.93303 12.0851L7.24741 13.1676C7.17545 13.1966 6.88882 13.2933 6.60705 13.0887C6.42151 12.9538 6.31851 12.7329 6.33429 12.504L6.53439 9.61554L4.67485 7.39619C4.52746 7.22019 4.48099 6.9809 4.55191 6.76276C4.62283 6.54463 4.80109 6.37816 5.02373 6.3225L7.83246 5.61989L9.36861 3.16541C9.49034 2.97103 9.70362 2.85295 9.93303 2.85295C10.1624 2.85295 10.3757 2.97103 10.4974 3.16541L12.0339 5.61989L14.8427 6.3225C15.0653 6.37816 15.2436 6.54463 15.3145 6.76276C15.3854 6.9809 15.3389 7.22019 15.1915 7.39602Z" fill="#0038FF"/>
    <circle cx="9.90176" cy="8.50625" r="6.6752" fill="#0038FF"/>
    <path d="M14.6318 7.35304L13.7998 7.24728C13.7312 7.0362 13.6467 6.83264 13.548 6.63926L14.0618 5.9777C14.2698 5.70998 14.2454 5.33207 14.0078 5.10196L13.3108 4.405C13.0785 4.16516 12.7005 4.14126 12.4324 4.3488L11.7717 4.86256C11.5783 4.76388 11.3747 4.67936 11.1632 4.61077L11.0574 3.78017C11.0176 3.44695 10.7348 3.19604 10.3998 3.19604H9.40852C9.07353 3.19604 8.79075 3.44695 8.75092 3.77884L8.64515 4.61077C8.43362 4.67936 8.23006 4.76344 8.03667 4.86256L7.37552 4.3488C7.10823 4.14126 6.73031 4.16516 6.49975 4.40279L5.80275 5.09931C5.5629 5.33207 5.53856 5.70998 5.74655 5.97814L6.26033 6.63926C6.16121 6.83264 6.07713 7.0362 6.00853 7.24728L5.1779 7.35304C4.84467 7.39287 4.59375 7.67564 4.59375 8.01062V9.00186C4.59375 9.33684 4.84467 9.61961 5.17657 9.65943L6.00853 9.7652C6.07713 9.97628 6.16165 10.1798 6.26033 10.3732L5.74655 11.0348C5.53856 11.3025 5.5629 11.6804 5.80054 11.9105L6.49753 12.6075C6.73031 12.8469 7.10779 12.8708 7.37596 12.6632L8.03711 12.1495C8.2305 12.2486 8.43406 12.3331 8.64515 12.4013L8.75092 13.2314C8.79075 13.5655 9.07353 13.8164 9.40852 13.8164H10.3998C10.7348 13.8164 11.0176 13.5655 11.0574 13.2336L11.1632 12.4017C11.3743 12.3331 11.5778 12.2486 11.7712 12.1499L12.4328 12.6637C12.7005 12.8717 13.0785 12.8473 13.3086 12.6097L14.0056 11.9127C14.2454 11.68 14.2698 11.3025 14.0618 11.0343L13.548 10.3732C13.6471 10.1798 13.7316 9.97628 13.7998 9.7652L14.63 9.65943C14.9632 9.61961 15.2141 9.33684 15.2141 9.00186V8.01062C15.2146 7.67564 14.9637 7.39287 14.6318 7.35304ZM9.90416 10.7188C8.6841 10.7188 7.69149 9.72625 7.69149 8.50624C7.69149 7.28622 8.6841 6.29366 9.90416 6.29366C11.1242 6.29366 12.1168 7.28622 12.1168 8.50624C12.1168 9.72625 11.1242 10.7188 9.90416 10.7188Z" fill="white"/>
</svg>
