<svg width="20" height="20" viewBox="0 0 20 20" fill="none" xmlns="http://www.w3.org/2000/svg">
    <path d="M10 5.625C9.13471 5.625 8.28885 5.88159 7.56938 6.36232C6.84992 6.84305 6.28916 7.52633 5.95803 8.32576C5.6269 9.12519 5.54026 10.0049 5.70907 10.8535C5.87788 11.7022 6.29456 12.4817 6.90641 13.0936C7.51826 13.7054 8.29781 14.1221 9.14648 14.2909C9.99515 14.4597 10.8748 14.3731 11.6742 14.042C12.4737 13.7108 13.157 13.1501 13.6377 12.4306C14.1184 11.7112 14.375 10.8653 14.375 10C14.3737 8.84007 13.9124 7.72803 13.0922 6.90783C12.272 6.08764 11.1599 5.62629 10 5.625ZM12.3169 9.19187L9.81688 11.6919C9.75886 11.7499 9.68998 11.796 9.61416 11.8274C9.53834 11.8588 9.45707 11.875 9.375 11.875C9.29293 11.875 9.21166 11.8588 9.13584 11.8274C9.06002 11.796 8.99114 11.7499 8.93313 11.6919L7.68313 10.4419C7.56928 10.324 7.50628 10.1661 7.50771 10.0022C7.50913 9.83838 7.57486 9.68162 7.69074 9.56574C7.80662 9.44986 7.96338 9.38413 8.12725 9.3827C8.29112 9.38128 8.449 9.44428 8.56688 9.55812L9.375 10.3662L11.4331 8.30812C11.551 8.19428 11.7089 8.13128 11.8728 8.1327C12.0366 8.13413 12.1934 8.19986 12.3093 8.31574C12.4251 8.43162 12.4909 8.58838 12.4923 8.75225C12.4937 8.91612 12.4307 9.074 12.3169 9.19187Z"
          fill="#0038FF"/>
    <path d="M19.0528 8.025L17.7887 7.70888C17.6257 7.15475 17.4036 6.61976 17.1262 6.11313L17.7976 4.99438C17.9413 4.75538 18.0008 4.47518 17.9668 4.19842C17.9327 3.92166 17.807 3.66426 17.6096 3.46725L16.532 2.39013C16.3351 2.19268 16.0776 2.06688 15.8009 2.0328C15.5241 1.99873 15.2438 2.05834 15.0049 2.20213L13.8868 2.87325C13.38 2.59605 12.8449 2.37423 12.2906 2.21163L11.9745 0.946627C11.9072 0.676009 11.7512 0.435733 11.5314 0.264151C11.3116 0.092568 11.0406 -0.000429741 10.7618 1.493e-06H9.238C8.95921 -0.000286377 8.68835 0.0927697 8.4686 0.264334C8.24885 0.435898 8.09286 0.676094 8.0255 0.946627L7.70938 2.21163C7.15517 2.37431 6.62008 2.59613 6.11331 2.87325L4.99456 2.20181C4.75558 2.05823 4.47541 1.99876 4.19871 2.03289C3.92201 2.06702 3.66469 2.19278 3.46775 2.39013L2.38981 3.468C2.19263 3.66506 2.06705 3.92242 2.03307 4.19911C1.99909 4.4758 2.05867 4.7559 2.20231 4.99481L2.87344 6.11356C2.59633 6.62023 2.37452 7.15522 2.21181 7.70931L0.946814 8.02544C0.676236 8.09276 0.43599 8.24874 0.264388 8.46851C0.0927863 8.68828 -0.00029016 8.95917 1.28255e-06 9.238V10.762C-0.000398355 11.0409 0.0926064 11.3119 0.26418 11.5317C0.435753 11.7516 0.67601 11.9076 0.946626 11.975L2.21163 12.2911C2.37434 12.8452 2.59616 13.3802 2.87325 13.8869L2.20181 15.0057C2.05832 15.2447 1.9989 15.5248 2.03303 15.8015C2.06715 16.0782 2.19285 16.3355 2.39013 16.5325L3.468 17.6104C3.66499 17.8077 3.92237 17.9333 4.19909 17.9673C4.47581 18.0013 4.75594 17.9416 4.99481 17.7979L6.11356 17.1268C6.62023 17.4039 7.15522 17.6257 7.70931 17.7884L8.02544 19.0534C8.0928 19.3239 8.24879 19.5641 8.46856 19.7357C8.68832 19.9073 8.9592 20.0003 9.238 20H10.7618C11.0406 20.0004 11.3115 19.9074 11.5312 19.7358C11.751 19.5642 11.907 19.324 11.9743 19.0534L12.2904 17.7884C12.8446 17.6258 13.3798 17.404 13.8865 17.1268L15.0053 17.7982C15.2442 17.9417 15.5243 18.0012 15.801 17.9671C16.0776 17.9329 16.3349 17.8072 16.5318 17.6099L17.6103 16.532C17.8074 16.3349 17.933 16.0776 17.9669 15.8009C18.0009 15.5242 17.9414 15.2441 17.7978 15.0052L17.1263 13.8868C17.4037 13.3801 17.6258 12.8451 17.7888 12.2909L19.0529 11.9748C19.3235 11.9075 19.5639 11.7515 19.7355 11.5317C19.9072 11.3119 20.0003 11.0409 20 10.762V9.238C20.0003 8.95905 19.9072 8.68802 19.7355 8.46816C19.5638 8.24831 19.3235 8.09229 19.0528 8.025ZM10 15.625C8.88748 15.625 7.79994 15.2951 6.87492 14.677C5.94989 14.0589 5.22892 13.1804 4.80318 12.1526C4.37744 11.1248 4.26604 9.99376 4.48308 8.90262C4.70013 7.81148 5.23586 6.8092 6.02253 6.02253C6.8092 5.23586 7.81148 4.70013 8.90262 4.48308C9.99376 4.26604 11.1248 4.37744 12.1526 4.80318C13.1804 5.22892 14.0589 5.94989 14.677 6.87492C15.2951 7.79995 15.625 8.88748 15.625 10C15.6233 11.4913 15.0302 12.9211 13.9756 13.9756C12.9211 15.0302 11.4913 15.6233 10 15.625Z"
          fill="#0038FF"/>
</svg>
