<svg width="20" height="19" viewBox="0 0 20 19" fill="none" xmlns="http://www.w3.org/2000/svg">
    <path d="M19.5065 13.5227L18.8014 13.4331C18.7433 13.2542 18.6717 13.0818 18.5881 12.9179L19.0235 12.3572C19.1997 12.1304 19.1791 11.8101 18.9777 11.6151L18.3871 11.0245C18.1902 10.8213 17.8699 10.801 17.6427 10.9769L17.0828 11.4123C16.9189 11.3286 16.7464 11.257 16.5671 11.1989L16.4775 10.495C16.4437 10.2126 16.2041 10 15.9202 10H15.0802C14.7963 10 14.5566 10.2126 14.5229 10.4939L14.4333 11.1989C14.254 11.257 14.0815 11.3283 13.9176 11.4123L13.3573 10.9769C13.1308 10.801 12.8106 10.8213 12.6152 11.0226L12.0245 11.6129C11.8213 11.8101 11.8007 12.1304 11.9769 12.3576L12.4123 12.9179C12.3283 13.0818 12.2571 13.2542 12.1989 13.4331L11.495 13.5227C11.2126 13.5565 11 13.7961 11 14.08V14.92C11 15.2039 11.2126 15.4435 11.4939 15.4773L12.1989 15.5669C12.2571 15.7457 12.3287 15.9183 12.4123 16.0821L11.9769 16.6428C11.8007 16.8696 11.8213 17.1899 12.0227 17.3849L12.6133 17.9755C12.8106 18.1784 13.1305 18.1986 13.3577 18.0227L13.918 17.5874C14.0819 17.6714 14.2544 17.743 14.4333 17.8007L14.5229 18.5042C14.5566 18.7874 14.7963 19 15.0802 19H15.9202C16.2041 19 16.4437 18.7874 16.4775 18.5061L16.5671 17.8011C16.746 17.743 16.9185 17.6714 17.0824 17.5877L17.643 18.0231C17.8699 18.1994 18.1902 18.1788 18.3852 17.9774L18.9758 17.3868C19.1791 17.1895 19.1997 16.8696 19.0235 16.6424L18.5881 16.0821C18.6721 15.9183 18.7437 15.7457 18.8014 15.5669L19.505 15.4773C19.7874 15.4435 20 15.2039 20 14.92V14.08C20.0004 13.7961 19.7877 13.5565 19.5065 13.5227ZM15.5002 16.375C14.4663 16.375 13.6251 15.5339 13.6251 14.5C13.6251 13.4661 14.4663 12.625 15.5002 12.625C16.5341 12.625 17.3753 13.4661 17.3753 14.5C17.3753 15.5339 16.5341 16.375 15.5002 16.375Z" fill="#0038FF"/>
    <path d="M9.56523 14.2252C9.56523 13.9308 9.59295 13.6428 9.64535 13.3634H2.76344C2.47464 13.3634 2.2405 13.1293 2.2405 12.8405C2.2405 12.5517 2.47464 12.3176 2.76344 12.3176H9.9734C10.1758 11.8676 10.4476 11.4552 10.775 11.0942C10.7217 11.1125 10.6647 11.1229 10.6052 11.1229H2.76344C2.07313 11.0985 2.06832 10.1035 2.76344 10.0771H10.6051C10.9573 10.0703 11.2199 10.4401 11.0994 10.7698C11.7252 10.2022 12.5054 9.80196 13.3686 9.64006V3.87852C13.3686 2.95 12.6123 2.23535 11.7254 2.23535H10.2607C10.1916 3.44138 9.18889 4.40146 7.96585 4.40146H5.40273C4.17969 4.40146 3.17698 3.44138 3.10784 2.23535H1.6432C0.75627 2.23535 0 2.95007 0 3.87852V16.2012C0 17.1278 0.754771 17.8444 1.6432 17.8444H11.2903C10.2385 16.9883 9.56523 15.684 9.56523 14.2252ZM2.76344 5.59609H10.6052C10.894 5.59609 11.1281 5.83022 11.1281 6.11902C11.1281 6.40782 10.894 6.64196 10.6052 6.64196H2.76344C2.07274 6.61738 2.06863 5.62241 2.76344 5.59609ZM2.76344 7.83659H10.6052C10.894 7.83659 11.1281 8.07072 11.1281 8.35953C11.1281 8.64832 10.894 8.88246 10.6052 8.88246H2.76344C2.07274 8.85788 2.06863 7.86287 2.76344 7.83659ZM5.56404 15.6039H2.76344C2.07128 15.5787 2.07002 14.5839 2.76344 14.5581H5.56404C5.85284 14.5581 6.08698 14.7922 6.08698 15.081C6.08698 15.3698 5.85284 15.6039 5.56404 15.6039Z" fill="#0038FF"/>
    <path d="M5.40144 3.35538H7.96456C9.68502 3.27829 9.59382 0.80662 7.87117 0.849013C7.48618 -0.283353 5.87937 -0.282656 5.49484 0.849013C3.77912 0.803483 3.67495 3.27401 5.40144 3.35538Z" fill="#0038FF"/>
</svg>
