<svg width="22" height="22" viewBox="0 0 22 22" fill="none" xmlns="http://www.w3.org/2000/svg">
    <path d="M20.6524 13.7342V12.3457H14.2513C14.2513 14.1424 12.7948 15.599 10.9981 15.599C9.20132 15.599 7.7448 14.1424 7.7448 12.3457H1.34375V13.7342L4.12331 14.0286C4.29669 14.7393 4.57741 15.408 4.94732 16.0164L3.18956 18.1905L5.15327 20.1542L7.32736 18.3964C7.9358 18.7664 8.60448 19.0471 9.31518 19.2204L9.60952 22H12.3866L12.6809 19.2204C13.3916 19.0471 14.0603 18.7664 14.6687 18.3964L16.8428 20.1542L18.8065 18.1905L17.0488 16.0164C17.4187 15.408 17.6994 14.7393 17.8728 14.0286L20.6524 13.7342Z"
          fill="#0038FF"/>
    <path d="M11.0014 0C9.62646 0 8.50781 1.11865 8.50781 2.49361C8.50781 3.86856 9.62646 4.98717 11.0014 4.98717C12.3764 4.98717 13.495 3.86856 13.495 2.49361C13.495 1.11865 12.3764 0 11.0014 0Z"
          fill="#0038FF"/>
    <path d="M13.6517 5.67651H8.34193C7.11951 5.67656 6.125 6.67103 6.125 7.89344V11.0565H15.8687V7.89344C15.8687 6.67103 14.8742 5.67651 13.6517 5.67651Z"
          fill="#0038FF"/>
    <path d="M5.71038 1.15186C4.47864 1.15186 3.47656 2.15397 3.47656 3.38567C3.47656 4.60749 4.46274 5.60277 5.68086 5.61872C6.18531 5.02867 6.88136 4.60753 7.67216 4.45306C7.8455 4.13573 7.94419 3.77205 7.94419 3.38567C7.94419 2.15393 6.94212 1.15186 5.71038 1.15186Z"
          fill="#0038FF"/>
    <path d="M3.32972 6.23706C2.23466 6.23706 1.34375 7.12793 1.34375 8.22303V11.0566H4.83715V7.89346C4.83715 7.29469 4.98832 6.73064 5.25408 6.23706H3.32972Z"
          fill="#0038FF"/>
    <path d="M16.2885 1.15186C15.0568 1.15186 14.0547 2.15397 14.0547 3.38567C14.0547 3.772 14.1533 4.13573 14.3267 4.45306C15.1175 4.60753 15.8136 5.02867 16.318 5.61872C17.5361 5.60282 18.5223 4.60749 18.5223 3.38567C18.5223 2.15393 17.5202 1.15186 16.2885 1.15186Z"
          fill="#0038FF"/>
    <path d="M18.6665 6.23706H16.7422C17.0079 6.73064 17.1591 7.29469 17.1591 7.89346V11.0566H20.6525V8.22299C20.6525 7.12793 19.7616 6.23706 18.6665 6.23706Z"
          fill="#0038FF"/>
</svg>
