<svg width="20" height="17" viewBox="0 0 20 17" fill="none" xmlns="http://www.w3.org/2000/svg">
    <path d="M13.023 16.1574C12.8243 16.2508 12.6033 16.3021 12.3704 16.3021H1.54992C0.694699 16.3021 0 15.6087 0 14.7522C0 12.9786 0.719697 11.3734 1.88148 10.2103C3.04325 9.04724 4.64975 8.32886 6.42333 8.32886H7.49696C8.14429 8.32886 8.77057 8.42491 9.36001 8.60253L9.35475 8.61174C9.17055 8.93146 9.12187 9.3038 9.2166 9.66036C9.31265 10.0169 9.54158 10.3156 9.8613 10.4998L10.0087 10.5853C9.99156 10.7564 9.98235 10.9287 9.98235 11.1011C9.98235 11.2734 9.99156 11.4458 10.0087 11.6168L9.8613 11.7024C9.54158 11.8866 9.31265 12.1852 9.2166 12.5418C9.12187 12.8983 9.17055 13.2707 9.35475 13.5904L10.0771 14.8403C10.3231 15.2666 10.7823 15.5324 11.2744 15.5324C11.5165 15.5324 11.7546 15.4679 11.9651 15.3469L12.1125 15.2614C12.3927 15.4627 12.6927 15.6364 13.0072 15.7771V15.9482C13.0072 16.0192 13.0124 16.089 13.023 16.1574Z"
          fill="#0038FF"/>
    <path d="M6.96445 6.96015C8.88644 6.96015 10.4445 5.40206 10.4445 3.48007C10.4445 1.55808 8.88644 0 6.96445 0C5.04246 0 3.48438 1.55808 3.48438 3.48007C3.48438 5.40206 5.04246 6.96015 6.96445 6.96015Z"
          fill="#0038FF"/>
    <path d="M19.8372 12.6144L19.0491 12.1592C19.1399 11.821 19.1886 11.4671 19.1886 11.1013C19.1886 10.7356 19.1399 10.3803 19.0491 10.0435L19.8372 9.58825C19.9951 9.49747 20.049 9.29616 19.9583 9.13828L19.2359 7.88834C19.1451 7.73046 18.9438 7.67651 18.7859 7.7673L17.9978 8.22254C17.4979 7.72256 16.8689 7.35153 16.165 7.16338V6.25422C16.165 6.07265 16.0177 5.92529 15.8361 5.92529H14.3928C14.2112 5.92529 14.0638 6.07265 14.0638 6.25422V7.16338C13.3599 7.35021 12.731 7.72125 12.231 8.22254L11.4429 7.7673C11.285 7.67651 11.0837 7.73046 10.993 7.88834L10.2706 9.13828C10.1798 9.29616 10.2338 9.49747 10.3917 9.58825L11.1798 10.0435C11.089 10.3816 11.0403 10.7356 11.0403 11.1013C11.0403 11.4671 11.089 11.8223 11.1798 12.1592L10.3917 12.6144C10.2338 12.7052 10.1798 12.9065 10.2706 13.0644L10.993 14.3143C11.0837 14.4722 11.285 14.5261 11.4429 14.4354L12.231 13.9801C12.731 14.4801 13.3599 14.8511 14.0638 15.0393V15.9484C14.0638 16.13 14.2112 16.2774 14.3928 16.2774H15.8361C16.0177 16.2774 16.165 16.13 16.165 15.9484V15.0393C16.8689 14.8524 17.4979 14.4814 17.9978 13.9801L18.7859 14.4354C18.9438 14.5261 19.1451 14.4722 19.2359 14.3143L19.9583 13.0644C20.049 12.9065 19.9951 12.7052 19.8372 12.6144ZM15.1138 12.7631C14.1954 12.7631 13.452 12.0184 13.452 11.1013C13.452 10.183 14.1967 9.43957 15.1138 9.43957C16.0308 9.43957 16.7755 10.1843 16.7755 11.1013C16.7755 12.0184 16.0322 12.7631 15.1138 12.7631Z"
          fill="#0038FF"/>
</svg>
