<svg id="Capa_1" enable-background="new 0 0 512 512" height="512" viewBox="0 0 512 512" width="512" xmlns="http://www.w3.org/2000/svg"><g><g><g><path d="m500.028 112.098h-105.408c-1.749 0-3.167-1.418-3.167-3.167v-105.439l-1.056-3.492h-205.422c-2.915 0-5.278 2.363-5.278 5.278v109.732h39.038l112.567 112.568v170.411h166.97c2.915 0 5.278-2.363 5.278-5.278v-279.557z" fill="#fff3de"/><g><path d="m219.149 114.011 9.036 9.036v-117.769c0-2.915 2.363-5.278 5.278-5.278h-48.488c-2.915 0-5.278 2.363-5.278 5.278v108.732h39.452z" fill="#ffe5c2"/></g><g><path d="m390.397 0v109.987c0 1.749 1.418 3.167 3.167 3.167h109.987z" fill="#fe9901"/></g><g><path d="m423.127 109.987v-77.257l-32.73-32.73v109.987c0 1.749 1.418 3.167 3.167 3.167h32.73c-1.749 0-3.167-1.418-3.167-3.167z" fill="#fb8801"/></g></g><g><path d="m462.781 155.181h-203.875l72.397 72.397v101.435h131.478c1.749 0 3.167-1.418 3.167-3.167v-167.498c0-1.749-1.418-3.167-3.167-3.167z" fill="#fb8801"/><path d="m331.303 329.013h128.49l-64.556-87.055c-2.11-2.846-6.369-2.846-8.479 0l-36.262 48.9-19.192-25.881v64.036z" fill="#fed402"/><path d="m462.781 147.682h-211.375l15 15h192.042v158.832h-127.145v15h131.479c5.882 0 10.667-4.785 10.667-10.667v-167.498c-.001-5.882-4.786-10.667-10.668-10.667z" fill="#fff"/><g><circle cx="421.083" cy="199.113" fill="#fed402" r="15.835"/></g></g><g><g><path d="m292.42 120.654c-2.485 0-4.868-1.239-6.279-3.398l-13.669-20.924v16.822c0 4.142-3.357 7.5-7.5 7.5s-7.5-3.358-7.5-7.5v-42.016c0-3.318 2.18-6.242 5.36-7.188 3.178-.944 6.604.309 8.419 3.086l13.669 20.924v-16.822c0-4.142 3.357-7.5 7.5-7.5s7.5 3.358 7.5 7.5v42.016c0 3.318-2.18 6.242-5.36 7.188-.708.211-1.428.312-2.14.312z" fill="#fb8801"/></g><g><path d="m218.735 115.011 3.647 3.647c1.483-1.37 2.418-3.326 2.418-5.504v-12.007h9.392c9.957 0 18.057-8.1 18.057-18.057v-1.396c0-9.956-8.1-18.056-18.057-18.056h-16.892c-4.142 0-7.5 3.358-7.5 7.5v42.016c0 .642.089 1.262.241 1.857zm6.065-36.373h9.392c1.686 0 3.057 1.371 3.057 3.056v1.396c0 1.686-1.371 3.057-3.057 3.057h-9.392z" fill="#fb8801"/><g><path d="m330.424 120.654h-6.336c-9.956 0-18.057-8.1-18.057-18.057v-20.903c0-9.956 8.101-18.056 18.057-18.056h16.893c4.143 0 7.5 3.358 7.5 7.5s-3.357 7.5-7.5 7.5h-16.893c-1.686 0-3.057 1.371-3.057 3.056v20.903c0 1.686 1.371 3.057 3.057 3.057h6.336c1.686 0 3.057-1.371 3.057-3.057v-2.202c-4.091-.059-7.39-3.394-7.39-7.499 0-4.142 3.357-7.5 7.5-7.5h7.39c4.143 0 7.5 3.358 7.5 7.5v9.701c-.001 9.957-8.101 18.057-18.057 18.057z" fill="#fb8801"/></g></g></g></g><g><g><g><path d="m328.78 226.109h-105.408c-1.749 0-3.167-1.418-3.167-3.167v-105.439l-1.055-3.492h-205.423c-2.915 0-5.278 2.363-5.278 5.278v387.433c0 2.915 2.363 5.278 5.278 5.278h313.297c2.915 0 5.278-2.363 5.278-5.278v-279.557z" fill="#d8ecfe"/></g><path d="m62.326 506.722v-63.698h-13.107c-1.749 0-3.167-1.418-3.167-3.167v-167.498c0-1.749 1.418-3.167 3.167-3.167h13.107v-149.903c0-2.915 2.363-5.278 5.278-5.278h-53.877c-2.915 0-5.278 2.363-5.278 5.278v387.433c0 2.915 2.363 5.278 5.278 5.278h53.877c-2.915 0-5.278-2.363-5.278-5.278z" fill="#c4e2ff"/><g><path d="m219.149 114.011v109.987c0 1.749 1.418 3.167 3.167 3.167h109.987z" fill="#0593fc"/></g><g><path d="m251.879 223.998v-77.257l-32.73-32.73v109.987c0 1.749 1.418 3.167 3.167 3.167h32.73c-1.749 0-3.167-1.418-3.167-3.167z" fill="#0182fc"/></g><g><g><path d="m66.923 234.665h-6.335c-9.957 0-18.057-8.1-18.057-18.057v-2.949c0-4.142 3.358-7.5 7.5-7.5s7.5 3.358 7.5 7.5v2.949c0 1.686 1.371 3.057 3.057 3.057h6.335c1.686 0 3.057-1.371 3.057-3.057v-31.459c0-4.142 3.358-7.5 7.5-7.5s7.5 3.358 7.5 7.5v31.459c0 9.956-8.1 18.057-18.057 18.057z" fill="#0182fc"/></g><g><path d="m99.396 234.665c-4.142 0-7.5-3.358-7.5-7.5v-42.016c0-4.142 3.358-7.5 7.5-7.5h16.892c9.956 0 18.056 8.1 18.056 18.056v1.396c0 9.956-8.1 18.056-18.056 18.056h-9.392v12.008c0 4.142-3.358 7.5-7.5 7.5zm7.5-34.508h9.392c1.685 0 3.056-1.371 3.056-3.056v-1.396c0-1.685-1.371-3.056-3.056-3.056h-9.392z" fill="#0182fc"/></g><g><path d="m164.042 234.665h-6.335c-9.957 0-18.057-8.1-18.057-18.057v-20.903c0-9.956 8.1-18.056 18.057-18.056h16.892c4.142 0 7.5 3.358 7.5 7.5s-3.358 7.5-7.5 7.5h-16.892c-1.686 0-3.057 1.371-3.057 3.056v20.903c0 1.686 1.371 3.057 3.057 3.057h6.335c1.686 0 3.057-1.371 3.057-3.057v-2.202c-4.091-.059-7.39-3.394-7.39-7.499 0-4.142 3.358-7.5 7.5-7.5h7.39c4.142 0 7.5 3.358 7.5 7.5v9.701c0 9.956-8.1 18.057-18.057 18.057z" fill="#0182fc"/></g></g></g><g><g><g><path d="m46.052 439.857v-167.498c0-1.749 1.418-3.167 3.167-3.167h242.314c1.749 0 3.167 1.418 3.167 3.167v167.498c0 1.749-1.418 3.167-3.167 3.167h-242.314c-1.749 0-3.167-1.418-3.167-3.167z" fill="#0593fc"/></g></g><g><path d="m89.111 439.857v-167.498c0-1.749 1.418-3.167 3.167-3.167h-43.059c-1.749 0-3.167 1.418-3.167 3.167v167.498c0 1.749 1.418 3.167 3.167 3.167h43.059c-1.749 0-3.167-1.418-3.167-3.167z" fill="#0182fc"/></g><g><path d="m49.219 443.024h239.325l-64.556-87.055c-2.11-2.846-6.369-2.846-8.48 0l-36.262 48.9-51.792-69.842c-2.11-2.846-6.369-2.846-8.48 0l-72.924 98.339v6.492c.002 1.748 1.42 3.166 3.169 3.166z" fill="#46cc8d"/></g><g><g><path d="m89.111 439.857v-6.492l55.634-75.024-17.29-23.315c-2.11-2.846-6.369-2.846-8.479 0l-72.924 98.339v6.492c0 1.749 1.418 3.167 3.167 3.167h43.059c-1.749 0-3.167-1.418-3.167-3.167z" fill="#08b865"/></g></g><g><g><path d="m291.533 450.524h-242.314c-5.882 0-10.667-4.785-10.667-10.667v-167.498c0-5.882 4.785-10.667 10.667-10.667h242.314c5.882 0 10.667 4.785 10.667 10.667v167.498c0 5.882-4.785 10.667-10.667 10.667zm-237.981-15h233.648v-158.832h-233.648z" fill="#fff"/></g></g><g><circle cx="249.835" cy="313.123" fill="#fff" r="15.835"/></g></g><g><path d="m91.202 481.489h-45.15c-4.142 0-7.5-3.358-7.5-7.5s3.358-7.5 7.5-7.5h45.15c4.142 0 7.5 3.358 7.5 7.5s-3.358 7.5-7.5 7.5z" fill="#fff"/></g></g></g></svg>