<svg width="23" height="23" viewBox="0 0 23 23" fill="none" xmlns="http://www.w3.org/2000/svg">
    <path d="M11.1005 22.2496C10.7139 22.2496 10.3258 22.2294 9.93718 22.1885C6.0053 21.7717 2.45762 19.1549 0.898142 15.5222C-0.654984 11.9026 -0.169458 7.68785 2.16599 4.5212C2.42663 4.16799 2.92408 4.09289 3.2769 4.35354C3.63012 4.61378 3.70521 5.11122 3.44457 5.46484C1.44327 8.17894 1.02727 11.7926 2.35869 14.8948C3.69488 18.0082 6.73518 20.2507 10.1045 20.6075C13.4614 20.9635 16.7922 19.4986 18.7935 16.7845C20.7952 14.0704 21.2111 10.4568 19.8793 7.3545C18.9361 5.15652 17.1334 3.34514 14.9335 2.38481C12.4669 1.30807 9.53788 1.34344 7.09793 2.47818C6.69942 2.66333 6.2274 2.4905 6.04225 2.09278C5.8571 1.69467 6.02993 1.22225 6.42765 1.0371C9.31697 -0.306636 12.6493 -0.346368 15.5692 0.928236C18.1355 2.04828 20.2389 4.16242 21.3399 6.72752C22.8934 10.3463 22.4079 14.5619 20.0724 17.7285C17.9694 20.5797 14.6089 22.2496 11.1005 22.2496Z" fill="#0038FF"/>
    <path d="M4.42784 4.04775C4.20295 4.04775 3.97926 3.95279 3.82192 3.76764C3.53784 3.43349 3.57836 2.93168 3.91291 2.64799C4.02138 2.55581 4.13223 2.46522 4.24427 2.37702C4.58954 2.10565 5.08898 2.16564 5.36035 2.51091C5.63132 2.85579 5.57172 3.35522 5.22645 3.62659C5.1303 3.70208 5.03574 3.77956 4.94236 3.85862C4.79258 3.98577 4.60981 4.04775 4.42784 4.04775Z" fill="#0038FF"/>
    <path d="M15.885 11.9174H6.34933C5.91069 11.9174 5.55469 11.5614 5.55469 11.1228C5.55469 10.6841 5.91069 10.3281 6.34933 10.3281H15.885C16.3237 10.3281 16.6797 10.6841 16.6797 11.1228C16.6797 11.5614 16.3237 11.9174 15.885 11.9174Z" fill="#0038FF"/>
    <path d="M11.1189 16.6875C10.6802 16.6875 10.3242 16.3315 10.3242 15.8928V6.35714C10.3242 5.9185 10.6802 5.5625 11.1189 5.5625C11.5575 5.5625 11.9135 5.9185 11.9135 6.35714V15.8928C11.9135 16.3315 11.5575 16.6875 11.1189 16.6875Z" fill="#0038FF"/>
</svg>
