<svg width="22" height="22" viewBox="0 0 22 22" fill="none" xmlns="http://www.w3.org/2000/svg">
    <path d="M10.9816 22C10.5991 22 10.2151 21.98 9.83069 21.9395C5.94094 21.5274 2.43129 18.94 0.888517 15.3481C-0.647964 11.7691 -0.167642 7.60159 2.14278 4.47048C2.40063 4.12122 2.89274 4.04697 3.24178 4.30469C3.59121 4.56201 3.6655 5.05388 3.40765 5.40352C1.4278 8.08717 1.01626 11.6603 2.33341 14.7277C3.65528 17.8062 6.663 20.0235 9.99616 20.3763C13.3171 20.7283 16.6122 19.2798 18.592 16.5962C20.5723 13.9125 20.9838 10.3394 19.6663 7.27198C18.7332 5.09866 16.9498 3.3076 14.7734 2.35805C12.3333 1.2934 9.43566 1.32836 7.02186 2.45038C6.62762 2.63345 6.16066 2.46256 5.97749 2.0693C5.79433 1.67565 5.96531 1.20854 6.35877 1.02547C9.21711 -0.303196 12.5137 -0.342482 15.4023 0.917821C17.9411 2.0253 20.022 4.11572 21.1112 6.65204C22.6481 10.2302 22.1677 14.3985 19.8573 17.5296C17.7768 20.3488 14.4523 22 10.9816 22Z"
          fill="#0038FF"/>
    <path d="M4.38416 4.00757C4.16169 4.00757 3.94039 3.91367 3.78474 3.7306C3.5037 3.4002 3.54379 2.90401 3.87475 2.62351C3.98206 2.53237 4.09172 2.44279 4.20256 2.35558C4.54414 2.08725 5.03821 2.14658 5.30668 2.48797C5.57474 2.82898 5.51578 3.32281 5.17421 3.59113C5.07909 3.66577 4.98554 3.74238 4.89317 3.82056C4.74499 3.94628 4.56418 4.00757 4.38416 4.00757Z"
          fill="#0038FF"/>
    <path d="M15.7196 11.7863H6.28612C5.85218 11.7863 5.5 11.4343 5.5 11.0006C5.5 10.5668 5.85218 10.2148 6.28612 10.2148H15.7196C16.1536 10.2148 16.5057 10.5668 16.5057 11.0006C16.5057 11.4343 16.1536 11.7863 15.7196 11.7863Z"
          fill="#0038FF"/>
</svg>
