<svg width="39" height="39" viewBox="0 0 39 39" fill="none" xmlns="http://www.w3.org/2000/svg">
    <g clip-path="url(#clip0_9620_5494)">
        <path d="M29.9019 33.3298H23.7522H22.0962H21.7386V25.081H24.4363C25.1205 25.081 25.5248 24.3035 25.1205 23.7437L19.8727 16.4823C19.5383 16.0158 18.8464 16.0158 18.5121 16.4823L13.2643 23.7437C12.86 24.3035 13.2565 25.081 13.9484 25.081H16.6462V33.3298H16.2886H14.6326H7.5033C3.42165 33.1043 0.171875 29.287 0.171875 25.1509C0.171875 22.2977 1.71902 19.8098 4.01252 18.4648C3.8026 17.8973 3.69376 17.2908 3.69376 16.6533C3.69376 13.7379 6.04946 11.3822 8.96492 11.3822C9.59466 11.3822 10.2011 11.491 10.7686 11.7009C12.4557 8.12462 16.0942 5.64453 20.3236 5.64453C25.7969 5.65231 30.3061 9.8428 30.8193 15.1839C35.0253 15.907 38.2207 19.802 38.2207 24.2102C38.2207 28.9216 34.5511 33.0033 29.9019 33.3298Z"
              fill="#0038FF"/>
    </g>
    <defs>
        <clipPath id="clip0_9620_5494">
            <rect width="38.0488" height="38.0488" fill="white" transform="translate(0.171875 0.462891)"/>
        </clipPath>
    </defs>
</svg>
