<svg width="23" height="23" viewBox="0 0 23 23" fill="none" xmlns="http://www.w3.org/2000/svg">
    <g clip-path="url(#clip0_9367_3467)">
        <path d="M22.3422 3.14523C22.0039 2.80629 21.4549 2.80571 21.1165 3.14379L10.7174 13.5154L6.96547 9.44044C6.64127 9.08852 6.09313 9.0657 5.74063 9.38986C5.3884 9.71406 5.36585 10.2625 5.69005 10.6147L10.0531 15.3531C10.2129 15.5268 10.4365 15.6276 10.6723 15.6325C10.6787 15.6328 10.6848 15.6328 10.6908 15.6328C10.92 15.6328 11.1404 15.5418 11.3028 15.38L22.3405 4.37119C22.6797 4.03315 22.6803 3.48416 22.3422 3.14523Z"
              fill="black"/>
        <path d="M22.1331 10.6331C21.6544 10.6331 21.2663 11.0212 21.2663 11.5C21.2663 16.8854 16.8854 21.2663 11.5 21.2663C6.11495 21.2663 1.73367 16.8854 1.73367 11.5C1.73367 6.11495 6.11495 1.73367 11.5 1.73367C11.9788 1.73367 12.3669 1.34563 12.3669 0.866857C12.3669 0.388035 11.9788 0 11.5 0C5.15883 0 0 5.15883 0 11.5C0 17.8409 5.15883 23 11.5 23C17.8409 23 23 17.8409 23 11.5C23 11.0212 22.612 10.6331 22.1331 10.6331Z"
              fill="black"/>
    </g>
    <defs>
        <clipPath id="clip0_9367_3467">
            <rect width="23" height="23" fill="white"/>
        </clipPath>
    </defs>
</svg>
